<?xml version="1.0" standalone="no"?>
<!DOCTYPE svg PUBLIC "-//W3C//DTD SVG 1.1//EN" "http://www.w3.org/Graphics/SVG/1.1/DTD/svg11.dtd" >
<svg xmlns="http://www.w3.org/2000/svg">
<metadata></metadata>
<defs>
<font id="telefon_webregular" horiz-adv-x="1000" >
<font-face units-per-em="2048" ascent="1591" descent="-457" />
<missing-glyph horiz-adv-x="500" />
<glyph unicode=" "  horiz-adv-x="500" />
<glyph unicode="&#x09;" horiz-adv-x="500" />
<glyph unicode="&#xa0;" horiz-adv-x="500" />
<glyph unicode="!" horiz-adv-x="568" d="M174 1380q0 14 2 17t16 3h184q14 0 16 -3t2 -17l-40 -982q0 -14 -4 -17t-18 -3h-96q-14 0 -18 3t-4 17zM284 -24q-50 0 -87 35t-37 89q0 52 36 88t88 36t88 -36t36 -86q0 -52 -36 -89t-88 -37z" />
<glyph unicode="&#x22;" horiz-adv-x="720" d="M278 1400q14 0 17 -4t1 -16l-38 -408q-2 -12 -5 -16t-15 -4h-76q-12 0 -15 4t-5 16l-38 408q-2 12 1 16t17 4h156v0zM598 1400q14 0 17 -4t1 -16l-38 -408q-2 -12 -5 -16t-15 -4h-76q-12 0 -15 4t-5 16l-38 408q-2 12 1 16t17 4h156v0z" />
<glyph unicode="#" horiz-adv-x="1048" d="M368 358l-58 -338q-4 -12 -7 -16t-17 -4h-100q-14 0 -16 4t0 16l58 338h-146q-14 0 -17 4t-3 16v88q0 12 3 16t17 4h168l52 294h-160q-14 0 -17 4t-3 16v88q0 12 3 16t17 4h184l58 332q4 12 7 16t17 4h100q24 0 16 -20l-58 -332h216l58 332q4 12 7 16t17 4h100 q24 0 16 -20l-58 -332h146q14 0 17 -4t3 -16v-88q0 -12 -3 -16t-17 -4h-170l-52 -294h162q14 0 17 -4t3 -16v-88q0 -12 -3 -16t-17 -4h-184l-58 -338q-4 -12 -7 -16t-17 -4h-100q-14 0 -16 4t0 16l58 338h-216zM606 486l52 294h-216l-52 -294h216z" />
<glyph unicode="$" horiz-adv-x="1022" d="M734 394q0 44 -12 75t-34 53t-53 41t-69 39v-390q66 4 117 49t51 133zM440 1192q-32 -2 -60 -11t-49 -27t-34 -47t-13 -71q0 -78 42 -122t114 -78v356zM440 638l-48 22q-138 64 -209 148t-71 212q0 60 20 117t61 103t103 76t144 38v126q0 14 3 17t17 3h86q14 0 17 -3 t3 -17v-126q64 0 134 -26t116 -54q16 -10 16 -20v-178q0 -14 -8 -14q-6 0 -10 4q-58 58 -122 92t-126 34v-398l80 -38q134 -66 199 -148t65 -192q0 -84 -26 -147t-72 -108t-109 -72t-137 -39v-130q0 -14 -3 -17t-17 -3h-86q-14 0 -17 3t-3 17v130q-32 0 -71 7t-78 19t-74 26 t-57 28q-16 10 -16 20v178q0 14 8 14q6 0 10 -4q58 -58 137 -92t141 -34v426z" />
<glyph unicode="%" horiz-adv-x="1938" d="M684 1074q0 43 -13.5 80t-38.5 64.5t-61 43.5t-81 16q-46 0 -82 -16t-61.5 -43.5t-39 -64.5t-13.5 -80t13.5 -80t39 -64.5t61.5 -43.5t82 -16q45 0 81 16t61 43.5t38.5 64.5t13.5 80zM144 1074q0 68 24 130t69 108.5t109 74t144 27.5q79 0 142.5 -27.5t108.5 -74 t69 -108.5t24 -130t-24 -130t-69 -108.5t-108.5 -74t-142.5 -27.5q-80 0 -144 27.5t-109 74t-69 108.5t-24 130zM1644 326q0 43 -13.5 80t-38.5 64.5t-61 43.5t-81 16q-46 0 -82 -16t-61.5 -43.5t-39 -64.5t-13.5 -80t13.5 -80t39 -64.5t61.5 -43.5t82 -16q45 0 81 16 t61 43.5t38.5 64.5t13.5 80zM1104 326q0 68 24 130t69 108.5t109 74t144 27.5q79 0 142.5 -27.5t108.5 -74t69 -108.5t24 -130t-24 -130t-69 -108.5t-108.5 -74t-142.5 -27.5q-80 0 -144 27.5t-109 74t-69 108.5t-24 130zM1310 1422q6 11 10.5 11.5t15.5 -5.5l86 -50 q9 -6 11.5 -11t-3.5 -17l-792 -1372q-6 -11 -10.5 -11.5t-15.5 5.5l-86 50q-9 6 -11.5 11t3.5 17z" />
<glyph unicode="&#x26;" horiz-adv-x="1282" d="M492 670q-6 8 -12 8q-4 0 -7 -2t-7 -4q-36 -28 -68 -55t-57 -59t-40 -71t-15 -89q0 -70 25 -119t63 -80t85 -45t89 -14q86 0 143 22t117 86q6 6 6 14q0 6 -6 16zM400 1132q0 -28 12 -58t29 -58t36 -53t35 -45q8 -8 16 -8q6 0 16 8q40 32 67 56t43 47t23 49t7 62 q0 62 -40 101t-104 39t-102 -39t-38 -101zM1048 280q-6 -10 -6 -14q0 -6 8 -16l172 -224q2 -2 2 -3t2 -3l4 -12q0 -8 -18 -8h-170q-14 0 -26 14l-84 110q-4 6 -6 6q-4 0 -10 -6q-64 -72 -160 -108t-200 -36q-88 0 -170 25t-146 76t-102 130t-38 185q0 80 22 141t60 110 t86 87t100 74q8 2 8 12q0 6 -4 10q-22 26 -48 62t-47 76t-35 82t-14 82q0 68 26 122t70 91t100 56t116 19q62 0 119 -19t101 -56t70 -91t26 -122q0 -62 -17 -111t-46 -90t-68 -76t-83 -69q-8 -2 -8 -14q0 -8 6 -16l266 -340q6 -8 12 -8q8 0 10 8q16 38 26 97t14 103 q0 16 16 16h146q18 0 18 -16q-2 -40 -11 -85t-23 -90t-31 -87t-35 -74z" />
<glyph unicode="'" horiz-adv-x="400" d="M278 1400q14 0 17 -4t1 -16l-38 -408q-2 -12 -5 -16t-15 -4h-76q-12 0 -15 4t-5 16l-38 408q-2 12 1 16t17 4h156v0z" />
<glyph unicode="(" horiz-adv-x="524" d="M286 -270q-38 84 -73 183t-62 210t-43 231t-16 244q0 126 16 244t43 226t62 205t73 179q6 14 14 14t10 -2l132 -58q10 -4 10 -12t-2 -10q-34 -72 -66 -160t-57 -188t-40 -211t-15 -227q0 -118 15 -231t40 -216t57 -192t66 -161q2 -2 2 -10t-10 -12l-132 -58q-2 -2 -10 -2 t-14 14z" />
<glyph unicode=")" horiz-adv-x="524" d="M238 -270q-6 -14 -14 -14t-10 2l-132 58q-10 4 -10 12t2 10q34 72 66 161t57 192t40 216t15 231q0 116 -15 227t-40 211t-57 188t-66 160q-2 2 -2 10t10 12l132 58q2 2 10 2t14 -14q38 -82 73 -179t62 -205t43 -226t16 -244q0 -124 -16 -244t-43 -231t-62 -210t-73 -183z " />
<glyph unicode="*" horiz-adv-x="662" d="M282 912q-14 0 -17 4t-3 16l18 140l-6 4l-118 -80q-16 -12 -28 8l-42 72q-4 6 -4 14t10 14l134 58v8l-134 60q-16 8 -6 28l42 72q4 10 10 13t16 -5l120 -84l6 2l-18 144q0 12 3 16t17 4h96q14 0 17 -4t3 -16l-18 -142l6 -4l120 84q10 6 15 5t11 -13l42 -72q12 -18 -6 -28 l-132 -62v-6l132 -58q14 -6 14 -11t-8 -17l-42 -72q-6 -10 -12 -13t-16 5l-116 80l-6 -4l16 -140q0 -12 -3 -16t-17 -4h-96v0z" />
<glyph unicode="+" d="M580 568q0 -14 3 -17t17 -3h310q14 0 17 -4t3 -16v-108q0 -12 -3 -16t-17 -4h-310q-14 0 -17 -3t-3 -17v-360q0 -12 -3 -16t-17 -4h-120q-14 0 -17 4t-3 16v360q0 14 -3 17t-17 3h-310q-14 0 -17 4t-3 16v108q0 12 3 16t17 4h310q14 0 17 3t3 17v358q0 12 3 16t17 4h120 q14 0 17 -4t3 -16v-358z" />
<glyph unicode="," horiz-adv-x="500" d="M160 174q2 12 5 16t17 4h156q20 0 18 -20l-114 -392q-4 -12 -7 -16t-17 -4h-86q-12 0 -14 5t-2 15l44 392v0z" />
<glyph unicode="-" horiz-adv-x="600" d="M100 600q0 14 4 17t16 3h360q14 0 17 -3t3 -17v-120q0 -14 -3 -17t-17 -3h-360q-14 0 -17 3t-3 17v120v0z" />
<glyph unicode="." horiz-adv-x="500" d="M250 -24q-50 0 -87 35t-37 89q0 52 36 88t88 36t88 -36t36 -86q0 -52 -36 -89t-88 -37z" />
<glyph unicode="/" d="M206 -160q-8 -14 -13 -16t-15 2l-104 50q-20 10 -8 28l728 1552q8 14 13 16t15 -2l104 -50q20 -10 8 -28l-728 -1552v0z" />
<glyph unicode="0" horiz-adv-x="1016" d="M926 630q0 -318 -106 -484t-312 -166t-312 166t-106 484t106 484t312 166t312 -166t106 -484zM278 630q0 -112 12 -201t39 -152t71 -96t108 -33t108 33t71 96t39 152t12 201t-12 201t-39 152t-71 96t-108 33t-108 -33t-71 -96t-39 -152t-12 -201z" />
<glyph unicode="1" horiz-adv-x="620" d="M460 20q0 -14 -3 -17t-17 -3h-140q-14 0 -17 3t-3 17v996q0 16 -3 20t-17 0l-176 -58q-12 -4 -16 -3t-4 15v130q0 14 4 19t16 9l356 124q16 4 18 1t2 -17v-1236v0z" />
<glyph unicode="2" horiz-adv-x="938" d="M820 158q14 0 17 -3t3 -17v-118q0 -14 -3 -17t-17 -3h-782q-14 0 -14 14q0 10 5 16t7 8l230 246l206 218q106 112 145 208t39 180q0 96 -47 161t-155 65q-90 0 -144 -60t-54 -156q0 -10 -3 -15t-17 -5h-146q-18 0 -18 18q0 78 25 147t74 121t120 83t163 31t165 -28 t122 -79t75 -121t26 -156q0 -66 -14 -129t-45 -127t-84 -135t-131 -153l-160 -170q-16 -16 -16 -20t18 -4h410z" />
<glyph unicode="3" horiz-adv-x="974" d="M102 964q2 66 29 124t73 101t111 67t143 24q84 0 153 -25t119 -69t77 -106t27 -134t-31 -135t-85 -109q-8 -8 -8 -12t8 -10q80 -54 128 -136t48 -178q0 -82 -31 -152t-87 -122t-132 -82t-168 -30q-84 0 -154 24t-122 68t-85 103t-43 131q0 14 16 14h152q12 0 16 -12 q16 -72 73 -119t147 -47q108 0 170 61t62 163q0 96 -62 158t-170 62h-100q-12 0 -14 3t-2 15v122q0 12 2 15t14 3h106q42 0 74 17t54 45t33 64t11 76q0 80 -53 130t-143 50q-84 0 -133 -47t-49 -115q0 -14 -3 -17t-17 -3h-134q-14 0 -17 3t-3 17z" />
<glyph unicode="4" d="M804 18q0 -12 -2 -15t-16 -3h-136q-12 0 -15 3t-3 15v166q0 12 -3 15t-15 3h-592q-12 0 -12 6q0 2 4 10l180 252l596 832q4 4 8 4q6 0 6 -6v-928q0 -12 3 -15t15 -3h108q12 0 15 -3t3 -15v-116q0 -12 -3 -15t-15 -3h-108q-12 0 -15 -3t-3 -15v-166zM632 800q0 8 -4 8 l-2 -2q-2 0 -2 -1t-2 -1l-306 -432q-6 -10 -6 -12q0 -6 10 -6h294q12 0 15 3t3 15v428z" />
<glyph unicode="5" horiz-adv-x="912" d="M198 1240q2 14 6 17t18 3h534q14 0 17 -3t3 -17v-116q0 -14 -3 -17t-17 -3h-388q-12 0 -15 -3t-5 -15l-20 -284q0 -14 3 -17t17 -3q28 2 44 3t44 1q96 0 171 -31t126 -84t78 -126t27 -157q0 -76 -29 -149t-85 -130t-137 -93t-185 -36q-66 0 -118 12t-93 32t-73 45t-58 51 q-6 6 -6 14q0 6 10 16l96 96q10 10 14 10t14 -12q12 -18 33 -36t49 -33t62 -25t70 -10q54 0 99 17t79 49t53 77t19 103q0 120 -69 187t-197 67q-84 0 -134 -25t-72 -41q-10 -4 -16 -9t-10 -5q-8 0 -8 18l52 662v0z" />
<glyph unicode="6" d="M502 -20q-100 0 -178 33t-132 89t-83 131t-29 161q0 64 12 113t38 96t70 101t107 127t148 172t195 239q8 12 14 15t18 3h184q14 0 14 -4q0 -6 -8 -14l-372 -444q-4 -4 -4 -8q0 -6 10 -6h26q86 0 159 -29t126 -82t82 -124t29 -155q0 -86 -29 -161t-84 -131t-134 -89 t-179 -33zM262 394q0 -108 63 -181t177 -73t179 73t65 181q0 102 -65 173t-179 71t-177 -71t-63 -173z" />
<glyph unicode="7" horiz-adv-x="814" d="M66 0q-12 0 -12 8l4 12l516 1054q4 16 4 14q0 14 -16 14h-496q-12 0 -15 3t-3 15v122q0 12 3 15t15 3h760q12 0 12 -8q0 2 -4 -10l-586 -1224q-6 -12 -10 -15t-18 -3h-154v0z" />
<glyph unicode="8" horiz-adv-x="978" d="M254 366q0 -44 18 -85t49 -73t74 -51t93 -19t94 19t75 51t49 73t18 85q0 48 -16 91t-47 74t-75 50t-98 19t-98 -19t-74 -50t-46 -74t-16 -91zM312 950q0 -76 48 -130t128 -54q84 0 133 54t49 130q0 70 -49 124t-131 54q-40 0 -73 -15t-56 -40t-36 -57t-13 -66zM256 686 q8 6 8 10t-8 12q-52 46 -84 109t-32 133q0 68 25 128t72 105t111 71t142 26t143 -26t111 -71t72 -105t26 -128q0 -72 -34 -134t-86 -108q-8 -8 -8 -12t8 -10q78 -54 128 -136t50 -184q0 -80 -30 -150t-84 -123t-130 -83t-168 -30q-94 0 -169 30t-129 83t-83 123t-29 150 q0 102 47 184t131 136z" />
<glyph unicode="9" horiz-adv-x="960" d="M712 880q0 50 -17 93t-47 76t-72 52t-94 19q-54 0 -96 -19t-72 -52t-46 -76t-16 -93q0 -48 17 -89t47 -73t73 -50t97 -18t96 18t71 50t44 73t15 89zM132 0q-14 0 -14 4l8 14l376 474q4 4 4 8t-6 4q-10 -2 -36 -2q-84 0 -156 28t-125 77t-82 119t-29 154t28 157t81 127 t129 85t172 31t172 -31t129 -85t81 -127t28 -157q0 -78 -24 -144t-85 -155t-166 -221t-267 -342q-8 -12 -14 -15t-18 -3h-186z" />
<glyph unicode=":" horiz-adv-x="500" d="M250 -24q-50 0 -87 35t-37 89q0 52 36 88t88 36t88 -36t36 -86q0 -52 -36 -89t-88 -37zM250 656q-50 0 -87 35t-37 89q0 52 36 88t88 36t88 -36t36 -86q0 -52 -36 -89t-88 -37z" />
<glyph unicode=";" horiz-adv-x="500" d="M158 174q2 12 5 16t17 4h156q20 0 18 -20l-114 -392q-4 -12 -7 -16t-17 -4h-86q-12 0 -14 5t-2 15l44 392v0zM250 656q-50 0 -87 35t-37 89q0 52 36 88t88 36t88 -36t36 -86q0 -52 -36 -89t-88 -37z" />
<glyph unicode="&#x3c;" d="M286 478q0 -6 4 -10l620 -262q12 -5 16 -9.5t4 -18.5v-126q0 -16 -10 -16q-2 0 -3.5 1t-6.5 3l-820 360q-14 6 -17 16t-3 28v66q0 18 3 25t17 13l820 352q5 2 6.5 3t3.5 1q10 0 10 -16v-126q0 -14 -4 -18.5t-16 -9.5l-620 -246q-4 -4 -4 -10z" />
<glyph unicode="=" d="M910 380q14 0 17 -4t3 -16v-108q0 -12 -3 -16t-17 -4h-820q-14 0 -17 4t-3 16v108q0 12 3 16t17 4h820zM910 716q14 0 17 -4t3 -16v-108q0 -12 -3 -16t-17 -4h-820q-14 0 -17 4t-3 16v108q0 12 3 16t17 4h820z" />
<glyph unicode="&#x3e;" d="M714 478q0 6 -4 10l-620 246q-12 5 -16 9.5t-4 18.5v126q0 16 10 16q2 0 3.5 -1t6.5 -3l820 -352q14 -6 17 -13t3 -25v-66q0 -18 -3 -28t-17 -16l-820 -360q-5 -2 -6.5 -3t-3.5 -1q-10 0 -10 16v126q0 14 4 18.5t16 9.5l620 262q4 4 4 10z" />
<glyph unicode="?" horiz-adv-x="840" d="M406 -24q-50 0 -87 35t-37 89q0 52 36 88t88 36t88 -36t36 -86q0 -52 -36 -89t-88 -37zM430 1254q-186 0 -186 -210q0 -10 -3 -15t-17 -5h-134q-18 0 -18 18v32q0 74 22 138t67 111t113 74t160 27q176 0 267 -87t91 -237q0 -68 -24 -122t-61 -100t-79 -88t-79 -85 t-61 -90t-24 -103v-114q0 -14 -4 -17t-18 -3h-96q-14 0 -17 3t-7 17t-9 57t-5 95q0 96 45 165t100 127t100 114t45 126q0 84 -42 128t-126 44z" />
<glyph unicode="@" horiz-adv-x="1520" d="M702 208q102 0 160 73t58 189q0 98 -45 144t-119 46q-56 0 -97 -22t-68 -58t-40 -82t-13 -94q0 -36 11 -72t32 -63t52 -44t69 -17zM978 774q4 14 8 16t16 2h114q12 0 15 -2t-1 -16l-80 -432q-4 -22 -8 -49t-4 -49t9 -39t31 -17q30 0 65 24t65 69t49 108t19 139 q0 116 -37 205t-103 148t-156 89t-196 30q-118 0 -216 -44t-169 -121t-111 -181t-40 -224q0 -136 41 -243t116 -183t180 -116t231 -40q116 0 224 27t170 89q4 4 10 4q8 0 8 -14v-156q0 -10 -16 -20q-72 -36 -172 -58t-220 -22q-166 0 -302 50t-233 144t-150 230t-53 308 q0 156 55 288t151 227t225 149t277 54q128 0 246 -42t208 -120t143 -188t53 -248q0 -92 -30 -180t-82 -157t-124 -111t-156 -42q-46 0 -76 26t-46 72q-4 6 -8 6q-6 0 -8 -6q-46 -46 -99 -74t-131 -28q-60 0 -114 26t-96 71t-67 105t-25 130q0 86 25 163t71 134t114 91 t156 34q64 0 119 -29t83 -81q2 -6 8 -6q4 0 8 6z" />
<glyph unicode="A" horiz-adv-x="1124" d="M568 886q-4 6 -12 6q-10 0 -12 -6l-152 -436q-2 -4 -2 -10q0 -2 -2 -2q0 -4 1 -6t11 -2h314q14 0 14 6q0 -2 -4 14zM550 1422q2 8 10 8t10 -8l520 -1402q2 -2 2 -12q0 -8 -16 -8h-174q-12 0 -17 3t-9 17l-80 210q-4 14 -8 17t-18 3h-428q-20 0 -26 -20l-74 -210 q-4 -14 -9 -17t-17 -3h-168q-16 0 -16 8q0 10 2 12z" />
<glyph unicode="B" horiz-adv-x="1048" d="M146 1380q0 14 3 17t17 3h324q200 0 305 -99t105 -263q0 -110 -47 -173t-101 -95q-8 -6 -8 -12q0 -8 8 -10q40 -16 80 -44t72 -70t52 -100t20 -132q0 -94 -33 -168t-93 -126t-144 -80t-186 -28h-354q-14 0 -17 3t-3 17v1360zM548 176q104 0 160 66t56 170t-61 166 t-165 62h-180q-14 0 -17 -3t-3 -17v-424q0 -14 3 -17t17 -3h190zM338 836q0 -14 3 -17t17 -3h132q90 0 150 53t60 155q0 96 -57 148t-153 52h-132q-14 0 -17 -3t-3 -17v-368z" />
<glyph unicode="C" horiz-adv-x="1244" d="M812 -20q-168 0 -301 57t-226 156t-143 229t-50 278q0 146 50 277t143 230t226 156t301 57q90 0 169 -22t151 -58q16 -10 16 -20v-214q0 -14 -8 -14q-6 0 -10 4q-62 62 -141 96t-177 34q-124 0 -218 -44t-158 -118t-96 -168t-32 -196t32 -196t96 -168t158 -118t218 -44 q98 0 177 34t141 96q4 4 10 4q8 0 8 -14v-214q0 -10 -16 -20q-72 -36 -151 -58t-169 -22z" />
<glyph unicode="D" horiz-adv-x="1258" d="M492 1400q128 0 219 -25t161 -69q146 -90 220 -249t74 -357q0 -108 -25 -208t-74 -185t-121 -150t-168 -105q-62 -26 -143 -39t-161 -13h-308q-14 0 -17 3t-3 17v1360q0 14 3 17t17 3h326zM948 700q0 144 -44 261t-140 185q-50 36 -128 54t-162 18h-112q-14 0 -17 -3 t-3 -17v-996q0 -14 3 -17t17 -3h114q84 0 157 18t123 54q96 68 144 185t48 261z" />
<glyph unicode="E" horiz-adv-x="1024" d="M146 1380q0 14 3 17t17 3h746q14 0 17 -3t3 -17v-144q0 -14 -3 -17t-17 -3h-550q-14 0 -17 -3t-3 -17v-494q0 -14 3 -17t17 -3h530q14 0 17 -3t3 -17v-142q0 -14 -3 -17t-17 -3h-530q-14 0 -17 -3t-3 -17v-276q0 -14 3 -17t17 -3h560q14 0 17 -3t3 -17v-144q0 -14 -3 -17 t-17 -3h-756q-14 0 -17 3t-3 17v1360v0z" />
<glyph unicode="F" horiz-adv-x="980" d="M146 1380q0 14 3 17t17 3h722q14 0 17 -3t3 -17v-144q0 -14 -3 -17t-17 -3h-526q-14 0 -17 -3t-3 -17v-494q0 -14 3 -17t17 -3h510q14 0 17 -3t3 -17v-142q0 -14 -3 -17t-17 -3h-510q-14 0 -17 -3t-3 -17v-460q0 -14 -3 -17t-17 -3h-156q-14 0 -17 3t-3 17v1360v0z" />
<glyph unicode="G" horiz-adv-x="1322" d="M812 1226q-126 0 -221 -43t-158 -115t-94 -168t-31 -200q0 -106 32 -203t96 -170t160 -117t224 -44q52 0 106 7t92 25q10 4 10 14v338q0 14 -3 17t-17 3h-262q-14 0 -17 3t-3 17v138q0 14 3 17t17 3h454q14 0 17 -3t3 -17v-626q0 -14 -12 -22q-34 -28 -80 -47t-97 -31 t-106 -17t-105 -5q-170 0 -305 57t-229 156t-144 229t-50 278q0 146 50 277t143 230t226 156t301 57q96 0 175 -20t151 -60q16 -10 16 -20v-214q0 -14 -8 -14q-6 0 -10 4q-62 62 -144 96t-180 34z" />
<glyph unicode="H" horiz-adv-x="1184" d="M1038 20q0 -14 -3 -17t-17 -3h-156q-14 0 -17 3t-3 17v460q0 14 -3 17t-17 3h-460q-14 0 -17 -3t-3 -17v-460q0 -14 -3 -17t-17 -3h-156q-14 0 -17 3t-3 17v1360q0 14 3 17t17 3h156q14 0 17 -3t3 -17v-678q0 -14 3 -17t17 -3h460q14 0 17 3t3 17v678q0 14 3 17t17 3h156 q14 0 17 -3t3 -17v-1360v0z" />
<glyph unicode="I" horiz-adv-x="484" d="M144 1380q0 14 3 17t17 3h156q14 0 17 -3t3 -17v-1360q0 -14 -3 -17t-17 -3h-156q-14 0 -17 3t-3 17v1360v0z" />
<glyph unicode="J" horiz-adv-x="592" d="M252 1384q0 16 16 16h164q16 0 16 -16v-1116q0 -156 -61 -222t-187 -66q-30 0 -62 2t-62 8q-12 4 -16 7t-4 17v134q0 18 20 16q14 -4 36 -7t44 -3q54 0 75 31t21 109v1090v0z" />
<glyph unicode="K" horiz-adv-x="1124" d="M342 20q0 -14 -3 -17t-17 -3h-156q-14 0 -17 3t-3 17v1360q0 14 3 17t17 3h156q14 0 17 -3t3 -17v-558q0 -14 12 -14t18 10l440 562q10 12 14 16t18 4h208q16 0 16 -6q0 -4 -8 -14l-488 -618q-4 -4 -4 -10t4 -10l510 -722l10 -16q0 -4 -18 -4h-208q-14 0 -17 3t-15 17 l-460 664q-6 8 -16 8q-16 0 -16 -14v-658v0z" />
<glyph unicode="L" horiz-adv-x="904" d="M146 1380q0 14 3 17t17 3h152q14 0 17 -3t3 -17v-1176q0 -14 3 -17t17 -3h464q14 0 17 -3t3 -17v-144q0 -14 -3 -17t-17 -3h-656q-14 0 -17 3t-3 17v1360v0z" />
<glyph unicode="M" horiz-adv-x="1532" d="M782 246q-10 -10 -16 -10t-16 10l-380 536q-6 6 -14 6q-16 0 -16 -12v-756q0 -14 -3 -17t-17 -3h-154q-14 0 -17 3t-3 17v1396q0 14 6 14t14 -10l588 -860q8 -8 12 -8q6 0 12 8l588 860q8 10 14 10t6 -14v-1396q0 -14 -3 -17t-17 -3h-154q-14 0 -17 3t-3 17v756 q0 12 -16 12q-8 0 -14 -6l-380 -536v0z" />
<glyph unicode="N" horiz-adv-x="1180" d="M352 866q-6 6 -14 6q-16 0 -16 -12v-840q0 -14 -3 -17t-17 -3h-148q-14 0 -17 3t-3 17v1396q0 14 6 14t14 -10l674 -886q6 -6 14 -6q16 0 16 12v840q0 14 3 17t17 3h148q14 0 17 -3t3 -17v-1396q0 -14 -6 -14q-4 0 -14 10l-674 886v0z" />
<glyph unicode="O" horiz-adv-x="1584" d="M1492 700q0 -148 -54 -278t-149 -229t-223 -156t-274 -57q-148 0 -275 57t-222 156t-149 229t-54 278q0 146 54 277t149 230t222 156t275 57q146 0 274 -57t223 -156t149 -230t54 -277zM308 700q0 -106 36 -202t100 -168t153 -114t195 -42t195 42t153 114t100 168t36 202 t-36 202t-100 168t-153 114t-195 42t-195 -42t-153 -114t-100 -168t-36 -202z" />
<glyph unicode="P" horiz-adv-x="1022" d="M146 1380q0 14 3 17t17 3h300q122 0 198 -22t138 -66q78 -58 120 -146t42 -208q0 -232 -156 -354q-62 -48 -146 -75t-188 -27h-112q-14 0 -17 -3t-3 -17v-462q0 -14 -3 -17t-17 -3h-156q-14 0 -17 3t-3 17v1360zM362 1224q-14 0 -17 -3t-3 -17v-506q0 -14 3 -17t17 -3 h126q128 0 199 71t71 205q0 54 -14 103t-45 86t-83 59t-128 22h-126z" />
<glyph unicode="Q" horiz-adv-x="1594" d="M1492 706q0 -96 -19 -171t-51 -136t-74 -111t-90 -98q-6 -6 -6 -12q0 -8 26 -8l236 8q14 0 17 -3t3 -17v-138q0 -14 -3 -17t-17 -3q-102 2 -186 4q-36 0 -72 1t-66 2t-51 1h-29q-18 0 -54 -4t-79 -10t-92 -10t-93 -4q-148 0 -275 57t-222 156t-149 229t-54 278 q0 146 54 277t149 230t222 156t275 57q146 0 274 -56t223 -154t149 -228t54 -276zM308 700q0 -106 36 -202t100 -168t153 -114t195 -42t195 42t153 114t100 168t36 202t-36 202t-100 168t-153 114t-195 42t-195 -42t-153 -114t-100 -168t-36 -202z" />
<glyph unicode="R" horiz-adv-x="1090" d="M500 748q132 0 192 63t60 177q0 120 -70 178t-190 58h-134q-14 0 -17 -3t-3 -17v-436q0 -14 3 -17t17 -3h142zM338 20q0 -14 -3 -17t-17 -3h-150q-14 0 -19 3t-5 17v1360q0 14 3 17t17 3h318q228 0 346 -98q68 -56 98 -137t30 -177q0 -152 -88 -255t-250 -135 q-8 -2 -8 -8q0 -4 4 -8l434 -562l10 -16q0 -4 -18 -4h-200q-14 0 -17 3t-15 17l-446 584q-10 12 -16 12q-8 0 -8 -18v-578z" />
<glyph unicode="S" horiz-adv-x="1006" d="M504 -20q-62 0 -124 16t-117 47t-101 74t-76 97q-6 8 -6 14t10 16l110 110q10 10 14 10t14 -12q64 -106 132 -145t152 -39q102 0 157 58t55 136q0 74 -44 126t-110 95t-143 85t-143 95t-110 124t-44 173q0 74 28 140t78 115t121 77t157 28q116 0 204 -42t152 -132 q6 -10 6 -14q0 -6 -10 -16l-98 -98q-10 -10 -14 -10q-6 0 -14 12q-34 56 -89 86t-133 30q-90 0 -135 -50t-45 -126q0 -64 44 -110t110 -86t144 -82t144 -97t110 -130t44 -183q0 -88 -29 -160t-84 -123t-135 -80t-182 -29z" />
<glyph unicode="T" horiz-adv-x="924" d="M52 1380q0 14 3 17t17 3h780q14 0 17 -3t3 -17v-144q0 -14 -3 -17t-17 -3h-272q-14 0 -17 -3t-3 -17v-1176q0 -14 -3 -17t-17 -3h-156q-14 0 -17 3t-3 17v1176q0 14 -3 17t-17 3h-272q-14 0 -17 3t-3 17v144v0z" />
<glyph unicode="U" horiz-adv-x="1236" d="M894 1380q0 14 3 17t17 3h158q14 0 17 -3t3 -17v-942q0 -114 -35 -200t-98 -143t-150 -86t-189 -29t-190 29t-151 86t-99 143t-36 200v942q0 14 3 17t17 3h158q14 0 17 -3t3 -17v-904q0 -86 19 -144t55 -94t88 -52t116 -16q66 0 117 16t86 52t53 94t18 144v904v0z" />
<glyph unicode="V" horiz-adv-x="1112" d="M544 540q2 -6 12 -6q8 0 12 6l296 840q8 20 24 20h180q12 0 12 -6q0 -2 -4 -14l-510 -1402q-2 -8 -10 -8t-10 8l-510 1402q-4 12 -4 14q0 6 12 6h184q16 0 24 -20l292 -840v0z" />
<glyph unicode="W" horiz-adv-x="1682" d="M846 866q-4 6 -10 6q-8 0 -10 -6l-300 -888q-2 -8 -10 -8t-10 8l-466 1402q-4 12 -4 14q0 6 12 6h188q16 0 24 -20l252 -832q2 -6 10 -6q6 0 10 6l286 862q8 20 24 20t24 -20l288 -862q2 -6 10 -6q6 0 10 6l256 832q8 20 24 20h180q12 0 12 -6q0 -2 -4 -14l-476 -1402 q-2 -8 -10 -8t-10 8l-300 888v0z" />
<glyph unicode="X" horiz-adv-x="1156" d="M60 1380l-4 12q0 8 12 8h196q18 0 26 -20l282 -490q2 -6 10 -6q6 0 10 6l284 490q8 14 12 17t14 3h194q12 0 12 -8l-4 -12l-392 -658l-4 -12l4 -12l408 -678l4 -12q0 -8 -12 -8h-198q-18 0 -26 20l-300 510q-4 6 -10 6q-8 0 -10 -6l-302 -510q-8 -14 -12 -17t-14 -3h-196 q-12 0 -12 8l4 12l408 678l4 12l-4 12l-384 658v0z" />
<glyph unicode="Y" horiz-adv-x="1096" d="M28 1380l-4 12q0 8 12 8h198q18 0 26 -20l278 -454q2 -6 10 -6q6 0 10 6l280 454q8 14 12 17t14 3h196q12 0 12 -8l-4 -12l-422 -674v-686q0 -14 -3 -17t-17 -3h-156q-14 0 -17 3t-3 17v686z" />
<glyph unicode="Z" horiz-adv-x="972" d="M356 212q-4 -12 -4 -18q0 -12 12 -12h494q14 0 17 -3t3 -17v-142q0 -14 -3 -17t-17 -3h-802q-14 0 -14 10l4 12l152 312l412 854q6 12 6 20q0 10 -14 10h-488q-14 0 -17 3t-3 17v142q0 14 3 17t17 3h792q14 0 14 -8l-4 -12l-148 -310z" />
<glyph unicode="[" horiz-adv-x="600" d="M142 1442q0 14 3 17t17 3h360q14 0 17 -3t3 -17v-110q0 -14 -3 -17t-17 -3h-180q-14 0 -17 -3t-3 -17v-1402q0 -14 3 -17t17 -3h190q14 0 17 -3t3 -17v-110q0 -14 -3 -17t-17 -3h-370q-14 0 -17 3t-3 17v1702v0z" />
<glyph unicode="\" d="M794 -160l-728 1552q-12 18 8 28l104 50q10 4 15 2t13 -16l728 -1552q12 -18 -8 -28l-104 -50q-10 -4 -15 -2t-13 16z" />
<glyph unicode="]" horiz-adv-x="600" d="M458 -260q0 -14 -3 -17t-17 -3h-360q-14 0 -17 3t-3 17v110q0 14 3 17t17 3h180q14 0 17 3t3 17v1402q0 14 -3 17t-17 3h-190q-14 0 -17 3t-3 17v110q0 14 3 17t17 3h370q14 0 17 -3t3 -17v-1702v0z" />
<glyph unicode="^" d="M504 1220q-8 0 -12 -4l-228 -482q-5 -12 -9.5 -16t-18.5 -4h-150q-16 0 -16 10q0 2 1 3.5t3 6.5l312 646q6 14 16 17t28 3h146q18 0 25 -3t13 -17l312 -646q2 -5 3 -6.5t1 -3.5q0 -10 -16 -10h-142q-14 0 -18.5 4t-9.5 16l-228 482q-4 4 -12 4z" />
<glyph unicode="_" horiz-adv-x="904" d="M12 -144q0 14 4 17t16 3h840q14 0 17 -3t3 -17v-64q0 -14 -3 -17t-17 -3h-840q-14 0 -17 3t-3 17v64v0z" />
<glyph unicode="`" d="M616 1032q8 -10 10 -15t-14 -5h-142q-12 0 -18 4t-18 16l-242 248q-12 14 -9 17t17 3h192q12 0 17 -4t15 -16z" />
<glyph unicode="a" horiz-adv-x="932" d="M640 302q0 32 -17 58t-45 45t-65 29t-79 10q-90 0 -144 -44t-54 -114q0 -72 52 -117t146 -45q42 0 80 16t66 41t44 57t16 64zM64 280q0 72 27 129t73 96t107 59t129 20q84 0 142 -24t86 -46q2 -2 8 -2q8 0 8 14v46q0 84 -50 129t-158 45q-80 0 -133 -23t-75 -41 q-6 -6 -14 -6t-8 16v122q0 14 16 24q38 26 99 41t131 15q116 0 187 -29t110 -75t53 -103t14 -113v-554q0 -12 -3 -16t-17 -4h-126q-14 0 -17 4t-3 16v68q0 4 -8 4q-6 0 -8 -2q-42 -52 -103 -81t-131 -29q-66 0 -126 19t-107 56t-75 93t-28 132z" />
<glyph unicode="b" horiz-adv-x="1100" d="M856 438q0 60 -20 114t-56 95t-86 64t-112 23t-113 -23t-88 -64t-57 -95t-20 -114q0 -62 20 -116t57 -95t88 -64t113 -23t112 23t86 64t56 95t20 116zM304 774q0 -4 8 -4q6 0 8 2q52 52 121 87t161 35t172 -36t138 -98t91 -145t33 -177t-33 -177t-91 -146t-138 -99 t-172 -36t-161 33t-121 89q-2 2 -8 2q-8 0 -8 -4v-80q0 -12 -3 -16t-17 -4h-136q-14 0 -17 4t-3 16v1460q0 12 3 16t17 4h136q14 0 17 -4t3 -16v-706z" />
<glyph unicode="c" horiz-adv-x="824" d="M736 26q-46 -22 -106 -34t-112 -12q-98 0 -181 36t-144 97t-95 145t-34 180t34 179t95 145t144 97t181 35q52 0 110 -11t102 -31q10 -4 13 -8t3 -12v-164q0 -14 -8 -14q-2 0 -10 4q-34 34 -87 55t-119 21t-118 -23t-87 -62t-54 -94t-19 -117q0 -64 19 -119t54 -95t87 -62 t118 -22q140 0 214 84q2 2 8 2q8 0 8 -14v-166q0 -8 -3 -12t-13 -8z" />
<glyph unicode="d" horiz-adv-x="1100" d="M796 438q0 60 -20 114t-56 95t-86 64t-112 23t-113 -23t-88 -64t-57 -95t-20 -114q0 -62 20 -116t57 -95t88 -64t113 -23t112 23t86 64t56 95t20 116zM796 1480q0 12 3 16t17 4h136q14 0 17 -4t3 -16v-1460q0 -12 -3 -16t-17 -4h-136q-14 0 -17 4t-3 16v80q0 4 -8 4 q-6 0 -8 -2q-52 -52 -121 -87t-161 -35q-94 0 -173 36t-137 99t-91 146t-33 177t33 177t91 145t137 98t173 36q92 0 160 -33t122 -89q2 -2 8 -2q8 0 8 4v706z" />
<glyph unicode="e" horiz-adv-x="968" d="M260 344q10 -96 83 -150t193 -54q30 0 67 6t73 17t66 26t48 35l5 5t7 3q8 0 8 -20v-138q0 -8 -3 -14t-13 -14q-38 -28 -110 -47t-148 -19q-116 0 -203 36t-145 97t-87 145t-29 180q0 94 30 177t84 145t131 98t171 36q100 0 177 -37t128 -100t77 -145t26 -174v-56 q0 -12 -3 -16t-17 -4h-594q-14 0 -18 -3t-4 -15zM488 736q-100 0 -163 -62t-75 -152q0 -14 3 -17t17 -3h428q16 0 19 3t1 17q-10 90 -66 152t-164 62z" />
<glyph unicode="f" horiz-adv-x="534" d="M344 894q0 -14 3 -17t17 -3h122q14 0 17 -4t3 -16v-116q0 -12 -3 -16t-17 -4h-122q-14 0 -17 -3t-3 -17v-678q0 -12 -3 -16t-17 -4h-136q-14 0 -17 4t-3 16v678q0 14 -3 17t-17 3h-80q-14 0 -17 4t-3 16v116q0 12 3 16t17 4h80q14 0 17 3t3 17v326q0 312 244 312 q22 0 46 -2t46 -8q12 -4 16 -8t4 -16v-118q0 -18 -12 -18l-8 2q-26 8 -58 8q-50 0 -76 -36t-26 -100v-342v0z" />
<glyph unicode="g" horiz-adv-x="1096" d="M244 438q0 -62 20 -116t56 -95t86 -64t112 -23t113 23t88 64t57 95t20 116q0 60 -20 114t-57 95t-88 64t-113 23t-112 -23t-86 -64t-56 -95t-20 -114zM240 -380q-18 8 -18 24v148q0 20 8 20q2 0 12 -6q46 -32 114 -57t166 -25q144 0 209 71t65 233v72q0 4 -8 4 q-6 0 -8 -2q-52 -56 -121 -89t-161 -33q-94 0 -173 36t-137 99t-91 146t-33 177t33 177t91 145t137 98t173 36q92 0 161 -33t121 -89q2 -2 8 -2q8 0 8 4v80q0 12 3 16t17 4h136q14 0 17 -4t3 -16v-818q0 -230 -112 -351t-336 -121q-96 0 -168 17t-116 39z" />
<glyph unicode="h" horiz-adv-x="1032" d="M916 20q0 -12 -3 -16t-17 -4h-136q-14 0 -17 4t-3 16v496q0 104 -47 161t-145 57q-102 0 -173 -67t-71 -189v-458q0 -12 -3 -16t-17 -4h-136q-14 0 -17 4t-3 16v1460q0 12 3 16t17 4h136q14 0 17 -4t3 -16v-706q0 -4 8 -4q6 0 8 2q52 56 111 89t151 33q90 0 154 -26 t104 -72t58 -107t18 -133v-536v0z" />
<glyph unicode="i" horiz-adv-x="448" d="M136 854q0 12 3 16t17 4h136q14 0 17 -4t3 -16v-834q0 -12 -3 -16t-17 -4h-136q-14 0 -17 4t-3 16v834zM224 1058q-48 0 -86 36t-38 88t36 89t88 37t88 -38t36 -86q0 -50 -37 -88t-87 -38z" />
<glyph unicode="j" horiz-adv-x="436" d="M312 -140q0 -156 -58 -228t-184 -72h-36t-26 2q-8 2 -14 2t-10 2q-12 4 -16 7t-4 17v118q0 18 20 16q26 -6 50 -6q54 0 78 36t24 100v1000q0 12 3 16t17 4h136q14 0 17 -4t3 -16v-994zM226 1058q-48 0 -86 36t-38 88t36 89t88 37t88 -38t36 -86q0 -50 -37 -88t-87 -38z " />
<glyph unicode="k" horiz-adv-x="878" d="M304 550q0 -14 12 -14t18 10l256 308q10 12 14 16t18 4h180q16 0 16 -6q0 -4 -8 -14l-308 -364q-4 -4 -4 -10t4 -10l334 -450l10 -16q0 -4 -18 -4h-180q-14 0 -17 3t-15 17l-280 392q-6 8 -16 8q-16 0 -16 -14v-386q0 -12 -3 -16t-17 -4h-136q-14 0 -17 4t-3 16v1460 q0 12 3 16t17 4h136q14 0 17 -4t3 -16v-930v0z" />
<glyph unicode="l" horiz-adv-x="448" d="M136 1480q0 12 3 16t17 4h136q14 0 17 -4t3 -16v-1460q0 -12 -3 -16t-17 -4h-136q-14 0 -17 4t-3 16v1460v0z" />
<glyph unicode="m" horiz-adv-x="1556" d="M828 740q4 -4 8 -4t8 4q22 26 50 54t62 50t76 36t92 14q90 0 151 -26t98 -72t52 -107t15 -133v-536q0 -12 -3 -16t-17 -4h-136q-14 0 -17 4t-3 16v496q0 104 -36 161t-134 57q-102 0 -162 -67t-60 -189v-458q0 -12 -3 -16t-17 -4h-136q-14 0 -17 4t-3 16v496 q0 104 -36 161t-134 57q-102 0 -162 -67t-60 -189v-458q0 -12 -3 -16t-17 -4h-136q-14 0 -17 4t-3 16v834q0 12 3 16t17 4h136q14 0 17 -4t3 -16v-80q0 -4 8 -4q6 0 8 2q44 54 103 88t137 34q116 0 178 -42t90 -112z" />
<glyph unicode="n" horiz-adv-x="1012" d="M896 20q0 -12 -3 -16t-17 -4h-136q-14 0 -17 4t-3 16v496q0 104 -41 161t-139 57q-102 0 -169 -67t-67 -189v-458q0 -12 -3 -16t-17 -4h-136q-14 0 -17 4t-3 16v834q0 14 3 17t17 3h136q14 0 17 -4t3 -16v-80q0 -4 8 -4q6 0 8 2q28 26 56 49t58 39t66 25t82 9 q90 0 151 -26t97 -72t51 -107t15 -133v-536v0z" />
<glyph unicode="o" horiz-adv-x="1038" d="M64 438q0 94 36 177t98 145t145 98t177 36t177 -36t144 -98t97 -145t36 -177t-36 -177t-97 -146t-144 -99t-177 -36t-177 36t-145 99t-98 146t-36 177zM244 438q0 -62 20 -116t56 -95t87 -64t113 -23t113 23t87 64t55 95t19 116q0 60 -19 114t-55 95t-87 64t-113 23 t-113 -23t-87 -64t-56 -95t-20 -114z" />
<glyph unicode="p" horiz-adv-x="1100" d="M856 438q0 60 -20 114t-56 95t-86 64t-112 23t-113 -23t-88 -64t-57 -95t-20 -114q0 -62 20 -116t57 -95t88 -64t113 -23t112 23t86 64t56 95t20 116zM304 774q0 -4 8 -4q6 0 8 2q54 56 122 89t160 33t172 -36t138 -98t91 -145t33 -177t-33 -177t-91 -146t-138 -99 t-172 -36t-160 33t-122 89q-2 2 -8 2q-8 0 -8 -4v-520q0 -12 -3 -16t-17 -4h-136q-14 0 -17 4t-3 16v1274q0 12 3 16t17 4h136q14 0 17 -4t3 -16v-80z" />
<glyph unicode="q" horiz-adv-x="1100" d="M244 438q0 -62 20 -116t56 -95t86 -64t112 -23t113 23t88 64t57 95t20 116q0 60 -20 114t-57 95t-88 64t-113 23t-112 -23t-86 -64t-56 -95t-20 -114zM796 854q0 12 3 16t17 4h136q14 0 17 -4t3 -16v-1274q0 -12 -3 -16t-17 -4h-136q-14 0 -17 4t-3 16v520q0 4 -8 4 q-6 0 -8 -2q-52 -56 -121 -89t-161 -33q-94 0 -173 36t-137 99t-91 146t-33 177t33 177t91 145t137 98t173 36q92 0 161 -33t121 -89q2 -2 8 -2q8 0 8 4v80z" />
<glyph unicode="r" horiz-adv-x="638" d="M148 0q-14 0 -17 4t-3 16v834q0 12 3 16t17 4h136q14 0 17 -4t3 -16v-106q0 -4 8 -4q6 0 8 2q14 26 41 53t61 48t75 34t85 13q14 0 17 -4t3 -16v-144q0 -22 -10 -22q-6 0 -19 2t-35 2q-114 0 -174 -92t-60 -254v-346q0 -12 -3 -16t-17 -4h-136v0z" />
<glyph unicode="s" horiz-adv-x="752" d="M536 668q-52 78 -152 78q-56 0 -87 -29t-31 -71q0 -44 31 -70t77 -47t100 -41t100 -51t77 -79t31 -122q0 -46 -17 -91t-54 -82t-95 -60t-140 -23q-108 0 -182 39t-126 109q-4 8 -4 14q0 8 8 16l82 82q8 8 14 8t14 -10q44 -60 91 -84t107 -24q64 0 97 29t33 73 q0 40 -31 65t-76 45t-99 41t-99 52t-76 79t-31 122q0 52 19 99t55 82t88 56t118 21q84 0 153 -28t115 -92q4 -8 4 -14q0 -8 -8 -16l-78 -78q-8 -8 -14 -8t-14 10z" />
<glyph unicode="t" horiz-adv-x="528" d="M68 718q-14 0 -17 4t-3 16v116q0 12 3 16t17 4h80q14 0 17 3t3 17v266q0 20 20 32l130 80q4 2 7 4t7 2q10 0 10 -16v-368q0 -14 3 -17t17 -3h122q14 0 17 -4t3 -16v-116q0 -12 -3 -16t-17 -4h-122q-14 0 -17 -3t-3 -17v-678q0 -12 -3 -16t-17 -4h-134q-14 0 -17 4t-3 16 v678q0 14 -3 17t-17 3h-80v0z" />
<glyph unicode="u" horiz-adv-x="944" d="M472 140q80 0 134 51t54 155v508q0 12 3 16t17 4h136q14 0 17 -4t3 -16v-520q0 -74 -23 -138t-68 -112t-114 -76t-159 -28t-159 28t-114 76t-68 112t-23 138v520q0 12 3 16t17 4h136q14 0 17 -4t3 -16v-508q0 -104 54 -155t134 -51z" />
<glyph unicode="v" horiz-adv-x="850" d="M412 360q2 -6 12 -6q8 0 12 6l204 494q6 12 10 16t16 4h154q16 0 17 -5t-3 -15l-398 -872q-10 -18 -20 -18t-18 18l-380 872q-6 12 -4 16t18 4h154q12 0 16 -4t10 -16l200 -494v0z" />
<glyph unicode="w" horiz-adv-x="1296" d="M434 -18q-6 -18 -20 -18q-10 0 -18 18l-376 872q-2 4 -2 8q0 2 -2 4q0 8 18 8h148q12 0 16 -4t10 -16l198 -502q2 -6 12 -6q8 0 12 6l202 532q8 20 16 20t16 -20l204 -532q2 -6 12 -6q8 0 12 6l196 502q6 12 10 16t16 4h148q18 0 18 -8q-2 -2 -2 -4t-1 -3t-1 -5 l-376 -872q-10 -18 -18 -18q-12 0 -20 18l-200 506q-4 6 -12 6q-10 0 -12 -6l-204 -506v0z" />
<glyph unicode="x" horiz-adv-x="910" d="M242 20q-10 -12 -15 -16t-17 -4h-160q-18 0 -18 6q0 4 6 14l288 420q4 4 4 8t-4 8l-278 398q-8 8 -8 16q0 4 18 4h166q12 0 17 -4t15 -16l186 -280q4 -4 8 -4t8 4l188 280q10 12 15 16t17 4h160q18 0 18 -4q0 -8 -8 -16l-276 -398q-4 -4 -4 -8t4 -8l298 -420q8 -8 8 -14 t-18 -6h-162q-12 0 -17 4t-15 16l-208 302q-4 4 -8 4t-8 -4l-200 -302v0z" />
<glyph unicode="y" horiz-adv-x="906" d="M446 264q2 -6 8 -6q4 0 8 6l234 590q6 12 10 16t16 4h150q18 0 18 -8q-2 -2 -2 -4t-1 -3t-1 -5l-518 -1274q-6 -12 -10 -16t-16 -4h-148q-18 0 -18 8q2 0 2 2q0 6 2 10l176 436q2 2 2 10t-2 10l-336 818q-2 4 -2 8q0 2 -2 4q0 8 18 8h154q12 0 16 -4t10 -16l232 -590v0z " />
<glyph unicode="z" horiz-adv-x="752" d="M322 190q-6 -12 -6 -18q0 -12 12 -12h326q14 0 17 -3t3 -17v-120q0 -14 -3 -17t-17 -3h-608q-14 0 -14 10l4 12l154 270l226 396q6 12 6 20q0 10 -12 10h-318q-14 0 -17 3t-3 17v116q0 14 3 17t17 3h598q14 0 14 -8l-4 -12l-150 -262z" />
<glyph unicode="{" horiz-adv-x="600" d="M236 1210q0 68 20 116t53 78t78 44t97 14h48q14 0 17 -3t3 -17v-110q0 -14 -3 -17t-17 -3h-30q-44 0 -70 -32t-26 -96v-316q0 -76 -15 -126t-36 -79t-47 -43t-46 -18q-6 -2 -6 -10t6 -10q20 -4 46 -18t47 -45t36 -81t15 -126v-314q0 -64 26 -96t70 -32h30q14 0 17 -3 t3 -17v-110q0 -14 -3 -17t-17 -3h-48q-52 0 -97 14t-78 44t-53 78t-20 116v284q0 132 -41 188t-111 56q-14 0 -17 3t-3 17v142q0 14 3 17t17 3q70 0 111 55t41 187v286z" />
<glyph unicode="|" horiz-adv-x="500" d="M174 1480q0 12 3 16t17 4h112q14 0 17 -4t3 -16v-1960q0 -12 -3 -16t-17 -4h-112q-14 0 -17 4t-3 16v1960v0z" />
<glyph unicode="}" horiz-adv-x="600" d="M364 924q0 -132 41 -187t111 -55q14 0 17 -3t3 -17v-142q0 -14 -3 -17t-17 -3q-70 0 -111 -56t-41 -188v-284q0 -68 -20 -116t-53 -78t-78 -44t-97 -14h-48q-14 0 -17 3t-3 17v110q0 14 3 17t17 3h30q44 0 70 32t26 96v314q0 76 15 126t36 81t47 45t46 18q6 2 6 10t-6 10 q-20 4 -46 18t-47 43t-36 79t-15 126v316q0 64 -26 96t-70 32h-30q-14 0 -17 3t-3 17v110q0 14 3 17t17 3h48q52 0 97 -14t78 -44t53 -78t20 -116v-286z" />
<glyph unicode="~" d="M920 612q0 -44 -14 -83t-43 -68t-74 -46t-107 -17q-43 0 -80 11.5t-69 29.5t-59.5 38t-52.5 38t-48 29.5t-45 11.5q-41 0 -62.5 -24t-21.5 -68v-20q0 -12 -3 -16t-17 -4h-124q-14 0 -17 4t-3 16v52q0 44 15 83.5t45.5 69t77 46.5t108.5 17q42 0 78.5 -11.5t68 -29.5 t59 -38t52 -38t47 -29.5t43.5 -11.5q41 0 61.5 23t20.5 67v22q0 12 3 16t17 4h124q14 0 17 -4t3 -16v-54z" />
<glyph unicode="&#xa1;" horiz-adv-x="568" d="M394 20q0 -14 -2 -17t-16 -3h-184q-14 0 -16 3t-2 17l40 982q0 14 4 17t18 3h96q14 0 18 -3t4 -17zM284 1424q50 0 87 -35t37 -89q0 -52 -36 -88t-88 -36t-88 36t-36 86q0 52 36 89t88 37z" />
<glyph unicode="&#xa2;" horiz-adv-x="852" d="M764 26q-40 -20 -90 -30t-96 -14v-62q0 -14 -3 -17t-17 -3h-76q-14 0 -17 3t-3 17v66q-84 12 -154 52t-120 100t-78 137t-28 163t28 162t78 136t120 99t154 51v94q0 14 3 17t17 3h76q14 0 17 -3t3 -17v-90q46 -4 94 -14t86 -26q10 -4 13 -8t3 -12v-162q0 -14 -8 -14 q-2 0 -10 4q-32 30 -77 50t-101 24v-592q58 4 105 23t81 57q2 2 8 2q8 0 8 -14v-162q0 -8 -3 -12t-13 -8zM262 438q0 -110 52 -188t148 -102v576q-96 -24 -148 -101t-52 -185z" />
<glyph unicode="&#xa3;" horiz-adv-x="1132" d="M678 1420q100 0 171 -22t143 -58q16 -10 16 -20v-194q0 -14 -8 -14q-6 0 -10 4q-58 58 -128 94t-172 36q-114 0 -175 -61t-61 -205v-202q0 -12 12 -12h296q20 0 20 -20v-104q0 -20 -20 -20h-296q-12 0 -12 -12v-434q0 -14 3 -17t17 -3h528q20 0 20 -20v-116 q0 -20 -20 -20h-882q-20 0 -20 20v116q0 20 20 20h134q14 0 17 3t3 17v434q0 12 -12 12h-144q-16 0 -16 16v112q0 16 16 16h144q12 0 12 12v206q0 218 112 327t292 109z" />
<glyph unicode="&#xa4;" horiz-adv-x="1172" d="M854 744q0 54 -20 104t-56 88t-85 60t-107 22q-54 0 -103 -22t-85 -60t-57 -87t-21 -105t21 -106t57 -87t85 -59t103 -22q58 0 107 22t85 60t56 88t20 104zM1010 744q0 -84 -26 -138t-48 -88q-4 -12 -4 -10q0 -4 2 -6l158 -158q4 -4 4 -8t-4 -8l-88 -88q-4 -4 -8 -4t-8 4 l-158 158q-4 4 -8 4t-8 -4q-32 -22 -87 -48t-139 -26q-86 0 -142 25t-90 47q-4 4 -8 4t-8 -4l-158 -158q-4 -4 -8 -4t-8 4l-88 88q-4 4 -4 8t4 8l158 158q2 2 2 6q0 -2 -4 10q-22 30 -46 87t-24 141t24 141t46 87q4 12 4 10q0 4 -2 6l-158 158q-4 4 -4 8t4 8l88 88q4 4 8 4 t8 -4l158 -158q4 -4 8 -4t8 4q34 22 90 47t142 25q84 0 139 -26t87 -48q4 -4 8 -4t8 4l158 158q4 4 8 4t8 -4l88 -88q4 -4 4 -8t-4 -8l-158 -158q-2 -2 -2 -6q0 2 4 -10q22 -34 48 -88t26 -138z" />
<glyph unicode="&#xa5;" horiz-adv-x="1132" d="M970 620q20 0 20 -20v-96q0 -20 -20 -20h-300q-12 0 -12 -10v-454q0 -14 -3 -17t-17 -3h-140q-14 0 -17 3t-3 17v454q-4 10 -12 10h-304q-16 0 -16 16v104q0 16 16 16h304q10 0 12 8v46q0 22 -7 42t-25 40q-4 4 -10 4h-274q-16 0 -16 16v104q0 16 16 16h196l-312 484 l-4 12q0 8 12 8h170q16 0 28 -20l306 -504q2 -6 10 -6q6 0 10 6l306 504q8 14 14 17t16 3h168q12 0 12 -8l-4 -12l-312 -484h192q20 0 20 -20v-96q0 -20 -20 -20h-270q-6 0 -10 -4q-32 -32 -32 -82v-46q2 -8 12 -8h300z" />
<glyph unicode="&#xa6;" horiz-adv-x="500" d="M174 1480q0 12 3 16t17 4h112q14 0 17 -4t3 -16v-800q0 -12 -3 -16t-17 -4h-112q-14 0 -17 4t-3 16v800zM174 320q0 12 3 16t17 4h112q14 0 17 -4t3 -16v-800q0 -12 -3 -16t-17 -4h-112q-14 0 -17 4t-3 16v800z" />
<glyph unicode="&#xa7;" horiz-adv-x="1026" d="M674 242q11 -5 24 -2q50 21 73 62.5t23 97.5q0 38 -18 72.5t-55 68.5t-93.5 68.5t-133.5 72.5l-66 32q-10 5 -22 2q-54 -17 -87 -57t-33 -103q0 -41 18.5 -73t54.5 -61t88 -58.5t119 -63.5q30 -17 57.5 -31.5t50.5 -26.5zM508 -460q-63 0 -125.5 16.5t-118.5 46.5 t-102 73.5t-76 97.5q-6 9 -6 14q0 6 10 16l100 100q10 10 14 10q5 0 14 -12q32 -53 65.5 -90.5t70.5 -61.5t78.5 -35t89.5 -11q51 0 90 13.5t66 37.5t40.5 57t13.5 72q0 32 -10 63.5t-37 63.5t-75 66.5t-124 72.5q-107 52 -178 97t-114.5 90t-61.5 95t-18 114q0 81 42 146 t110 110q8 5 8 10q0 4 -8 12q-63 50 -88.5 114.5t-25.5 141.5q0 70 28.5 131.5t78 108t117 73.5t144.5 27q55 0 106.5 -10t98 -32t87 -56t72.5 -82q6 -9 6 -14q0 -6 -10 -16l-96 -96q-10 -10 -14 -10q-5 0 -14 12q-35 65 -94 104.5t-130 39.5q-90 0 -145 -43t-55 -127 q0 -34 13.5 -65t43.5 -62t76.5 -63t112.5 -66q106 -54 179.5 -100t120 -94.5t67.5 -105t21 -130.5q0 -91 -33 -158t-95 -114q-8 -5 -8 -10t8 -10q39 -48 58.5 -105t19.5 -119q0 -78 -28 -142t-80.5 -110t-128.5 -71t-171 -25z" />
<glyph unicode="&#xa8;" d="M706 1036q-46 0 -83 34t-37 86q0 50 35 86t85 36q48 0 84 -37t36 -83t-37 -84t-83 -38zM294 1036q-46 0 -83 34t-37 86q0 50 36 86t84 36q50 0 85 -37t35 -83t-36 -84t-84 -38z" />
<glyph unicode="&#xa9;" horiz-adv-x="1040" d="M538 790q48 0 84 15.5t60 36.5q8 8 12 8q8 0 8 -16v-82q0 -14 -3 -18.5t-11 -9.5q-26 -17 -65.5 -29.5t-84.5 -12.5q-65 0 -116 22.5t-85.5 61t-52.5 89.5t-18 107q0 57 17 107.5t51 88.5t85 60t119 22q42 0 81.5 -12t68.5 -26q11 -5 12.5 -9.5t1.5 -18.5v-84 q0 -8 -0.5 -12t-5.5 -4q-3 0 -6 0.5t-8 5.5q-21 18 -59 35t-85 17q-41 0 -69.5 -15t-47 -39t-27 -54.5t-8.5 -61.5q0 -35 8.5 -66t27 -54.5t47 -37.5t69.5 -14zM64 962q0 94 36 177t98 145t145 98t177 36t177 -36t145 -98t98 -145t36 -177t-36 -177t-98 -145.5t-145 -99 t-177 -36.5t-177 36.5t-145 99t-98 145.5t-36 177zM176 962q0 -77 25 -144t70.5 -116.5t108.5 -77.5t140 -28q78 0 141.5 28t108.5 77.5t69.5 116.5t24.5 144q0 76 -24.5 142t-69.5 115.5t-108.5 78t-141.5 28.5q-77 0 -140 -28.5t-108.5 -78t-70.5 -115.5t-25 -142z" />
<glyph unicode="&#xaa;" horiz-adv-x="756" d="M672 1400q14 0 17 -4t3 -18v-526q0 -12 -3 -16t-17 -4h-90q-14 0 -17 4t-3 16v52q0 2 -3.5 3t-6.5 1h-5t-5 -2q-29 -41 -80 -64.5t-108 -23.5q-65 0 -118.5 22t-91.5 61.5t-59 94.5t-21 120t21 120t59 94.5t91.5 61.5t118.5 22q57 0 108 -23.5t80 -64.5q2 -2 5 -2h5 q3 0 6.5 1t3.5 3v52q0 12 3 16t17 4h90zM206 1116q0 -38 13 -70.5t36 -56t54 -36.5t67 -13t67.5 13t54.5 36.5t36.5 56t13.5 70.5t-13.5 70.5t-36.5 56t-54.5 36.5t-67.5 13t-67 -13t-54 -36.5t-36 -56t-13 -70.5z" />
<glyph unicode="&#xab;" d="M110 428l-4 12l4 12l242 406q6 12 14 12q4 0 14 -6l110 -64q12 -6 12 -14l-4 -12l-194 -318q-4 -8 -5 -13t-1 -9q0 -8 6 -20l194 -314q6 -10 6 -12q0 -6 -14 -14l-110 -64q-10 -6 -14 -6q-8 0 -14 12l-242 412v0zM510 428l-4 12l4 12l242 406q6 12 14 12q4 0 14 -6 l110 -64q12 -6 12 -14l-4 -12l-194 -318q-4 -8 -5 -13t-1 -9q0 -8 6 -20l194 -314q6 -10 6 -12q0 -6 -14 -14l-110 -64q-10 -6 -14 -6q-8 0 -14 12l-242 412v0z" />
<glyph unicode="&#xac;" d="M90 600q-14 0 -17 4t-3 16v108q0 12 3 16t17 4h820q14 0 17 -4t3 -16v-506q0 -12 -3 -16t-17 -4h-120q-14 0 -17 4t-3 16v358q0 14 -3 17t-17 3h-660z" />
<glyph unicode="&#xad;" horiz-adv-x="624" d="M112 600q0 14 4 17t16 3h360q14 0 17 -3t3 -17v-120q0 -14 -3 -17t-17 -3h-360q-14 0 -17 3t-3 17v120v0z" />
<glyph unicode="&#xae;" horiz-adv-x="1040" d="M64 962q0 94 36 177t98 145t145 98t177 36t177 -36t145 -98t98 -145t36 -177t-36 -177t-98 -145.5t-145 -99t-177 -36.5t-177 36.5t-145 99t-98 145.5t-36 177zM176 962q0 -77 25 -144t70.5 -116.5t108.5 -77.5t140 -28q78 0 141.5 28t108.5 77.5t69.5 116.5t24.5 144 q0 76 -24.5 142t-69.5 115.5t-108.5 78t-141.5 28.5q-77 0 -140 -28.5t-108.5 -78t-70.5 -115.5t-25 -142zM520 992q41 0 60.5 17t19.5 55t-19.5 54t-60.5 16h-50q-14 0 -17 -3t-3 -17v-104q0 -12 3 -15t17 -3h50zM364 710q-14 0 -17 3t-3 17v478q0 14 3 17t17 3h176 q83 0 127.5 -44t44.5 -116q0 -56 -25.5 -87t-66.5 -51q-2 -2 -3 -2.5t-1 -3.5t6 -12l100 -182q6 -12 6 -14q0 -6 -16 -6h-90q-11 0 -14.5 2.5t-9.5 13.5l-78 152q-6 14 -10.5 17t-13.5 3h-26q-14 0 -17 -3t-3 -17v-148q0 -14 -3 -17t-17 -3h-66z" />
<glyph unicode="&#xaf;" d="M182 1200q0 14 4 17t16 3h596q14 0 17 -3t3 -17v-88q0 -14 -3 -17t-17 -3h-596q-14 0 -17 3t-3 17v88v0z" />
<glyph unicode="&#xb0;" horiz-adv-x="696" d="M506 1136q0 35 -11 66.5t-31.5 55t-49.5 37t-66 13.5t-66 -13.5t-49.5 -37t-31.5 -55t-11 -66.5t11 -66.5t31.5 -55t49.5 -37t66 -13.5t66 13.5t49.5 37t31.5 55t11 66.5zM64 1136q0 55 20 105.5t57.5 89t89.5 61t117 22.5q64 0 116 -22.5t89.5 -61t58 -89t20.5 -105.5 q0 -56 -20.5 -106t-58 -88.5t-89.5 -61t-116 -22.5q-65 0 -117 22.5t-89.5 61t-57.5 88.5t-20 106z" />
<glyph unicode="&#xb1;" d="M580 716q0 -14 3 -17t17 -3h310q14 0 17 -4t3 -16v-108q0 -12 -3 -16t-17 -4h-310q-14 0 -17 -3t-3 -17v-258q0 -12 -3 -16t-17 -4h-120q-14 0 -17 4t-3 16v258q0 14 -3 17t-17 3h-310q-14 0 -17 4t-3 16v108q0 12 3 16t17 4h310q14 0 17 3t3 17v258q0 12 3 16t17 4h120 q14 0 17 -4t3 -16v-258zM910 150q14 0 17 -4t3 -16v-108q0 -12 -3 -16t-17 -4h-820q-14 0 -17 4t-3 16v108q0 12 3 16t17 4h820z" />
<glyph unicode="&#xb2;" horiz-adv-x="666" d="M74 1394q0 57 16.5 104t49.5 81t81 52.5t111 18.5q65 0 114 -18.5t82 -52t49.5 -80.5t16.5 -105q0 -65 -42.5 -141.5t-131.5 -168.5l-44 -44q-6 -6 -6 -10q0 -6 10 -6h182q14 0 17 -3t3 -17v-94q0 -14 -3 -17t-17 -3h-484q-8 0 -8 8q0 6 3 9t3 5l228 246q28 31 52.5 60 t43 57t29.5 55.5t11 55.5q0 63 -30.5 93.5t-81.5 30.5q-48 0 -77 -29.5t-29 -86.5q0 -14 -3 -17t-17 -3h-108q-14 0 -17 3t-3 17z" />
<glyph unicode="&#xb3;" horiz-adv-x="666" d="M218 1436q0 -14 -3 -17t-17 -3h-96q-14 0 -17 3t-3 17q2 49 20.5 88.5t50.5 67.5t76.5 43t98.5 15q56 0 100.5 -17t75.5 -45t47.5 -64t16.5 -74q0 -47 -17 -76.5t-49 -53.5q-8 -8 -8 -12q0 -5 8 -10q47 -32 74.5 -82t27.5 -104q0 -52 -18.5 -95t-53.5 -74.5t-86.5 -49 t-117.5 -17.5q-60 0 -109 17t-84 48.5t-54 74.5t-19 96q0 14 3 17t17 3h102q14 0 17 -3t3 -17q0 -23 10.5 -42t27.5 -32.5t39.5 -21.5t46.5 -8q56 0 89 25t33 75q0 44 -30 72t-92 28h-66q-14 0 -17 3t-3 17v90q0 14 3 17t17 3h52q53 0 79.5 18.5t26.5 65.5q0 45 -26.5 72.5 t-73.5 27.5q-42 0 -69.5 -22t-32.5 -64z" />
<glyph unicode="&#xb4;" d="M576 1280q10 12 15 16t17 4h192q14 0 17 -3t-9 -17l-242 -248q-12 -12 -18 -16t-18 -4h-142q-16 0 -14 5t10 15l192 248v0z" />
<glyph unicode="&#xb5;" horiz-adv-x="1010" d="M306 0q-4 0 -4 -4v-422q0 -12 -3 -16t-17 -4h-140q-14 0 -17 4t-3 16v1280q0 12 3 16t17 4h140q14 0 17 -4t3 -16v-496q0 -52 10 -92.5t31.5 -68.5t55.5 -42.5t83 -14.5q51 0 94 17t74.5 50t49.5 80.5t18 108.5v458q0 12 3 16t17 4h140q14 0 17 -4t3 -16v-834 q0 -12 -3 -16t-17 -4h-140q-14 0 -17 4t-3 16v80q0 4 -4 4t-6 -2q-29 -27 -57.5 -49.5t-60 -38.5t-68 -25t-82.5 -9q-41 0 -73 4.5t-61 15.5z" />
<glyph unicode="&#xb6;" horiz-adv-x="1066" d="M554 500q-104 0 -188 27t-146 75q-156 122 -156 356q0 238 162 354q62 46 138 67t198 21q20 0 20 -20v-860q0 -20 -20 -20h-8zM904 1400q14 0 17 -3t3 -17v-1686q0 -14 -3 -17t-17 -3h-150q-14 0 -17 3t-3 17v1686q0 14 3 17t17 3h150z" />
<glyph unicode="&#xb7;" horiz-adv-x="500" d="M250 512q-50 0 -87 35t-37 89q0 52 36 88t88 36t88 -36t36 -86q0 -52 -36 -89t-88 -37z" />
<glyph unicode="&#xb8;" d="M690 -194q0 -46 -16 -88t-46 -73t-71 -49t-89 -18q-38 0 -76 7t-72 31q-12 10 -10 24l16 86q4 22 22 10q24 -16 47 -24t53 -8q40 0 69 25t29 81q0 46 -35 71t-89 25h-18t-24 -2q-14 -2 -18 3t0 25l16 86h56q44 0 90 -13t83 -40t60 -66t23 -93z" />
<glyph unicode="&#xb9;" horiz-adv-x="666" d="M490 908q0 -12 -2 -15t-16 -3h-120q-12 0 -15 3t-3 15v526q0 17 -3 21t-17 -1l-122 -42q-12 -5 -16 -3.5t-4 15.5v102q0 14 4 18.5t16 9.5l278 96q17 5 18.5 1.5t1.5 -17.5v-726z" />
<glyph unicode="&#xba;" horiz-adv-x="756" d="M378 1290q-38 0 -69.5 -12.5t-54 -35t-34.5 -54t-12 -70.5q0 -41 12 -73.5t34.5 -56t54 -36t69.5 -12.5t69.5 12.5t54 36t34.5 56t12 73.5q0 39 -12 70.5t-34.5 54t-54 35t-69.5 12.5zM378 818q-69 0 -126.5 21.5t-99.5 61t-65 94.5t-23 123q0 64 23 118.5t65 94 t99.5 61.5t126.5 22q68 0 125.5 -22t99.5 -61.5t65.5 -94t23.5 -118.5q0 -68 -23.5 -123t-65.5 -94.5t-99.5 -61t-125.5 -21.5z" />
<glyph unicode="&#xbb;" d="M490 428l-242 -412q-6 -12 -14 -12q-4 0 -14 6l-110 64q-14 8 -14 14q0 2 6 12l194 314q6 12 6 20q0 4 -1 9t-5 13l-194 318l-4 12q0 8 12 14l110 64q10 6 14 6q8 0 14 -12l242 -406l4 -12zM890 428l-242 -412q-6 -12 -14 -12q-4 0 -14 6l-110 64q-14 8 -14 14q0 2 6 12 l194 314q6 12 6 20q0 4 -1 9t-5 13l-194 318l-4 12q0 8 12 14l110 64q10 6 14 6q8 0 14 -12l242 -406l4 -12z" />
<glyph unicode="&#xbc;" horiz-adv-x="1336" d="M974 1422q6 11 10.5 11.5t15.5 -5.5l86 -50q9 -6 11.5 -11t-3.5 -17l-792 -1372q-6 -11 -10.5 -11.5t-15.5 5.5l-86 50q-9 6 -11.5 11t3.5 17zM398 688q0 -12 -2 -15t-16 -3h-120q-12 0 -15 3t-3 15v526q0 17 -3 21t-17 -1l-122 -42q-12 -5 -16 -3.5t-4 15.5v102 q0 14 4 18.5t16 9.5l278 96q17 5 18.5 1.5t1.5 -17.5v-726zM610 110q-11 0 -16.5 4.5t2.5 13.5l522 644q6 6 10 6q8 0 8 -8v-520q0 -14 3 -17t17 -3h60q14 0 17 -3t3 -17v-80q0 -14 -3 -17t-17 -3h-60q-14 0 -17 -3t-3 -17v-70q0 -14 -3 -17t-17 -3h-100q-14 0 -17 3t-3 17 v70q0 14 -3 17t-17 3h-366zM996 422q0 10 -4 10q-5 0 -8 -6l-134 -174q-8 -11 -8 -14q0 -6 12 -6h122q14 0 17 3t3 17v170z" />
<glyph unicode="&#xbd;" horiz-adv-x="1416" d="M974 1422q6 11 10.5 11.5t15.5 -5.5l86 -50q9 -6 11.5 -11t-3.5 -17l-792 -1372q-6 -11 -10.5 -11.5t-15.5 5.5l-86 50q-9 6 -11.5 11t3.5 17zM796 504q0 57 16.5 104t49.5 81t81 52.5t111 18.5q65 0 114 -18.5t82 -52t49.5 -80.5t16.5 -105q0 -65 -42.5 -141.5 t-131.5 -168.5l-44 -44q-6 -6 -6 -10q0 -6 10 -6h182q14 0 17 -3t3 -17v-94q0 -14 -3 -17t-17 -3h-484q-8 0 -8 8q0 6 3 9t3 5l228 246q28 31 52.5 60t43 57t29.5 55.5t11 55.5q0 63 -30.5 93.5t-81.5 30.5q-48 0 -77 -29.5t-29 -86.5q0 -14 -3 -17t-17 -3h-108q-14 0 -17 3 t-3 17zM398 688q0 -12 -2 -15t-16 -3h-120q-12 0 -15 3t-3 15v526q0 17 -3 21t-17 -1l-122 -42q-12 -5 -16 -3.5t-4 15.5v102q0 14 4 18.5t16 9.5l278 96q17 5 18.5 1.5t1.5 -17.5v-726z" />
<glyph unicode="&#xbe;" horiz-adv-x="1494" d="M1132 1422q6 11 10.5 11.5t15.5 -5.5l86 -50q9 -6 11.5 -11t-3.5 -17l-792 -1372q-6 -11 -10.5 -11.5t-15.5 5.5l-86 50q-9 6 -11.5 11t3.5 17zM256 1216q0 -14 -3 -17t-17 -3h-96q-14 0 -17 3t-3 17q2 49 20.5 88.5t50.5 67.5t76.5 43t98.5 15q56 0 100.5 -17t75.5 -45 t47.5 -64t16.5 -74q0 -47 -17 -76.5t-49 -53.5q-8 -8 -8 -12q0 -5 8 -10q47 -32 74.5 -82t27.5 -104q0 -52 -18.5 -95t-53.5 -74.5t-86.5 -49t-117.5 -17.5q-60 0 -109 17t-84 48.5t-54 74.5t-19 96q0 14 3 17t17 3h102q14 0 17 -3t3 -17q0 -23 10.5 -42t27.5 -32.5 t39.5 -21.5t46.5 -8q56 0 89 25t33 75q0 44 -30 72t-92 28h-66q-14 0 -17 3t-3 17v90q0 14 3 17t17 3h52q53 0 79.5 18.5t26.5 65.5q0 45 -26.5 72.5t-73.5 27.5q-42 0 -69.5 -22t-32.5 -64zM768 110q-11 0 -16.5 4.5t2.5 13.5l522 644q6 6 10 6q8 0 8 -8v-520q0 -14 3 -17 t17 -3h60q14 0 17 -3t3 -17v-80q0 -14 -3 -17t-17 -3h-60q-14 0 -17 -3t-3 -17v-70q0 -14 -3 -17t-17 -3h-100q-14 0 -17 3t-3 17v70q0 14 -3 17t-17 3h-366zM1154 422q0 10 -4 10q-5 0 -8 -6l-134 -174q-8 -11 -8 -14q0 -6 12 -6h122q14 0 17 3t3 17v170z" />
<glyph unicode="&#xbf;" horiz-adv-x="840" d="M434 1424q50 0 87 -35t37 -89q0 -52 -36 -88t-88 -36t-88 36t-36 86q0 52 36 89t88 37zM410 146q186 0 186 210q0 10 3 15t17 5h134q18 0 18 -18v-32q0 -74 -22 -138t-67 -111t-113 -74t-160 -27q-176 0 -267 87t-91 237q0 66 24 121t61 101t79 88t79 85t61 90t24 103 v114q0 14 4 17t18 3h96q14 0 17 -3t7 -17t9 -57t5 -95q0 -96 -45 -165t-100 -127t-100 -114t-45 -126q0 -84 42 -128t126 -44z" />
<glyph unicode="&#xc0;" horiz-adv-x="1124" d="M568 886q-4 6 -12 6q-10 0 -12 -6l-152 -436q-2 -4 -2 -10q0 -2 -2 -2q0 -4 1 -6t11 -2h314q14 0 14 6q0 -2 -4 14zM550 1422q2 8 10 8t10 -8l520 -1402q2 -2 2 -12q0 -8 -16 -8h-174q-12 0 -17 3t-9 17l-80 210q-4 14 -8 17t-18 3h-428q-20 0 -26 -20l-74 -210 q-4 -14 -9 -17t-17 -3h-168q-16 0 -16 8q0 10 2 12zM636 1520q8 -10 10 -15t-14 -5h-142q-12 0 -18 4t-18 16l-242 248q-12 14 -9 17t17 3h192q12 0 17 -4t15 -16z" />
<glyph unicode="&#xc1;" horiz-adv-x="1124" d="M568 886q-4 6 -12 6q-10 0 -12 -6l-152 -436q-2 -4 -2 -10q0 -2 -2 -2q0 -4 1 -6t11 -2h314q14 0 14 6q0 -2 -4 14zM550 1422q2 8 10 8t10 -8l520 -1402q2 -2 2 -12q0 -8 -16 -8h-174q-12 0 -17 3t-9 17l-80 210q-4 14 -8 17t-18 3h-428q-20 0 -26 -20l-74 -210 q-4 -14 -9 -17t-17 -3h-168q-16 0 -16 8q0 10 2 12zM672 1768q10 12 15 16t17 4h192q14 0 17 -3t-9 -17l-242 -248q-12 -12 -18 -16t-18 -4h-142q-16 0 -14 5t10 15l192 248v0z" />
<glyph unicode="&#xc2;" horiz-adv-x="1124" d="M568 886q-4 6 -12 6q-10 0 -12 -6l-152 -436q-2 -4 -2 -10q0 -2 -2 -2q0 -4 1 -6t11 -2h314q14 0 14 6q0 -2 -4 14zM550 1422q2 8 10 8t10 -8l520 -1402q2 -2 2 -12q0 -8 -16 -8h-174q-12 0 -17 3t-9 17l-80 210q-4 14 -8 17t-18 3h-428q-20 0 -26 -20l-74 -210 q-4 -14 -9 -17t-17 -3h-168q-16 0 -16 8q0 10 2 12zM444 1768q18 20 38 20h152q24 0 38 -20l216 -248q6 -10 6 -14q0 -6 -12 -6h-124q-14 0 -20 6l-14 14l-150 150q-4 4 -12 4t-12 -4l-146 -150l-14 -14t-20 -6h-128q-12 0 -12 6q0 4 6 14l208 248v0z" />
<glyph unicode="&#xc3;" horiz-adv-x="1124" d="M568 886q-4 6 -12 6q-10 0 -12 -6l-152 -436q-2 -4 -2 -10q0 -2 -2 -2q0 -4 1 -6t11 -2h314q14 0 14 6q0 -2 -4 14zM550 1422q2 8 10 8t10 -8l520 -1402q2 -2 2 -12q0 -8 -16 -8h-174q-12 0 -17 3t-9 17l-80 210q-4 14 -8 17t-18 3h-428q-20 0 -26 -20l-74 -210 q-4 -14 -9 -17t-17 -3h-168q-16 0 -16 8q0 10 2 12zM262 1524q-14 0 -17 4t-3 16v28q0 80 48 138t138 58q62 0 99 -18t62 -41t46 -41t53 -18q28 0 48 18t20 52v22q0 12 3 16t17 4h88q14 0 17 -4t3 -16v-30q0 -80 -44 -137t-134 -57q-64 0 -102 18t-64 41t-48 41t-54 18 q-28 0 -48 -19t-20 -53v-20q0 -12 -3 -16t-17 -4h-88v0z" />
<glyph unicode="&#xc4;" horiz-adv-x="1124" d="M568 886q-4 6 -12 6q-10 0 -12 -6l-152 -436q-2 -4 -2 -10q0 -2 -2 -2q0 -4 1 -6t11 -2h314q14 0 14 6q0 -2 -4 14zM550 1422q2 8 10 8t10 -8l520 -1402q2 -2 2 -12q0 -8 -16 -8h-174q-12 0 -17 3t-9 17l-80 210q-4 14 -8 17t-18 3h-428q-20 0 -26 -20l-74 -210 q-4 -14 -9 -17t-17 -3h-168q-16 0 -16 8q0 10 2 12zM768 1522q-46 0 -83 34t-37 86q0 50 35 86t85 36q48 0 84 -37t36 -83t-37 -84t-83 -38zM356 1522q-46 0 -83 34t-37 86q0 50 36 86t84 36q50 0 85 -37t35 -83t-36 -84t-84 -38z" />
<glyph unicode="&#xc5;" horiz-adv-x="1124" d="M568 886q-4 6 -12 6q-10 0 -12 -6l-152 -436q-2 -4 -2 -10q0 -2 -2 -2q0 -4 1 -6t11 -2h314q14 0 14 6q0 -2 -4 14zM550 1422q2 8 10 8t10 -8l520 -1402q2 -2 2 -12q0 -8 -16 -8h-174q-12 0 -17 3t-9 17l-80 210q-4 14 -8 17t-18 3h-428q-20 0 -26 -20l-74 -210 q-4 -14 -9 -17t-17 -3h-168q-16 0 -16 8q0 10 2 12zM562 1580q34 0 58 24t24 60q0 34 -23 58t-59 24t-59 -24t-23 -60q0 -38 24 -60t58 -22zM562 1480q-74 0 -128 48t-54 134q0 76 52 130t130 54q38 0 71 -15t58 -40t39 -58t14 -69q0 -38 -14 -72t-39 -59t-58 -39t-71 -14z " />
<glyph unicode="&#xc6;" horiz-adv-x="1528" d="M726 0q-14 0 -17 3t-3 17v210q0 14 -3 17t-17 3h-360q-20 0 -26 -20l-92 -210q-4 -14 -9 -17t-17 -3h-164q-16 0 -16 8q0 10 2 12l606 1360q8 20 28 20h770q14 0 17 -3t3 -17v-144q0 -14 -3 -17t-17 -3h-490q-14 0 -17 -3t-3 -17v-494q0 -14 3 -17t17 -3h480q14 0 17 -3 t3 -17v-142q0 -14 -3 -17t-17 -3h-480q-14 0 -17 -3t-3 -17v-276q0 -14 3 -17t17 -3h500q14 0 17 -3t3 -17v-144q0 -14 -3 -17t-17 -3h-692zM392 450q-2 -4 -2 -10q0 -2 -2 -2q0 -8 18 -8h280q14 0 17 3t3 17v674q0 8 -10 8q-12 0 -14 -6z" />
<glyph unicode="&#xc7;" horiz-adv-x="1244" d="M812 -20q-168 0 -301 57t-226 156t-143 229t-50 278q0 146 50 277t143 230t226 156t301 57q90 0 169 -22t151 -58q16 -10 16 -20v-214q0 -14 -8 -14q-6 0 -10 4q-62 62 -141 96t-177 34q-124 0 -218 -44t-158 -118t-96 -168t-32 -196t32 -196t96 -168t158 -118t218 -44 q98 0 177 34t141 96q4 4 10 4q8 0 8 -14v-214q0 -10 -16 -20q-72 -36 -151 -58t-169 -22zM890 -194q0 -46 -16 -88t-46 -73t-71 -49t-89 -18q-38 0 -76 7t-72 31q-12 10 -10 24l16 86q4 22 22 10q24 -16 47 -24t53 -8q40 0 69 25t29 81q0 46 -35 71t-89 25h-18t-24 -2 q-14 -2 -18 3t0 25l16 86h56q44 0 90 -13t83 -40t60 -66t23 -93z" />
<glyph unicode="&#xc8;" horiz-adv-x="1024" d="M146 1380q0 14 3 17t17 3h746q14 0 17 -3t3 -17v-144q0 -14 -3 -17t-17 -3h-550q-14 0 -17 -3t-3 -17v-494q0 -14 3 -17t17 -3h530q14 0 17 -3t3 -17v-142q0 -14 -3 -17t-17 -3h-530q-14 0 -17 -3t-3 -17v-276q0 -14 3 -17t17 -3h560q14 0 17 -3t3 -17v-144q0 -14 -3 -17 t-17 -3h-756q-14 0 -17 3t-3 17v1360v0zM742 1520q8 -10 10 -15t-14 -5h-142q-12 0 -18 4t-18 16l-242 248q-12 14 -9 17t17 3h192q12 0 17 -4t15 -16z" />
<glyph unicode="&#xc9;" horiz-adv-x="1024" d="M146 1380q0 14 3 17t17 3h746q14 0 17 -3t3 -17v-144q0 -14 -3 -17t-17 -3h-550q-14 0 -17 -3t-3 -17v-494q0 -14 3 -17t17 -3h530q14 0 17 -3t3 -17v-142q0 -14 -3 -17t-17 -3h-530q-14 0 -17 -3t-3 -17v-276q0 -14 3 -17t17 -3h560q14 0 17 -3t3 -17v-144q0 -14 -3 -17 t-17 -3h-756q-14 0 -17 3t-3 17v1360v0zM576 1768q10 12 15 16t17 4h192q14 0 17 -3t-9 -17l-242 -248q-12 -12 -18 -16t-18 -4h-142q-16 0 -14 5t10 15l192 248v0z" />
<glyph unicode="&#xca;" horiz-adv-x="1024" d="M146 1380q0 14 3 17t17 3h746q14 0 17 -3t3 -17v-144q0 -14 -3 -17t-17 -3h-550q-14 0 -17 -3t-3 -17v-494q0 -14 3 -17t17 -3h530q14 0 17 -3t3 -17v-142q0 -14 -3 -17t-17 -3h-530q-14 0 -17 -3t-3 -17v-276q0 -14 3 -17t17 -3h560q14 0 17 -3t3 -17v-144q0 -14 -3 -17 t-17 -3h-756q-14 0 -17 3t-3 17v1360v0zM394 1768q18 20 38 20h152q24 0 38 -20l216 -248q6 -10 6 -14q0 -6 -12 -6h-124q-14 0 -20 6l-14 14l-150 150q-4 4 -12 4t-12 -4l-146 -150l-14 -14t-20 -6h-128q-12 0 -12 6q0 4 6 14l208 248v0z" />
<glyph unicode="&#xcb;" horiz-adv-x="1024" d="M146 1380q0 14 3 17t17 3h746q14 0 17 -3t3 -17v-144q0 -14 -3 -17t-17 -3h-550q-14 0 -17 -3t-3 -17v-494q0 -14 3 -17t17 -3h530q14 0 17 -3t3 -17v-142q0 -14 -3 -17t-17 -3h-530q-14 0 -17 -3t-3 -17v-276q0 -14 3 -17t17 -3h560q14 0 17 -3t3 -17v-144q0 -14 -3 -17 t-17 -3h-756q-14 0 -17 3t-3 17v1360v0zM758 1522q-46 0 -83 34t-37 86q0 50 35 86t85 36q48 0 84 -37t36 -83t-37 -84t-83 -38zM346 1522q-46 0 -83 34t-37 86q0 50 36 86t84 36q50 0 85 -37t35 -83t-36 -84t-84 -38z" />
<glyph unicode="&#xcc;" horiz-adv-x="484" d="M144 1380q0 14 3 17t17 3h156q14 0 17 -3t3 -17v-1360q0 -14 -3 -17t-17 -3h-156q-14 0 -17 3t-3 17v1360v0zM362 1520q8 -10 10 -15t-14 -5h-142q-12 0 -18 4t-18 16l-242 248q-12 14 -9 17t17 3h192q12 0 17 -4t15 -16z" />
<glyph unicode="&#xcd;" horiz-adv-x="484" d="M144 1380q0 14 3 17t17 3h156q14 0 17 -3t3 -17v-1360q0 -14 -3 -17t-17 -3h-156q-14 0 -17 3t-3 17v1360v0zM318 1768q10 12 15 16t17 4h192q14 0 17 -3t-9 -17l-242 -248q-12 -12 -18 -16t-18 -4h-142q-16 0 -14 5t10 15l192 248v0z" />
<glyph unicode="&#xce;" horiz-adv-x="484" d="M144 1380q0 14 3 17t17 3h156q14 0 17 -3t3 -17v-1360q0 -14 -3 -17t-17 -3h-156q-14 0 -17 3t-3 17v1360v0zM124 1768q18 20 38 20h152q24 0 38 -20l216 -248q6 -10 6 -14q0 -6 -12 -6h-124q-14 0 -20 6l-14 14l-150 150q-4 4 -12 4t-12 -4l-146 -150l-14 -14t-20 -6 h-128q-12 0 -12 6q0 4 6 14l208 248v0z" />
<glyph unicode="&#xcf;" horiz-adv-x="484" d="M144 1380q0 14 3 17t17 3h156q14 0 17 -3t3 -17v-1360q0 -14 -3 -17t-17 -3h-156q-14 0 -17 3t-3 17v1360v0zM448 1522q-46 0 -83 34t-37 86q0 50 35 86t85 36q48 0 84 -37t36 -83t-37 -84t-83 -38zM36 1522q-46 0 -83 34t-37 86q0 50 36 86t84 36q50 0 85 -37t35 -83 t-36 -84t-84 -38z" />
<glyph unicode="&#xd0;" horiz-adv-x="1258" d="M492 1400q128 0 219 -25t161 -69q146 -90 220 -249t74 -357q0 -108 -25 -208t-74 -185t-121 -150t-168 -105q-62 -26 -143 -39t-161 -13h-308q-14 0 -17 3t-3 17v482q-4 12 -20 12h-84q-14 0 -17 3t-3 17v128q0 14 4 17t16 3h84q14 0 17 3t3 17v678q0 14 3 17t17 3h326z M948 700q0 144 -44 261t-140 185q-50 36 -128 54t-162 18h-112q-14 0 -17 -3t-3 -17v-496q0 -14 3 -17t17 -3h194q14 0 17 -3t3 -17v-128q0 -14 -3 -17t-17 -3h-194q-14 0 -17 -3t-3 -17v-292q0 -14 3 -17t17 -3h114q84 0 157 18t123 54q96 68 144 185t48 261z" />
<glyph unicode="&#xd1;" horiz-adv-x="1180" d="M352 866q-6 6 -14 6q-16 0 -16 -12v-840q0 -14 -3 -17t-17 -3h-148q-14 0 -17 3t-3 17v1396q0 14 6 14t14 -10l674 -886q6 -6 14 -6q16 0 16 12v840q0 14 3 17t17 3h148q14 0 17 -3t3 -17v-1396q0 -14 -6 -14q-4 0 -14 10l-674 886v0zM304 1524q-14 0 -17 4t-3 16v28 q0 80 48 138t138 58q62 0 99 -18t62 -41t46 -41t53 -18q28 0 48 18t20 52v22q0 12 3 16t17 4h88q14 0 17 -4t3 -16v-30q0 -80 -44 -137t-134 -57q-64 0 -102 18t-64 41t-48 41t-54 18q-28 0 -48 -19t-20 -53v-20q0 -12 -3 -16t-17 -4h-88v0z" />
<glyph unicode="&#xd2;" horiz-adv-x="1584" d="M1492 700q0 -148 -54 -278t-149 -229t-223 -156t-274 -57q-148 0 -275 57t-222 156t-149 229t-54 278q0 146 54 277t149 230t222 156t275 57q146 0 274 -57t223 -156t149 -230t54 -277zM308 700q0 -106 36 -202t100 -168t153 -114t195 -42t195 42t153 114t100 168t36 202 t-36 202t-100 168t-153 114t-195 42t-195 -42t-153 -114t-100 -168t-36 -202zM936 1520q8 -10 10 -15t-14 -5h-142q-12 0 -18 4t-18 16l-242 248q-12 14 -9 17t17 3h192q12 0 17 -4t15 -16z" />
<glyph unicode="&#xd3;" horiz-adv-x="1584" d="M1492 700q0 -148 -54 -278t-149 -229t-223 -156t-274 -57q-148 0 -275 57t-222 156t-149 229t-54 278q0 146 54 277t149 230t222 156t275 57q146 0 274 -57t223 -156t149 -230t54 -277zM308 700q0 -106 36 -202t100 -168t153 -114t195 -42t195 42t153 114t100 168t36 202 t-36 202t-100 168t-153 114t-195 42t-195 -42t-153 -114t-100 -168t-36 -202zM866 1768q10 12 15 16t17 4h192q14 0 17 -3t-9 -17l-242 -248q-12 -12 -18 -16t-18 -4h-142q-16 0 -14 5t10 15l192 248v0z" />
<glyph unicode="&#xd4;" horiz-adv-x="1584" d="M1492 700q0 -148 -54 -278t-149 -229t-223 -156t-274 -57q-148 0 -275 57t-222 156t-149 229t-54 278q0 146 54 277t149 230t222 156t275 57q146 0 274 -57t223 -156t149 -230t54 -277zM308 700q0 -106 36 -202t100 -168t153 -114t195 -42t195 42t153 114t100 168t36 202 t-36 202t-100 168t-153 114t-195 42t-195 -42t-153 -114t-100 -168t-36 -202zM674 1768q18 20 38 20h152q24 0 38 -20l216 -248q6 -10 6 -14q0 -6 -12 -6h-124q-14 0 -20 6l-14 14l-150 150q-4 4 -12 4t-12 -4l-146 -150l-14 -14t-20 -6h-128q-12 0 -12 6q0 4 6 14l208 248 v0z" />
<glyph unicode="&#xd5;" horiz-adv-x="1584" d="M1492 700q0 -148 -54 -278t-149 -229t-223 -156t-274 -57q-148 0 -275 57t-222 156t-149 229t-54 278q0 146 54 277t149 230t222 156t275 57q146 0 274 -57t223 -156t149 -230t54 -277zM308 700q0 -106 36 -202t100 -168t153 -114t195 -42t195 42t153 114t100 168t36 202 t-36 202t-100 168t-153 114t-195 42t-195 -42t-153 -114t-100 -168t-36 -202zM492 1524q-14 0 -17 4t-3 16v28q0 80 48 138t138 58q62 0 99 -18t62 -41t46 -41t53 -18q28 0 48 18t20 52v22q0 12 3 16t17 4h88q14 0 17 -4t3 -16v-30q0 -80 -44 -137t-134 -57q-64 0 -102 18 t-64 41t-48 41t-54 18q-28 0 -48 -19t-20 -53v-20q0 -12 -3 -16t-17 -4h-88v0z" />
<glyph unicode="&#xd6;" horiz-adv-x="1584" d="M1492 700q0 -148 -54 -278t-149 -229t-223 -156t-274 -57q-148 0 -275 57t-222 156t-149 229t-54 278q0 146 54 277t149 230t222 156t275 57q146 0 274 -57t223 -156t149 -230t54 -277zM308 700q0 -106 36 -202t100 -168t153 -114t195 -42t195 42t153 114t100 168t36 202 t-36 202t-100 168t-153 114t-195 42t-195 -42t-153 -114t-100 -168t-36 -202zM998 1522q-46 0 -83 34t-37 86q0 50 35 86t85 36q48 0 84 -37t36 -83t-37 -84t-83 -38zM586 1522q-46 0 -83 34t-37 86q0 50 36 86t84 36q50 0 85 -37t35 -83t-36 -84t-84 -38z" />
<glyph unicode="&#xd7;" d="M486 590q10 -10 14 -10t14 10l254 254q10 10 14 10t14 -10l74 -74q10 -10 10 -14t-10 -14l-254 -254q-10 -10 -10 -14t10 -14l254 -254q10 -10 10 -14t-10 -14l-74 -74q-10 -10 -14 -10t-14 10l-254 254q-8 8 -14 8t-14 -8l-254 -254q-10 -10 -16 -10q-5 0 -12 10l-74 74 q-10 7 -10 12q0 6 10 16l254 254q8 8 8 14t-8 14l-254 254q-10 10 -10 14t10 14l74 74q10 10 14 10t14 -10z" />
<glyph unicode="&#xd8;" horiz-adv-x="1584" d="M242 252q-70 96 -110 209t-40 239q0 146 54 277t149 230t222 156t275 57q132 0 245 -45t205 -123l136 136q6 6 12 6t12 -6l78 -78q6 -6 6 -12t-6 -12l-140 -140q72 -92 112 -206t40 -240q0 -148 -54 -278t-149 -229t-223 -156t-274 -57q-132 0 -246 44t-204 124 l-136 -136q-6 -6 -12 -6t-12 6l-78 78q-6 6 -6 12t6 12zM1200 988q-4 6 -8 6t-10 -6l-688 -688q-6 -6 -6 -8q0 -4 6 -10q124 -108 298 -108q106 0 195 42t153 114t100 168t36 202q0 158 -76 288zM1090 1100q6 6 6 8q0 4 -6 10q-124 108 -298 108q-106 0 -195 -42t-153 -114 t-100 -168t-36 -202q0 -80 20 -152t56 -136q2 -6 8 -6q4 0 10 6z" />
<glyph unicode="&#xd9;" horiz-adv-x="1236" d="M894 1380q0 14 3 17t17 3h158q14 0 17 -3t3 -17v-942q0 -114 -35 -200t-98 -143t-150 -86t-189 -29t-190 29t-151 86t-99 143t-36 200v942q0 14 3 17t17 3h158q14 0 17 -3t3 -17v-904q0 -86 19 -144t55 -94t88 -52t116 -16q66 0 117 16t86 52t53 94t18 144v904v0z M756 1520q8 -10 10 -15t-14 -5h-142q-12 0 -18 4t-18 16l-242 248q-12 14 -9 17t17 3h192q12 0 17 -4t15 -16z" />
<glyph unicode="&#xda;" horiz-adv-x="1236" d="M894 1380q0 14 3 17t17 3h158q14 0 17 -3t3 -17v-942q0 -114 -35 -200t-98 -143t-150 -86t-189 -29t-190 29t-151 86t-99 143t-36 200v942q0 14 3 17t17 3h158q14 0 17 -3t3 -17v-904q0 -86 19 -144t55 -94t88 -52t116 -16q66 0 117 16t86 52t53 94t18 144v904v0z M668 1768q10 12 15 16t17 4h192q14 0 17 -3t-9 -17l-242 -248q-12 -12 -18 -16t-18 -4h-142q-16 0 -14 5t10 15l192 248v0z" />
<glyph unicode="&#xdb;" horiz-adv-x="1236" d="M894 1380q0 14 3 17t17 3h158q14 0 17 -3t3 -17v-942q0 -114 -35 -200t-98 -143t-150 -86t-189 -29t-190 29t-151 86t-99 143t-36 200v942q0 14 3 17t17 3h158q14 0 17 -3t3 -17v-904q0 -86 19 -144t55 -94t88 -52t116 -16q66 0 117 16t86 52t53 94t18 144v904v0z M500 1768q18 20 38 20h152q24 0 38 -20l216 -248q6 -10 6 -14q0 -6 -12 -6h-124q-14 0 -20 6l-14 14l-150 150q-4 4 -12 4t-12 -4l-146 -150l-14 -14t-20 -6h-128q-12 0 -12 6q0 4 6 14l208 248v0z" />
<glyph unicode="&#xdc;" horiz-adv-x="1236" d="M894 1380q0 14 3 17t17 3h158q14 0 17 -3t3 -17v-942q0 -114 -35 -200t-98 -143t-150 -86t-189 -29t-190 29t-151 86t-99 143t-36 200v942q0 14 3 17t17 3h158q14 0 17 -3t3 -17v-904q0 -86 19 -144t55 -94t88 -52t116 -16q66 0 117 16t86 52t53 94t18 144v904v0z M824 1522q-46 0 -83 34t-37 86q0 50 35 86t85 36q48 0 84 -37t36 -83t-37 -84t-83 -38zM412 1522q-46 0 -83 34t-37 86q0 50 36 86t84 36q50 0 85 -37t35 -83t-36 -84t-84 -38z" />
<glyph unicode="&#xdd;" horiz-adv-x="1096" d="M28 1380l-4 12q0 8 12 8h198q18 0 26 -20l278 -454q2 -6 10 -6q6 0 10 6l280 454q8 14 12 17t14 3h196q12 0 12 -8l-4 -12l-422 -674v-686q0 -14 -3 -17t-17 -3h-156q-14 0 -17 3t-3 17v686zM602 1768q10 12 15 16t17 4h192q14 0 17 -3t-9 -17l-242 -248q-12 -12 -18 -16 t-18 -4h-142q-16 0 -14 5t10 15l192 248v0z" />
<glyph unicode="&#xde;" horiz-adv-x="1052" d="M318 1400q14 0 17 -3t3 -17v-224q0 -14 3 -17t17 -3h176q102 0 183 -34t137 -93t86 -139t30 -170t-30 -170t-86 -138t-137 -92t-183 -34h-176q-14 0 -17 -3t-3 -17v-226q0 -14 -3 -17t-17 -3h-156q-14 0 -17 3t-3 17v1360q0 14 3 17t17 3h156zM358 954q-14 0 -17 -3 t-3 -17v-466q0 -14 3 -17t17 -3h184q52 0 93 20t69 54t43 80t15 98t-15 98t-43 81t-69 55t-93 20h-184z" />
<glyph unicode="&#xdf;" horiz-adv-x="1090" d="M300 20q0 -12 -3 -16t-17 -4h-136q-14 0 -17 4t-3 16v1134q0 96 28 167t79 118t120 69t151 22t150 -25t117 -72t76 -114t27 -153q0 -42 -13 -81t-33 -74t-45 -64t-47 -51q-4 -4 -4 -8q0 -6 10 -10q50 -20 99 -52t87 -82t61 -120t23 -166q0 -100 -30 -187t-91 -151 t-152 -102t-213 -38h-28q-14 0 -17 4t-3 16v120q0 12 3 16t17 4h28q150 0 226 84t76 234q0 102 -38 176t-142 112q-24 10 -65 14t-77 4h-38q-14 0 -17 4t-3 16v120q0 12 3 16t17 4h64q34 6 64 30t53 58t36 75t13 81q0 90 -52 146t-142 56t-146 -51t-56 -183v-1116v0z" />
<glyph unicode="&#xe0;" horiz-adv-x="932" d="M640 302q0 32 -17 58t-45 45t-65 29t-79 10q-90 0 -144 -44t-54 -114q0 -72 52 -117t146 -45q42 0 80 16t66 41t44 57t16 64zM64 280q0 72 27 129t73 96t107 59t129 20q84 0 142 -24t86 -46q2 -2 8 -2q8 0 8 14v46q0 84 -50 129t-158 45q-80 0 -133 -23t-75 -41 q-6 -6 -14 -6t-8 16v122q0 14 16 24q38 26 99 41t131 15q116 0 187 -29t110 -75t53 -103t14 -113v-554q0 -12 -3 -16t-17 -4h-126q-14 0 -17 4t-3 16v68q0 4 -8 4q-6 0 -8 -2q-42 -52 -103 -81t-131 -29q-66 0 -126 19t-107 56t-75 93t-28 132zM602 1032q8 -10 10 -15 t-14 -5h-142q-12 0 -18 4t-18 16l-242 248q-12 14 -9 17t17 3h192q12 0 17 -4t15 -16z" />
<glyph unicode="&#xe1;" horiz-adv-x="932" d="M640 302q0 32 -17 58t-45 45t-65 29t-79 10q-90 0 -144 -44t-54 -114q0 -72 52 -117t146 -45q42 0 80 16t66 41t44 57t16 64zM64 280q0 72 27 129t73 96t107 59t129 20q84 0 142 -24t86 -46q2 -2 8 -2q8 0 8 14v46q0 84 -50 129t-158 45q-80 0 -133 -23t-75 -41 q-6 -6 -14 -6t-8 16v122q0 14 16 24q38 26 99 41t131 15q116 0 187 -29t110 -75t53 -103t14 -113v-554q0 -12 -3 -16t-17 -4h-126q-14 0 -17 4t-3 16v68q0 4 -8 4q-6 0 -8 -2q-42 -52 -103 -81t-131 -29q-66 0 -126 19t-107 56t-75 93t-28 132zM538 1280q10 12 15 16t17 4 h192q14 0 17 -3t-9 -17l-242 -248q-12 -12 -18 -16t-18 -4h-142q-16 0 -14 5t10 15l192 248v0z" />
<glyph unicode="&#xe2;" horiz-adv-x="932" d="M640 302q0 32 -17 58t-45 45t-65 29t-79 10q-90 0 -144 -44t-54 -114q0 -72 52 -117t146 -45q42 0 80 16t66 41t44 57t16 64zM64 280q0 72 27 129t73 96t107 59t129 20q84 0 142 -24t86 -46q2 -2 8 -2q8 0 8 14v46q0 84 -50 129t-158 45q-80 0 -133 -23t-75 -41 q-6 -6 -14 -6t-8 16v122q0 14 16 24q38 26 99 41t131 15q116 0 187 -29t110 -75t53 -103t14 -113v-554q0 -12 -3 -16t-17 -4h-126q-14 0 -17 4t-3 16v68q0 4 -8 4q-6 0 -8 -2q-42 -52 -103 -81t-131 -29q-66 0 -126 19t-107 56t-75 93t-28 132zM360 1280q18 20 38 20h152 q24 0 38 -20l216 -248q6 -10 6 -14q0 -6 -12 -6h-124q-14 0 -20 6l-14 14l-150 150q-4 4 -12 4t-12 -4l-146 -150l-14 -14t-20 -6h-128q-12 0 -12 6q0 4 6 14l208 248v0z" />
<glyph unicode="&#xe3;" horiz-adv-x="932" d="M640 302q0 32 -17 58t-45 45t-65 29t-79 10q-90 0 -144 -44t-54 -114q0 -72 52 -117t146 -45q42 0 80 16t66 41t44 57t16 64zM64 280q0 72 27 129t73 96t107 59t129 20q84 0 142 -24t86 -46q2 -2 8 -2q8 0 8 14v46q0 84 -50 129t-158 45q-80 0 -133 -23t-75 -41 q-6 -6 -14 -6t-8 16v122q0 14 16 24q38 26 99 41t131 15q116 0 187 -29t110 -75t53 -103t14 -113v-554q0 -12 -3 -16t-17 -4h-126q-14 0 -17 4t-3 16v68q0 4 -8 4q-6 0 -8 -2q-42 -52 -103 -81t-131 -29q-66 0 -126 19t-107 56t-75 93t-28 132zM194 1036q-14 0 -17 4t-3 16 v28q0 80 48 138t138 58q62 0 99 -18t62 -41t46 -41t53 -18q28 0 48 18t20 52v22q0 12 3 16t17 4h88q14 0 17 -4t3 -16v-30q0 -80 -44 -137t-134 -57q-64 0 -102 18t-64 41t-48 41t-54 18q-28 0 -48 -19t-20 -53v-20q0 -12 -3 -16t-17 -4h-88v0z" />
<glyph unicode="&#xe4;" horiz-adv-x="932" d="M640 302q0 32 -17 58t-45 45t-65 29t-79 10q-90 0 -144 -44t-54 -114q0 -72 52 -117t146 -45q42 0 80 16t66 41t44 57t16 64zM64 280q0 72 27 129t73 96t107 59t129 20q84 0 142 -24t86 -46q2 -2 8 -2q8 0 8 14v46q0 84 -50 129t-158 45q-80 0 -133 -23t-75 -41 q-6 -6 -14 -6t-8 16v122q0 14 16 24q38 26 99 41t131 15q116 0 187 -29t110 -75t53 -103t14 -113v-554q0 -12 -3 -16t-17 -4h-126q-14 0 -17 4t-3 16v68q0 4 -8 4q-6 0 -8 -2q-42 -52 -103 -81t-131 -29q-66 0 -126 19t-107 56t-75 93t-28 132zM700 1036q-46 0 -83 34 t-37 86q0 50 35 86t85 36q48 0 84 -37t36 -83t-37 -84t-83 -38zM288 1036q-46 0 -83 34t-37 86q0 50 36 86t84 36q50 0 85 -37t35 -83t-36 -84t-84 -38z" />
<glyph unicode="&#xe5;" horiz-adv-x="932" d="M640 302q0 32 -17 58t-45 45t-65 29t-79 10q-90 0 -144 -44t-54 -114q0 -72 52 -117t146 -45q42 0 80 16t66 41t44 57t16 64zM64 280q0 72 27 129t73 96t107 59t129 20q84 0 142 -24t86 -46q2 -2 8 -2q8 0 8 14v46q0 84 -50 129t-158 45q-80 0 -133 -23t-75 -41 q-6 -6 -14 -6t-8 16v122q0 14 16 24q38 26 99 41t131 15q116 0 187 -29t110 -75t53 -103t14 -113v-554q0 -12 -3 -16t-17 -4h-126q-14 0 -17 4t-3 16v68q0 4 -8 4q-6 0 -8 -2q-42 -52 -103 -81t-131 -29q-66 0 -126 19t-107 56t-75 93t-28 132zM496 1094q34 0 58 24t24 60 q0 34 -23 58t-59 24t-59 -24t-23 -60q0 -38 24 -60t58 -22zM496 994q-74 0 -128 48t-54 134q0 76 52 130t130 54q38 0 71 -15t58 -40t39 -58t14 -69q0 -38 -14 -72t-39 -59t-58 -39t-71 -14z" />
<glyph unicode="&#xe6;" horiz-adv-x="1508" d="M1036 738q-98 0 -161 -62t-75 -152q0 -14 3 -17t17 -3h418q20 0 20 12v8q-10 92 -60 153t-162 61zM424 128q54 0 92 18t62 45t35 58t11 59q0 66 -58 105t-142 39q-78 0 -131 -42t-53 -122q0 -78 47 -119t137 -41zM368 -20q-76 0 -134 24t-97 65t-58 93t-19 108 q0 68 22 126t65 101t105 67t144 24q78 0 133 -23t83 -45q2 -2 8 -2q8 0 8 16v38q0 84 -51 129t-159 45q-80 0 -132 -24t-74 -40l-12 -4q-10 0 -10 14v122q0 14 16 24q38 26 100 41t132 15q68 0 119 -17t86 -41t55 -53t30 -53q4 -4 8 -4t8 4q52 70 122 117t182 47 q102 0 175 -36t120 -98t70 -145t23 -177v-58q0 -12 -3 -16t-17 -4h-584q-14 0 -18 -3t-4 -15q10 -96 80 -149t190 -53q32 0 69 6t71 17t63 26t47 35l5 5t7 3q8 0 8 -20v-138q0 -8 -3 -14t-13 -14q-38 -28 -108 -47t-146 -19q-126 0 -215 44t-147 118q0 4 -8 4q-6 0 -8 -2 q-22 -28 -53 -57t-73 -53t-94 -39t-114 -15z" />
<glyph unicode="&#xe7;" horiz-adv-x="824" d="M736 26q-46 -22 -106 -34t-112 -12q-98 0 -181 36t-144 97t-95 145t-34 180t34 179t95 145t144 97t181 35q52 0 110 -11t102 -31q10 -4 13 -8t3 -12v-164q0 -14 -8 -14q-2 0 -10 4q-34 34 -87 55t-119 21t-118 -23t-87 -62t-54 -94t-19 -117q0 -64 19 -119t54 -95t87 -62 t118 -22q140 0 214 84q2 2 8 2q8 0 8 -14v-166q0 -8 -3 -12t-13 -8zM652 -194q0 -46 -16 -88t-46 -73t-71 -49t-89 -18q-38 0 -76 7t-72 31q-12 10 -10 24l16 86q4 22 22 10q24 -16 47 -24t53 -8q40 0 69 25t29 81q0 46 -35 71t-89 25h-18t-24 -2q-14 -2 -18 3t0 25l16 86 h56q44 0 90 -13t83 -40t60 -66t23 -93z" />
<glyph unicode="&#xe8;" horiz-adv-x="968" d="M260 344q10 -96 83 -150t193 -54q30 0 67 6t73 17t66 26t48 35l5 5t7 3q8 0 8 -20v-138q0 -8 -3 -14t-13 -14q-38 -28 -110 -47t-148 -19q-116 0 -203 36t-145 97t-87 145t-29 180q0 94 30 177t84 145t131 98t171 36q100 0 177 -37t128 -100t77 -145t26 -174v-56 q0 -12 -3 -16t-17 -4h-594q-14 0 -18 -3t-4 -15zM488 736q-100 0 -163 -62t-75 -152q0 -14 3 -17t17 -3h428q16 0 19 3t1 17q-10 90 -66 152t-164 62zM642 1032q8 -10 10 -15t-14 -5h-142q-12 0 -18 4t-18 16l-242 248q-12 14 -9 17t17 3h192q12 0 17 -4t15 -16z" />
<glyph unicode="&#xe9;" horiz-adv-x="968" d="M260 344q10 -96 83 -150t193 -54q30 0 67 6t73 17t66 26t48 35l5 5t7 3q8 0 8 -20v-138q0 -8 -3 -14t-13 -14q-38 -28 -110 -47t-148 -19q-116 0 -203 36t-145 97t-87 145t-29 180q0 94 30 177t84 145t131 98t171 36q100 0 177 -37t128 -100t77 -145t26 -174v-56 q0 -12 -3 -16t-17 -4h-594q-14 0 -18 -3t-4 -15zM488 736q-100 0 -163 -62t-75 -152q0 -14 3 -17t17 -3h428q16 0 19 3t1 17q-10 90 -66 152t-164 62zM562 1280q10 12 15 16t17 4h192q14 0 17 -3t-9 -17l-242 -248q-12 -12 -18 -16t-18 -4h-142q-16 0 -14 5t10 15l192 248v0 z" />
<glyph unicode="&#xea;" horiz-adv-x="968" d="M260 344q10 -96 83 -150t193 -54q30 0 67 6t73 17t66 26t48 35l5 5t7 3q8 0 8 -20v-138q0 -8 -3 -14t-13 -14q-38 -28 -110 -47t-148 -19q-116 0 -203 36t-145 97t-87 145t-29 180q0 94 30 177t84 145t131 98t171 36q100 0 177 -37t128 -100t77 -145t26 -174v-56 q0 -12 -3 -16t-17 -4h-594q-14 0 -18 -3t-4 -15zM488 736q-100 0 -163 -62t-75 -152q0 -14 3 -17t17 -3h428q16 0 19 3t1 17q-10 90 -66 152t-164 62zM374 1280q18 20 38 20h152q24 0 38 -20l216 -248q6 -10 6 -14q0 -6 -12 -6h-124q-14 0 -20 6l-14 14l-150 150q-4 4 -12 4 t-12 -4l-146 -150l-14 -14t-20 -6h-128q-12 0 -12 6q0 4 6 14l208 248v0z" />
<glyph unicode="&#xeb;" horiz-adv-x="968" d="M260 344q10 -96 83 -150t193 -54q30 0 67 6t73 17t66 26t48 35l5 5t7 3q8 0 8 -20v-138q0 -8 -3 -14t-13 -14q-38 -28 -110 -47t-148 -19q-116 0 -203 36t-145 97t-87 145t-29 180q0 94 30 177t84 145t131 98t171 36q100 0 177 -37t128 -100t77 -145t26 -174v-56 q0 -12 -3 -16t-17 -4h-594q-14 0 -18 -3t-4 -15zM488 736q-100 0 -163 -62t-75 -152q0 -14 3 -17t17 -3h428q16 0 19 3t1 17q-10 90 -66 152t-164 62zM698 1036q-46 0 -83 34t-37 86q0 50 35 86t85 36q48 0 84 -37t36 -83t-37 -84t-83 -38zM286 1036q-46 0 -83 34t-37 86 q0 50 36 86t84 36q50 0 85 -37t35 -83t-36 -84t-84 -38z" />
<glyph unicode="&#xec;" horiz-adv-x="448" d="M358 1032l10 -16q0 -4 -14 -4h-116q-12 0 -18 4t-18 16l-234 250q-12 12 -12 16t20 4h186q12 0 17 -4t15 -16l164 -250v0zM136 854q0 12 3 16t17 4h136q14 0 17 -4t3 -16v-834q0 -12 -3 -16t-17 -4h-136q-14 0 -17 4t-3 16v834v0z" />
<glyph unicode="&#xed;" horiz-adv-x="448" d="M136 854q0 12 3 16t17 4h136q14 0 17 -4t3 -16v-834q0 -12 -3 -16t-17 -4h-136q-14 0 -17 4t-3 16v834v0zM254 1282q10 12 15 16t17 4h186q20 0 20 -4t-12 -16l-234 -250q-12 -12 -18 -16t-18 -4h-116q-14 0 -14 4l10 16l164 250v0z" />
<glyph unicode="&#xee;" horiz-adv-x="448" d="M136 854q0 12 3 16t17 4h136q14 0 17 -4t3 -16v-834q0 -12 -3 -16t-17 -4h-136q-14 0 -17 4t-3 16v834v0zM122 1282q18 20 38 20h120q24 0 38 -20l172 -250q6 -10 6 -14q0 -6 -12 -6h-114q-14 0 -20 6l-14 14l-100 140q-4 4 -12 4t-12 -4l-96 -140l-14 -14t-20 -6h-118 q-12 0 -12 6q0 4 6 14l164 250v0z" />
<glyph unicode="&#xef;" horiz-adv-x="448" d="M390 1048q-46 0 -81 33t-35 83q0 48 34 83t82 35q46 0 81 -36t35 -80q0 -46 -35 -82t-81 -36zM58 1048q-44 0 -80 33t-36 83q0 48 35 83t81 35q48 0 82 -36t34 -80q0 -46 -35 -82t-81 -36zM136 854q0 12 3 16t17 4h136q14 0 17 -4t3 -16v-834q0 -12 -3 -16t-17 -4h-136 q-14 0 -17 4t-3 16v834v0z" />
<glyph unicode="&#xf0;" horiz-adv-x="1050" d="M244 438q0 -62 20 -116t56 -95t87 -64t113 -23t113 23t87 64t55 95t19 116q0 60 -19 114t-55 95t-87 64t-113 23t-113 -23t-87 -64t-56 -95t-20 -114zM650 1206q144 -170 232 -359t92 -399v-10q0 -94 -36 -177t-97 -146t-144 -99t-177 -36t-177 36t-145 99t-98 146 t-36 177t33 176t91 144t140 97t180 35q52 0 99 -13t71 -25q6 -4 6 6q0 6 -2 8q-40 76 -81 137t-95 125q-8 10 -13 11t-17 -5l-188 -106q-16 -10 -26 8l-48 88q-6 10 -5 15t11 13l158 88q12 6 12 12q0 4 -8 12q-18 18 -39 38t-43 40t-43 38t-39 30q-16 12 -2 26l74 74 q8 8 12 9t14 -7q46 -34 97 -78t99 -94q14 -14 32 -4l188 108q16 10 26 -8l56 -90q6 -10 5 -15t-11 -13l-152 -86q-10 -6 -13 -11t7 -15z" />
<glyph unicode="&#xf1;" horiz-adv-x="1012" d="M896 20q0 -12 -3 -16t-17 -4h-136q-14 0 -17 4t-3 16v496q0 104 -41 161t-139 57q-102 0 -169 -67t-67 -189v-458q0 -12 -3 -16t-17 -4h-136q-14 0 -17 4t-3 16v834q0 14 3 17t17 3h136q14 0 17 -4t3 -16v-80q0 -4 8 -4q6 0 8 2q28 26 56 49t58 39t66 25t82 9 q90 0 151 -26t97 -72t51 -107t15 -133v-536v0zM208 1036q-14 0 -17 4t-3 16v28q0 80 48 138t138 58q62 0 99 -18t62 -41t46 -41t53 -18q28 0 48 18t20 52v22q0 12 3 16t17 4h88q14 0 17 -4t3 -16v-30q0 -80 -44 -137t-134 -57q-64 0 -102 18t-64 41t-48 41t-54 18 q-28 0 -48 -19t-20 -53v-20q0 -12 -3 -16t-17 -4h-88v0z" />
<glyph unicode="&#xf2;" horiz-adv-x="1038" d="M64 438q0 94 36 177t98 145t145 98t177 36t177 -36t144 -98t97 -145t36 -177t-36 -177t-97 -146t-144 -99t-177 -36t-177 36t-145 99t-98 146t-36 177zM244 438q0 -62 20 -116t56 -95t87 -64t113 -23t113 23t87 64t55 95t19 116q0 60 -19 114t-55 95t-87 64t-113 23 t-113 -23t-87 -64t-56 -95t-20 -114zM628 1032q8 -10 10 -15t-14 -5h-142q-12 0 -18 4t-18 16l-242 248q-12 14 -9 17t17 3h192q12 0 17 -4t15 -16z" />
<glyph unicode="&#xf3;" horiz-adv-x="1038" d="M64 438q0 94 36 177t98 145t145 98t177 36t177 -36t144 -98t97 -145t36 -177t-36 -177t-97 -146t-144 -99t-177 -36t-177 36t-145 99t-98 146t-36 177zM244 438q0 -62 20 -116t56 -95t87 -64t113 -23t113 23t87 64t55 95t19 116q0 60 -19 114t-55 95t-87 64t-113 23 t-113 -23t-87 -64t-56 -95t-20 -114zM628 1280q10 12 15 16t17 4h192q14 0 17 -3t-9 -17l-242 -248q-12 -12 -18 -16t-18 -4h-142q-16 0 -14 5t10 15l192 248v0z" />
<glyph unicode="&#xf4;" horiz-adv-x="1038" d="M64 438q0 94 36 177t98 145t145 98t177 36t177 -36t144 -98t97 -145t36 -177t-36 -177t-97 -146t-144 -99t-177 -36t-177 36t-145 99t-98 146t-36 177zM244 438q0 -62 20 -116t56 -95t87 -64t113 -23t113 23t87 64t55 95t19 116q0 60 -19 114t-55 95t-87 64t-113 23 t-113 -23t-87 -64t-56 -95t-20 -114zM400 1280q18 20 38 20h152q24 0 38 -20l216 -248q6 -10 6 -14q0 -6 -12 -6h-124q-14 0 -20 6l-14 14l-150 150q-4 4 -12 4t-12 -4l-146 -150l-14 -14t-20 -6h-128q-12 0 -12 6q0 4 6 14l208 248v0z" />
<glyph unicode="&#xf5;" horiz-adv-x="1038" d="M64 438q0 94 36 177t98 145t145 98t177 36t177 -36t144 -98t97 -145t36 -177t-36 -177t-97 -146t-144 -99t-177 -36t-177 36t-145 99t-98 146t-36 177zM244 438q0 -62 20 -116t56 -95t87 -64t113 -23t113 23t87 64t55 95t19 116q0 60 -19 114t-55 95t-87 64t-113 23 t-113 -23t-87 -64t-56 -95t-20 -114zM220 1036q-14 0 -17 4t-3 16v28q0 80 48 138t138 58q62 0 99 -18t62 -41t46 -41t53 -18q28 0 48 18t20 52v22q0 12 3 16t17 4h88q14 0 17 -4t3 -16v-30q0 -80 -44 -137t-134 -57q-64 0 -102 18t-64 41t-48 41t-54 18q-28 0 -48 -19 t-20 -53v-20q0 -12 -3 -16t-17 -4h-88v0z" />
<glyph unicode="&#xf6;" horiz-adv-x="1038" d="M64 438q0 94 36 177t98 145t145 98t177 36t177 -36t144 -98t97 -145t36 -177t-36 -177t-97 -146t-144 -99t-177 -36t-177 36t-145 99t-98 146t-36 177zM244 438q0 -62 20 -116t56 -95t87 -64t113 -23t113 23t87 64t55 95t19 116q0 60 -19 114t-55 95t-87 64t-113 23 t-113 -23t-87 -64t-56 -95t-20 -114zM726 1036q-46 0 -83 34t-37 86q0 50 35 86t85 36q48 0 84 -37t36 -83t-37 -84t-83 -38zM314 1036q-46 0 -83 34t-37 86q0 50 36 86t84 36q50 0 85 -37t35 -83t-36 -84t-84 -38z" />
<glyph unicode="&#xf7;" d="M910 550q14 0 17 -4t3 -16v-108q0 -12 -3 -16t-17 -4h-820q-14 0 -17 4t-3 16v108q0 12 3 16t17 4h820zM502 2q-50 0 -87 35t-37 89q0 52 36 88t88 36t88 -36t36 -86q0 -52 -36 -89t-88 -37zM502 693q-50 0 -87 35t-37 89q0 52 36 88t88 36t88 -36t36 -86q0 -52 -36 -89 t-88 -37z" />
<glyph unicode="&#xf8;" horiz-adv-x="1038" d="M64 438q0 94 36 177t98 145t145 98t177 36q80 0 151 -27t129 -73l80 80q6 6 12 6q2 0 12 -6l50 -50q6 -6 6 -12t-6 -12l-80 -80q46 -58 73 -130t27 -152q0 -94 -36 -177t-97 -146t-144 -99t-177 -36q-84 0 -155 27t-129 75l-82 -82q-6 -6 -12 -6q-4 0 -12 6l-50 50 q-6 6 -6 12t6 12l82 82q-46 58 -72 130t-26 152zM794 438q0 46 -11 87t-31 75l-404 -404q70 -56 172 -56q64 0 115 23t86 64t54 95t19 116zM244 438q0 -92 40 -162l402 402q-68 56 -166 56q-64 0 -115 -23t-87 -64t-55 -95t-19 -114z" />
<glyph unicode="&#xf9;" horiz-adv-x="944" d="M594 1032q8 -10 10 -15t-14 -5h-142q-12 0 -18 4t-18 16l-242 248q-12 14 -9 17t17 3h192q12 0 17 -4t15 -16zM472 140q80 0 134 51t54 155v508q0 12 3 16t17 4h136q14 0 17 -4t3 -16v-520q0 -74 -23 -138t-68 -112t-114 -76t-159 -28t-159 28t-114 76t-68 112t-23 138 v520q0 12 3 16t17 4h136q14 0 17 -4t3 -16v-508q0 -104 54 -155t134 -51z" />
<glyph unicode="&#xfa;" horiz-adv-x="944" d="M472 140q80 0 134 51t54 155v508q0 12 3 16t17 4h136q14 0 17 -4t3 -16v-520q0 -74 -23 -138t-68 -112t-114 -76t-159 -28t-159 28t-114 76t-68 112t-23 138v520q0 12 3 16t17 4h136q14 0 17 -4t3 -16v-508q0 -104 54 -155t134 -51zM538 1280q10 12 15 16t17 4h192 q14 0 17 -3t-9 -17l-242 -248q-12 -12 -18 -16t-18 -4h-142q-16 0 -14 5t10 15l192 248v0z" />
<glyph unicode="&#xfb;" horiz-adv-x="944" d="M472 140q80 0 134 51t54 155v508q0 12 3 16t17 4h136q14 0 17 -4t3 -16v-520q0 -74 -23 -138t-68 -112t-114 -76t-159 -28t-159 28t-114 76t-68 112t-23 138v520q0 12 3 16t17 4h136q14 0 17 -4t3 -16v-508q0 -104 54 -155t134 -51zM350 1280q18 20 38 20h152 q24 0 38 -20l216 -248q6 -10 6 -14q0 -6 -12 -6h-124q-14 0 -20 6l-14 14l-150 150q-4 4 -12 4t-12 -4l-146 -150l-14 -14t-20 -6h-128q-12 0 -12 6q0 4 6 14l208 248v0z" />
<glyph unicode="&#xfc;" horiz-adv-x="944" d="M472 140q80 0 134 51t54 155v508q0 12 3 16t17 4h136q14 0 17 -4t3 -16v-520q0 -74 -23 -138t-68 -112t-114 -76t-159 -28t-159 28t-114 76t-68 112t-23 138v520q0 12 3 16t17 4h136q14 0 17 -4t3 -16v-508q0 -104 54 -155t134 -51zM676 1036q-46 0 -83 34t-37 86 q0 50 35 86t85 36q48 0 84 -37t36 -83t-37 -84t-83 -38zM264 1036q-46 0 -83 34t-37 86q0 50 36 86t84 36q50 0 85 -37t35 -83t-36 -84t-84 -38z" />
<glyph unicode="&#xfd;" horiz-adv-x="906" d="M446 264q2 -6 8 -6q4 0 8 6l234 590q6 12 10 16t16 4h150q18 0 18 -8q-2 -2 -2 -4t-1 -3t-1 -5l-518 -1274q-6 -12 -10 -16t-16 -4h-148q-18 0 -18 8q2 0 2 2q0 6 2 10l176 436q2 2 2 10t-2 10l-336 818q-2 4 -2 8q0 2 -2 4q0 8 18 8h154q12 0 16 -4t10 -16l232 -590v0z M558 1280q10 12 15 16t17 4h192q14 0 17 -3t-9 -17l-242 -248q-12 -12 -18 -16t-18 -4h-142q-16 0 -14 5t10 15l192 248v0z" />
<glyph unicode="&#xfe;" horiz-adv-x="1100" d="M856 438q0 60 -20 114t-56 95t-86 64t-112 23t-113 -23t-88 -64t-57 -95t-20 -114q0 -62 20 -116t57 -95t88 -64t113 -23t112 23t86 64t56 95t20 116zM304 774q0 -4 8 -4q6 0 8 2q52 56 121 89t161 33t172 -36t138 -98t91 -145t33 -177t-33 -177t-91 -146t-138 -99 t-172 -36t-161 33t-121 89q-2 2 -8 2q-8 0 -8 -4v-520q0 -12 -3 -16t-17 -4h-136q-14 0 -17 4t-3 16v1900q0 12 3 16t17 4h136q14 0 17 -4t3 -16v-706z" />
<glyph unicode="&#xff;" horiz-adv-x="906" d="M446 264q2 -6 8 -6q4 0 8 6l234 590q6 12 10 16t16 4h150q18 0 18 -8q-2 -2 -2 -4t-1 -3t-1 -5l-518 -1274q-6 -12 -10 -16t-16 -4h-148q-18 0 -18 8q2 0 2 2q0 6 2 10l176 436q2 2 2 10t-2 10l-336 818q-2 4 -2 8q0 2 -2 4q0 8 18 8h154q12 0 16 -4t10 -16l232 -590v0z M666 1036q-46 0 -83 34t-37 86q0 50 35 86t85 36q48 0 84 -37t36 -83t-37 -84t-83 -38zM254 1036q-46 0 -83 34t-37 86q0 50 36 86t84 36q50 0 85 -37t35 -83t-36 -84t-84 -38z" />
<glyph unicode="&#x100;" horiz-adv-x="1124" d="M568 886q-4 6 -12 6q-10 0 -12 -6l-152 -436q-2 -4 -2 -10q0 -2 -2 -2q0 -4 1 -6t11 -2h314q14 0 14 6q0 -2 -4 14zM550 1422q2 8 10 8t10 -8l520 -1402q2 -2 2 -12q0 -8 -16 -8h-174q-12 0 -17 3t-9 17l-80 210q-4 14 -8 17t-18 3h-428q-20 0 -26 -20l-74 -210 q-4 -14 -9 -17t-17 -3h-168q-16 0 -16 8q0 10 2 12zM244 1688q0 14 4 17t16 3h596q14 0 17 -3t3 -17v-88q0 -14 -3 -17t-17 -3h-596q-14 0 -17 3t-3 17v88v0z" />
<glyph unicode="&#x101;" horiz-adv-x="932" d="M640 302q0 32 -17 58t-45 45t-65 29t-79 10q-90 0 -144 -44t-54 -114q0 -72 52 -117t146 -45q42 0 80 16t66 41t44 57t16 64zM64 280q0 72 27 129t73 96t107 59t129 20q84 0 142 -24t86 -46q2 -2 8 -2q8 0 8 14v46q0 84 -50 129t-158 45q-80 0 -133 -23t-75 -41 q-6 -6 -14 -6t-8 16v122q0 14 16 24q38 26 99 41t131 15q116 0 187 -29t110 -75t53 -103t14 -113v-554q0 -12 -3 -16t-17 -4h-126q-14 0 -17 4t-3 16v68q0 4 -8 4q-6 0 -8 -2q-42 -52 -103 -81t-131 -29q-66 0 -126 19t-107 56t-75 93t-28 132zM146 1200q0 14 4 17t16 3h596 q14 0 17 -3t3 -17v-88q0 -14 -3 -17t-17 -3h-596q-14 0 -17 3t-3 17v88v0z" />
<glyph unicode="&#x102;" horiz-adv-x="1124" d="M568 886q-4 6 -12 6q-10 0 -12 -6l-152 -436q-2 -4 -2 -10q0 -2 -2 -2q0 -4 1 -6t11 -2h314q14 0 14 6q0 -2 -4 14zM550 1422q2 8 10 8t10 -8l520 -1402q2 -2 2 -12q0 -8 -16 -8h-174q-12 0 -17 3t-9 17l-80 210q-4 14 -8 17t-18 3h-428q-20 0 -26 -20l-74 -210 q-4 -14 -9 -17t-17 -3h-168q-16 0 -16 8q0 10 2 12zM562 1490q-60 0 -115 14t-97 47t-67 86t-25 131q0 12 3 16t17 4h104q20 0 20 -20q2 -86 49 -120t111 -34t111 34t49 120q0 20 20 20h104q14 0 17 -4t3 -16q0 -78 -25 -131t-67 -86t-97 -47t-115 -14z" />
<glyph unicode="&#x103;" horiz-adv-x="932" d="M640 302q0 32 -17 58t-45 45t-65 29t-79 10q-90 0 -144 -44t-54 -114q0 -72 52 -117t146 -45q42 0 80 16t66 41t44 57t16 64zM64 280q0 72 27 129t73 96t107 59t129 20q84 0 142 -24t86 -46q2 -2 8 -2q8 0 8 14v46q0 84 -50 129t-158 45q-80 0 -133 -23t-75 -41 q-6 -6 -14 -6t-8 16v122q0 14 16 24q38 26 99 41t131 15q116 0 187 -29t110 -75t53 -103t14 -113v-554q0 -12 -3 -16t-17 -4h-126q-14 0 -17 4t-3 16v68q0 4 -8 4q-6 0 -8 -2q-42 -52 -103 -81t-131 -29q-66 0 -126 19t-107 56t-75 93t-28 132zM504 1002q-60 0 -115 14 t-97 47t-67 86t-25 131q0 12 3 16t17 4h104q20 0 20 -20q2 -86 49 -120t111 -34t111 34t49 120q0 20 20 20h104q14 0 17 -4t3 -16q0 -78 -25 -131t-67 -86t-97 -47t-115 -14z" />
<glyph unicode="&#x104;" horiz-adv-x="1124" d="M568 886q-4 6 -12 6q-10 0 -12 -6l-152 -436q-2 -4 -2 -10q0 -2 -2 -2q0 -4 1 -6t11 -2h314q14 0 14 6q0 -2 -4 14zM550 1422q2 8 10 8t10 -8l520 -1402q2 -2 2 -12q0 -8 -16 -8h-174q-12 0 -17 3t-9 17l-80 210q-4 14 -8 17t-18 3h-428q-20 0 -26 -20l-74 -210 q-4 -14 -9 -17t-17 -3h-168q-16 0 -16 8q0 10 2 12zM781 -190q0 32 14 66t38 64t55 56t63 44l116 -20q-68 -28 -105 -79t-37 -105q0 -52 29 -82t97 -30q16 0 18 -3t2 -15v-86q0 -10 -3 -14t-17 -6t-22 -2h-24q-102 0 -163 58t-61 154z" />
<glyph unicode="&#x105;" horiz-adv-x="932" d="M640 302q0 32 -17 58t-45 45t-65 29t-79 10q-90 0 -144 -44t-54 -114q0 -72 52 -117t146 -45q42 0 80 16t66 41t44 57t16 64zM64 280q0 72 27 129t73 96t107 59t129 20q84 0 142 -24t86 -46q2 -2 8 -2q8 0 8 14v46q0 84 -50 129t-158 45q-80 0 -133 -23t-75 -41 q-6 -6 -14 -6t-8 16v122q0 14 16 24q38 26 99 41t131 15q116 0 187 -29t110 -75t53 -103t14 -113v-554q0 -12 -3 -16t-17 -4h-126q-14 0 -17 4t-3 16v68q0 4 -8 4q-6 0 -8 -2q-42 -52 -103 -81t-131 -29q-66 0 -126 19t-107 56t-75 93t-28 132zM522 -190q0 32 14 66t38 64 t55 56t63 44l116 -20q-68 -28 -105 -79t-37 -105q0 -52 29 -82t97 -30q16 0 18 -3t2 -15v-86q0 -10 -3 -14t-17 -6t-22 -2h-24q-102 0 -163 58t-61 154z" />
<glyph unicode="&#x106;" horiz-adv-x="1244" d="M812 -20q-168 0 -301 57t-226 156t-143 229t-50 278q0 146 50 277t143 230t226 156t301 57q90 0 169 -22t151 -58q16 -10 16 -20v-214q0 -14 -8 -14q-6 0 -10 4q-62 62 -141 96t-177 34q-124 0 -218 -44t-158 -118t-96 -168t-32 -196t32 -196t96 -168t158 -118t218 -44 q98 0 177 34t141 96q4 4 10 4q8 0 8 -14v-214q0 -10 -16 -20q-72 -36 -151 -58t-169 -22zM802 1768q10 12 15 16t17 4h192q14 0 17 -3t-9 -17l-242 -248q-12 -12 -18 -16t-18 -4h-142q-16 0 -14 5t10 15l192 248v0z" />
<glyph unicode="&#x107;" horiz-adv-x="824" d="M736 26q-46 -22 -106 -34t-112 -12q-98 0 -181 36t-144 97t-95 145t-34 180t34 179t95 145t144 97t181 35q52 0 110 -11t102 -31q10 -4 13 -8t3 -12v-164q0 -14 -8 -14q-2 0 -10 4q-34 34 -87 55t-119 21t-118 -23t-87 -62t-54 -94t-19 -117q0 -64 19 -119t54 -95t87 -62 t118 -22q140 0 214 84q2 2 8 2q8 0 8 -14v-166q0 -8 -3 -12t-13 -8zM574 1280q10 12 15 16t17 4h192q14 0 17 -3t-9 -17l-242 -248q-12 -12 -18 -16t-18 -4h-142q-16 0 -14 5t10 15l192 248v0z" />
<glyph unicode="&#x108;" horiz-adv-x="1244" d="M812 -20q-168 0 -301 57t-226 156t-143 229t-50 278q0 146 50 277t143 230t226 156t301 57q90 0 169 -22t151 -58q16 -10 16 -20v-214q0 -14 -8 -14q-6 0 -10 4q-62 62 -141 96t-177 34q-124 0 -218 -44t-158 -118t-96 -168t-32 -196t32 -196t96 -168t158 -118t218 -44 q98 0 177 34t141 96q4 4 10 4q8 0 8 -14v-214q0 -10 -16 -20q-72 -36 -151 -58t-169 -22zM628 1768q18 20 38 20h152q24 0 38 -20l216 -248q6 -10 6 -14q0 -6 -12 -6h-124q-14 0 -20 6l-14 14l-150 150q-4 4 -12 4t-12 -4l-146 -150l-14 -14t-20 -6h-128q-12 0 -12 6 q0 4 6 14l208 248v0z" />
<glyph unicode="&#x109;" horiz-adv-x="824" d="M736 26q-46 -22 -106 -34t-112 -12q-98 0 -181 36t-144 97t-95 145t-34 180t34 179t95 145t144 97t181 35q52 0 110 -11t102 -31q10 -4 13 -8t3 -12v-164q0 -14 -8 -14q-2 0 -10 4q-34 34 -87 55t-119 21t-118 -23t-87 -62t-54 -94t-19 -117q0 -64 19 -119t54 -95t87 -62 t118 -22q140 0 214 84q2 2 8 2q8 0 8 -14v-166q0 -8 -3 -12t-13 -8zM352 1280q18 20 38 20h152q24 0 38 -20l216 -248q6 -10 6 -14q0 -6 -12 -6h-124q-14 0 -20 6l-14 14l-150 150q-4 4 -12 4t-12 -4l-146 -150l-14 -14t-20 -6h-128q-12 0 -12 6q0 4 6 14l208 248v0z" />
<glyph unicode="&#x10a;" horiz-adv-x="1244" d="M812 -20q-168 0 -301 57t-226 156t-143 229t-50 278q0 146 50 277t143 230t226 156t301 57q90 0 169 -22t151 -58q16 -10 16 -20v-214q0 -14 -8 -14q-6 0 -10 4q-62 62 -141 96t-177 34q-124 0 -218 -44t-158 -118t-96 -168t-32 -196t32 -196t96 -168t158 -118t218 -44 q98 0 177 34t141 96q4 4 10 4q8 0 8 -14v-214q0 -10 -16 -20q-72 -36 -151 -58t-169 -22zM784 1518q-48 0 -86 36t-38 88t36 89t88 37t88 -38t36 -86q0 -50 -37 -88t-87 -38z" />
<glyph unicode="&#x10b;" horiz-adv-x="824" d="M736 26q-46 -22 -106 -34t-112 -12q-98 0 -181 36t-144 97t-95 145t-34 180t34 179t95 145t144 97t181 35q52 0 110 -11t102 -31q10 -4 13 -8t3 -12v-164q0 -14 -8 -14q-2 0 -10 4q-34 34 -87 55t-119 21t-118 -23t-87 -62t-54 -94t-19 -117q0 -64 19 -119t54 -95t87 -62 t118 -22q140 0 214 84q2 2 8 2q8 0 8 -14v-166q0 -8 -3 -12t-13 -8zM508 1032q-48 0 -86 36t-38 88t36 89t88 37t88 -38t36 -86q0 -50 -37 -88t-87 -38z" />
<glyph unicode="&#x10c;" horiz-adv-x="1244" d="M812 -20q-168 0 -301 57t-226 156t-143 229t-50 278q0 146 50 277t143 230t226 156t301 57q90 0 169 -22t151 -58q16 -10 16 -20v-214q0 -14 -8 -14q-6 0 -10 4q-62 62 -141 96t-177 34q-124 0 -218 -44t-158 -118t-96 -168t-32 -196t32 -196t96 -168t158 -118t218 -44 q98 0 177 34t141 96q4 4 10 4q8 0 8 -14v-214q0 -10 -16 -20q-72 -36 -151 -58t-169 -22zM864 1520q-14 -20 -38 -20h-152q-24 0 -38 20l-216 248q-6 8 -6 14t12 6h124q14 0 20 -6l14 -14l150 -150q4 -4 12 -4t12 4l146 150l14 14t20 6h128q12 0 12 -6t-6 -14l-208 -248v0z " />
<glyph unicode="&#x10d;" horiz-adv-x="824" d="M736 26q-46 -22 -106 -34t-112 -12q-98 0 -181 36t-144 97t-95 145t-34 180t34 179t95 145t144 97t181 35q52 0 110 -11t102 -31q10 -4 13 -8t3 -12v-164q0 -14 -8 -14q-2 0 -10 4q-34 34 -87 55t-119 21t-118 -23t-87 -62t-54 -94t-19 -117q0 -64 19 -119t54 -95t87 -62 t118 -22q140 0 214 84q2 2 8 2q8 0 8 -14v-166q0 -8 -3 -12t-13 -8zM588 1032q-14 -20 -38 -20h-152q-24 0 -38 20l-216 248q-6 8 -6 14t12 6h124q14 0 20 -6l14 -14l150 -150q4 -4 12 -4t12 4l146 150l14 14t20 6h128q12 0 12 -6t-6 -14l-208 -248v0z" />
<glyph unicode="&#x10e;" horiz-adv-x="1258" d="M492 1400q128 0 219 -25t161 -69q146 -90 220 -249t74 -357q0 -108 -25 -208t-74 -185t-121 -150t-168 -105q-62 -26 -143 -39t-161 -13h-308q-14 0 -17 3t-3 17v1360q0 14 3 17t17 3h326zM948 700q0 144 -44 261t-140 185q-50 36 -128 54t-162 18h-112q-14 0 -17 -3 t-3 -17v-996q0 -14 3 -17t17 -3h114q84 0 157 18t123 54q96 68 144 185t48 261zM616 1520q-14 -20 -38 -20h-152q-24 0 -38 20l-216 248q-6 8 -6 14t12 6h124q14 0 20 -6l14 -14l150 -150q4 -4 12 -4t12 4l146 150l14 14t20 6h128q12 0 12 -6t-6 -14l-208 -248v0z" />
<glyph unicode="&#x10f;" horiz-adv-x="1100" d="M796 438q0 60 -20 114t-56 95t-86 64t-112 23t-113 -23t-88 -64t-57 -95t-20 -114q0 -62 20 -116t57 -95t88 -64t113 -23t112 23t86 64t56 95t20 116zM796 1480q0 12 3 16t17 4h136q14 0 17 -4t3 -16v-1460q0 -12 -3 -16t-17 -4h-136q-14 0 -17 4t-3 16v80q0 4 -8 4 q-6 0 -8 -2q-52 -52 -121 -87t-161 -35q-94 0 -173 36t-137 99t-91 146t-33 177t33 177t91 145t137 98t173 36q92 0 160 -33t122 -89q2 -2 8 -2q8 0 8 4v706zM1072 1480q2 12 5 16t17 4h136q20 0 18 -20l-90 -306q-4 -12 -8 -16t-18 -4h-76q-12 0 -13 5t-1 15l30 306v0z" />
<glyph unicode="&#x110;" horiz-adv-x="1258" d="M492 1400q128 0 219 -25t161 -69q146 -90 220 -249t74 -357q0 -108 -25 -208t-74 -185t-121 -150t-168 -105q-62 -26 -143 -39t-161 -13h-308q-14 0 -17 3t-3 17v482q-4 12 -20 12h-84q-14 0 -17 3t-3 17v128q0 14 4 17t16 3h84q14 0 17 3t3 17v678q0 14 3 17t17 3h326z M948 700q0 144 -44 261t-140 185q-50 36 -128 54t-162 18h-112q-14 0 -17 -3t-3 -17v-496q0 -14 3 -17t17 -3h194q14 0 17 -3t3 -17v-128q0 -14 -3 -17t-17 -3h-194q-14 0 -17 -3t-3 -17v-292q0 -14 3 -17t17 -3h114q84 0 157 18t123 54q96 68 144 185t48 261z" />
<glyph unicode="&#x111;" horiz-adv-x="1100" d="M796 438q0 60 -20 114t-56 95t-86 64t-112 23t-113 -23t-88 -64t-57 -95t-20 -114q0 -62 20 -116t57 -95t88 -64t113 -23t112 23t86 64t56 95t20 116zM976 1216q0 -14 3 -17t17 -3h80q14 0 17 -4t3 -16v-96q0 -12 -3 -16t-17 -4h-80q-14 0 -17 -3t-3 -17v-1020 q0 -12 -3 -16t-17 -4h-140q-14 0 -17 4t-3 16v80q0 4 -8 4q-6 0 -8 -2q-58 -54 -124 -88t-158 -34q-94 0 -173 36t-137 99t-91 146t-33 177t33 177t91 145t137 98t173 36q92 0 158 -34t124 -88q2 -2 8 -2q8 0 8 4v266q0 14 -3 17t-17 3h-178q-14 0 -17 4t-3 16v96q0 12 3 16 t17 4h178q14 0 17 3t3 17v264q0 12 3 16t17 4h140q14 0 17 -4t3 -16v-264z" />
<glyph unicode="&#x112;" horiz-adv-x="1024" d="M146 1380q0 14 3 17t17 3h746q14 0 17 -3t3 -17v-144q0 -14 -3 -17t-17 -3h-550q-14 0 -17 -3t-3 -17v-494q0 -14 3 -17t17 -3h530q14 0 17 -3t3 -17v-142q0 -14 -3 -17t-17 -3h-530q-14 0 -17 -3t-3 -17v-276q0 -14 3 -17t17 -3h560q14 0 17 -3t3 -17v-144q0 -14 -3 -17 t-17 -3h-756q-14 0 -17 3t-3 17v1360v0zM234 1688q0 14 4 17t16 3h596q14 0 17 -3t3 -17v-88q0 -14 -3 -17t-17 -3h-596q-14 0 -17 3t-3 17v88v0z" />
<glyph unicode="&#x113;" horiz-adv-x="968" d="M260 344q10 -96 83 -150t193 -54q30 0 67 6t73 17t66 26t48 35l5 5t7 3q8 0 8 -20v-138q0 -8 -3 -14t-13 -14q-38 -28 -110 -47t-148 -19q-116 0 -203 36t-145 97t-87 145t-29 180q0 94 30 177t84 145t131 98t171 36q100 0 177 -37t128 -100t77 -145t26 -174v-56 q0 -12 -3 -16t-17 -4h-594q-14 0 -18 -3t-4 -15zM488 736q-100 0 -163 -62t-75 -152q0 -14 3 -17t17 -3h428q16 0 19 3t1 17q-10 90 -66 152t-164 62zM166 1200q0 14 4 17t16 3h596q14 0 17 -3t3 -17v-88q0 -14 -3 -17t-17 -3h-596q-14 0 -17 3t-3 17v88v0z" />
<glyph unicode="&#x114;" horiz-adv-x="1024" d="M146 1380q0 14 3 17t17 3h746q14 0 17 -3t3 -17v-144q0 -14 -3 -17t-17 -3h-550q-14 0 -17 -3t-3 -17v-494q0 -14 3 -17t17 -3h530q14 0 17 -3t3 -17v-142q0 -14 -3 -17t-17 -3h-530q-14 0 -17 -3t-3 -17v-276q0 -14 3 -17t17 -3h560q14 0 17 -3t3 -17v-144q0 -14 -3 -17 t-17 -3h-756q-14 0 -17 3t-3 17v1360v0zM532 1490q-60 0 -115 14t-97 47t-67 86t-25 131q0 12 3 16t17 4h104q20 0 20 -20q2 -86 49 -120t111 -34t111 34t49 120q0 20 20 20h104q14 0 17 -4t3 -16q0 -78 -25 -131t-67 -86t-97 -47t-115 -14z" />
<glyph unicode="&#x115;" horiz-adv-x="968" d="M260 344q10 -96 83 -150t193 -54q30 0 67 6t73 17t66 26t48 35l5 5t7 3q8 0 8 -20v-138q0 -8 -3 -14t-13 -14q-38 -28 -110 -47t-148 -19q-116 0 -203 36t-145 97t-87 145t-29 180q0 94 30 177t84 145t131 98t171 36q100 0 177 -37t128 -100t77 -145t26 -174v-56 q0 -12 -3 -16t-17 -4h-594q-14 0 -18 -3t-4 -15zM488 736q-100 0 -163 -62t-75 -152q0 -14 3 -17t17 -3h428q16 0 19 3t1 17q-10 90 -66 152t-164 62zM484 1002q-60 0 -115 14t-97 47t-67 86t-25 131q0 12 3 16t17 4h104q20 0 20 -20q2 -86 49 -120t111 -34t111 34t49 120 q0 20 20 20h104q14 0 17 -4t3 -16q0 -78 -25 -131t-67 -86t-97 -47t-115 -14z" />
<glyph unicode="&#x116;" horiz-adv-x="1024" d="M146 1380q0 14 3 17t17 3h746q14 0 17 -3t3 -17v-144q0 -14 -3 -17t-17 -3h-550q-14 0 -17 -3t-3 -17v-494q0 -14 3 -17t17 -3h530q14 0 17 -3t3 -17v-142q0 -14 -3 -17t-17 -3h-530q-14 0 -17 -3t-3 -17v-276q0 -14 3 -17t17 -3h560q14 0 17 -3t3 -17v-144q0 -14 -3 -17 t-17 -3h-756q-14 0 -17 3t-3 17v1360v0zM548 1518q-48 0 -86 36t-38 88t36 89t88 37t88 -38t36 -86q0 -50 -37 -88t-87 -38z" />
<glyph unicode="&#x117;" horiz-adv-x="968" d="M260 344q10 -96 83 -150t193 -54q30 0 67 6t73 17t66 26t48 35l5 5t7 3q8 0 8 -20v-138q0 -8 -3 -14t-13 -14q-38 -28 -110 -47t-148 -19q-116 0 -203 36t-145 97t-87 145t-29 180q0 94 30 177t84 145t131 98t171 36q100 0 177 -37t128 -100t77 -145t26 -174v-56 q0 -12 -3 -16t-17 -4h-594q-14 0 -18 -3t-4 -15zM488 736q-100 0 -163 -62t-75 -152q0 -14 3 -17t17 -3h428q16 0 19 3t1 17q-10 90 -66 152t-164 62zM494 1032q-48 0 -86 36t-38 88t36 89t88 37t88 -38t36 -86q0 -50 -37 -88t-87 -38z" />
<glyph unicode="&#x118;" horiz-adv-x="1024" d="M146 1380q0 14 3 17t17 3h746q14 0 17 -3t3 -17v-144q0 -14 -3 -17t-17 -3h-550q-14 0 -17 -3t-3 -17v-494q0 -14 3 -17t17 -3h530q14 0 17 -3t3 -17v-142q0 -14 -3 -17t-17 -3h-530q-14 0 -17 -3t-3 -17v-276q0 -14 3 -17t17 -3h560q14 0 17 -3t3 -17v-144q0 -14 -3 -17 t-17 -3h-756q-14 0 -17 3t-3 17v1360v0zM630 -190q0 32 14 66t38 64t55 56t63 44l116 -20q-68 -28 -105 -79t-37 -105q0 -52 29 -82t97 -30q16 0 18 -3t2 -15v-86q0 -10 -3 -14t-17 -6t-22 -2h-24q-102 0 -163 58t-61 154z" />
<glyph unicode="&#x119;" horiz-adv-x="968" d="M260 344q10 -96 83 -150t193 -54q30 0 67 6t73 17t66 26t48 35l5 5t7 3q8 0 8 -20v-138q0 -8 -3 -14t-13 -14q-38 -28 -110 -47t-148 -19q-116 0 -203 36t-145 97t-87 145t-29 180q0 94 30 177t84 145t131 98t171 36q100 0 177 -37t128 -100t77 -145t26 -174v-56 q0 -12 -3 -16t-17 -4h-594q-14 0 -18 -3t-4 -15zM488 736q-100 0 -163 -62t-75 -152q0 -14 3 -17t17 -3h428q16 0 19 3t1 17q-10 90 -66 152t-164 62zM412 -190q0 32 14 66t38 64t55 56t63 44l116 -20q-68 -28 -105 -79t-37 -105q0 -52 29 -82t97 -30q16 0 18 -3t2 -15v-86 q0 -10 -3 -14t-17 -6t-22 -2h-24q-102 0 -163 58t-61 154z" />
<glyph unicode="&#x11a;" horiz-adv-x="1024" d="M146 1380q0 14 3 17t17 3h746q14 0 17 -3t3 -17v-144q0 -14 -3 -17t-17 -3h-550q-14 0 -17 -3t-3 -17v-494q0 -14 3 -17t17 -3h530q14 0 17 -3t3 -17v-142q0 -14 -3 -17t-17 -3h-530q-14 0 -17 -3t-3 -17v-276q0 -14 3 -17t17 -3h560q14 0 17 -3t3 -17v-144q0 -14 -3 -17 t-17 -3h-756q-14 0 -17 3t-3 17v1360v0zM650 1520q-14 -20 -38 -20h-152q-24 0 -38 20l-216 248q-6 8 -6 14t12 6h124q14 0 20 -6l14 -14l150 -150q4 -4 12 -4t12 4l146 150l14 14t20 6h128q12 0 12 -6t-6 -14l-208 -248v0z" />
<glyph unicode="&#x11b;" horiz-adv-x="968" d="M260 344q10 -96 83 -150t193 -54q30 0 67 6t73 17t66 26t48 35l5 5t7 3q8 0 8 -20v-138q0 -8 -3 -14t-13 -14q-38 -28 -110 -47t-148 -19q-116 0 -203 36t-145 97t-87 145t-29 180q0 94 30 177t84 145t131 98t171 36q100 0 177 -37t128 -100t77 -145t26 -174v-56 q0 -12 -3 -16t-17 -4h-594q-14 0 -18 -3t-4 -15zM488 736q-100 0 -163 -62t-75 -152q0 -14 3 -17t17 -3h428q16 0 19 3t1 17q-10 90 -66 152t-164 62zM602 1032q-14 -20 -38 -20h-152q-24 0 -38 20l-216 248q-6 8 -6 14t12 6h124q14 0 20 -6l14 -14l150 -150q4 -4 12 -4 t12 4l146 150l14 14t20 6h128q12 0 12 -6t-6 -14l-208 -248v0z" />
<glyph unicode="&#x11c;" horiz-adv-x="1322" d="M812 1226q-126 0 -221 -43t-158 -115t-94 -168t-31 -200q0 -106 32 -203t96 -170t160 -117t224 -44q52 0 106 7t92 25q10 4 10 14v338q0 14 -3 17t-17 3h-262q-14 0 -17 3t-3 17v138q0 14 3 17t17 3h454q14 0 17 -3t3 -17v-626q0 -14 -12 -22q-34 -28 -80 -47t-97 -31 t-106 -17t-105 -5q-170 0 -305 57t-229 156t-144 229t-50 278q0 146 50 277t143 230t226 156t301 57q96 0 175 -20t151 -60q16 -10 16 -20v-214q0 -14 -8 -14q-6 0 -10 4q-62 62 -144 96t-180 34zM636 1768q18 20 38 20h152q24 0 38 -20l216 -248q6 -10 6 -14q0 -6 -12 -6 h-124q-14 0 -20 6l-14 14l-150 150q-4 4 -12 4t-12 -4l-146 -150l-14 -14t-20 -6h-128q-12 0 -12 6q0 4 6 14l208 248v0z" />
<glyph unicode="&#x11d;" horiz-adv-x="1096" d="M244 438q0 -62 20 -116t56 -95t86 -64t112 -23t113 23t88 64t57 95t20 116q0 60 -20 114t-57 95t-88 64t-113 23t-112 -23t-86 -64t-56 -95t-20 -114zM240 -380q-18 8 -18 24v148q0 20 8 20q2 0 12 -6q46 -32 114 -57t166 -25q144 0 209 71t65 233v72q0 4 -8 4 q-6 0 -8 -2q-52 -56 -121 -89t-161 -33q-94 0 -173 36t-137 99t-91 146t-33 177t33 177t91 145t137 98t173 36q92 0 161 -33t121 -89q2 -2 8 -2q8 0 8 4v80q0 12 3 16t17 4h136q14 0 17 -4t3 -16v-818q0 -230 -112 -351t-336 -121q-96 0 -168 17t-116 39zM442 1280 q18 20 38 20h152q24 0 38 -20l216 -248q6 -10 6 -14q0 -6 -12 -6h-124q-14 0 -20 6l-14 14l-150 150q-4 4 -12 4t-12 -4l-146 -150l-14 -14t-20 -6h-128q-12 0 -12 6q0 4 6 14l208 248v0z" />
<glyph unicode="&#x11e;" horiz-adv-x="1322" d="M812 1226q-126 0 -221 -43t-158 -115t-94 -168t-31 -200q0 -106 32 -203t96 -170t160 -117t224 -44q52 0 106 7t92 25q10 4 10 14v338q0 14 -3 17t-17 3h-262q-14 0 -17 3t-3 17v138q0 14 3 17t17 3h454q14 0 17 -3t3 -17v-626q0 -14 -12 -22q-34 -28 -80 -47t-97 -31 t-106 -17t-105 -5q-170 0 -305 57t-229 156t-144 229t-50 278q0 146 50 277t143 230t226 156t301 57q96 0 175 -20t151 -60q16 -10 16 -20v-214q0 -14 -8 -14q-6 0 -10 4q-62 62 -144 96t-180 34zM798 1494q-60 0 -115 14t-97 47t-67 86t-25 131q0 12 3 16t17 4h104 q20 0 20 -20q2 -86 49 -120t111 -34t111 34t49 120q0 20 20 20h104q14 0 17 -4t3 -16q0 -78 -25 -131t-67 -86t-97 -47t-115 -14z" />
<glyph unicode="&#x11f;" horiz-adv-x="1096" d="M244 438q0 -62 20 -116t56 -95t86 -64t112 -23t113 23t88 64t57 95t20 116q0 60 -20 114t-57 95t-88 64t-113 23t-112 -23t-86 -64t-56 -95t-20 -114zM240 -380q-18 8 -18 24v148q0 20 8 20q2 0 12 -6q46 -32 114 -57t166 -25q144 0 209 71t65 233v72q0 4 -8 4 q-6 0 -8 -2q-52 -56 -121 -89t-161 -33q-94 0 -173 36t-137 99t-91 146t-33 177t33 177t91 145t137 98t173 36q92 0 161 -33t121 -89q2 -2 8 -2q8 0 8 4v80q0 12 3 16t17 4h136q14 0 17 -4t3 -16v-818q0 -230 -112 -351t-336 -121q-96 0 -168 17t-116 39zM552 1002 q-60 0 -115 14t-97 47t-67 86t-25 131q0 12 3 16t17 4h104q20 0 20 -20q2 -86 49 -120t111 -34t111 34t49 120q0 20 20 20h104q14 0 17 -4t3 -16q0 -78 -25 -131t-67 -86t-97 -47t-115 -14z" />
<glyph unicode="&#x120;" horiz-adv-x="1322" d="M812 1226q-126 0 -221 -43t-158 -115t-94 -168t-31 -200q0 -106 32 -203t96 -170t160 -117t224 -44q52 0 106 7t92 25q10 4 10 14v338q0 14 -3 17t-17 3h-262q-14 0 -17 3t-3 17v138q0 14 3 17t17 3h454q14 0 17 -3t3 -17v-626q0 -14 -12 -22q-34 -28 -80 -47t-97 -31 t-106 -17t-105 -5q-170 0 -305 57t-229 156t-144 229t-50 278q0 146 50 277t143 230t226 156t301 57q96 0 175 -20t151 -60q16 -10 16 -20v-214q0 -14 -8 -14q-6 0 -10 4q-62 62 -144 96t-180 34zM784 1518q-48 0 -86 36t-38 88t36 89t88 37t88 -38t36 -86q0 -50 -37 -88 t-87 -38z" />
<glyph unicode="&#x121;" horiz-adv-x="1096" d="M244 438q0 -62 20 -116t56 -95t86 -64t112 -23t113 23t88 64t57 95t20 116q0 60 -20 114t-57 95t-88 64t-113 23t-112 -23t-86 -64t-56 -95t-20 -114zM240 -380q-18 8 -18 24v148q0 20 8 20q2 0 12 -6q46 -32 114 -57t166 -25q144 0 209 71t65 233v72q0 4 -8 4 q-6 0 -8 -2q-52 -56 -121 -89t-161 -33q-94 0 -173 36t-137 99t-91 146t-33 177t33 177t91 145t137 98t173 36q92 0 161 -33t121 -89q2 -2 8 -2q8 0 8 4v80q0 12 3 16t17 4h136q14 0 17 -4t3 -16v-818q0 -230 -112 -351t-336 -121q-96 0 -168 17t-116 39zM536 1032 q-48 0 -86 36t-38 88t36 89t88 37t88 -38t36 -86q0 -50 -37 -88t-87 -38z" />
<glyph unicode="&#x122;" horiz-adv-x="1322" d="M812 1226q-126 0 -221 -43t-158 -115t-94 -168t-31 -200q0 -106 32 -203t96 -170t160 -117t224 -44q52 0 106 7t92 25q10 4 10 14v338q0 14 -3 17t-17 3h-262q-14 0 -17 3t-3 17v138q0 14 3 17t17 3h454q14 0 17 -3t3 -17v-626q0 -14 -12 -22q-34 -28 -80 -47t-97 -31 t-106 -17t-105 -5q-170 0 -305 57t-229 156t-144 229t-50 278q0 146 50 277t143 230t226 156t301 57q96 0 175 -20t151 -60q16 -10 16 -20v-214q0 -14 -8 -14q-6 0 -10 4q-62 62 -144 96t-180 34zM652 -152q2 12 5 16t17 4h136q20 0 18 -20l-90 -306q-4 -12 -8 -16t-18 -4 h-76q-12 0 -13 5t-1 15l30 306v0z" />
<glyph unicode="&#x123;" horiz-adv-x="1096" d="M244 438q0 -62 20 -116t56 -95t86 -64t112 -23t113 23t88 64t57 95t20 116q0 60 -20 114t-57 95t-88 64t-113 23t-112 -23t-86 -64t-56 -95t-20 -114zM240 -380q-18 8 -18 24v148q0 20 8 20q2 0 12 -6q46 -32 114 -57t166 -25q144 0 209 71t65 233v72q0 4 -8 4 q-6 0 -8 -2q-52 -56 -121 -89t-161 -33q-94 0 -173 36t-137 99t-91 146t-33 177t33 177t91 145t137 98t173 36q92 0 161 -33t121 -89q2 -2 8 -2q8 0 8 4v80q0 12 3 16t17 4h136q14 0 17 -4t3 -16v-818q0 -230 -112 -351t-336 -121q-96 0 -168 17t-116 39zM630 1032 q-2 -12 -5 -16t-17 -4h-136q-20 0 -18 20l90 306q4 12 8 16t18 4h76q12 0 13 -5t1 -15l-30 -306v0z" />
<glyph unicode="&#x124;" horiz-adv-x="1184" d="M1038 20q0 -14 -3 -17t-17 -3h-156q-14 0 -17 3t-3 17v460q0 14 -3 17t-17 3h-460q-14 0 -17 -3t-3 -17v-460q0 -14 -3 -17t-17 -3h-156q-14 0 -17 3t-3 17v1360q0 14 3 17t17 3h156q14 0 17 -3t3 -17v-678q0 -14 3 -17t17 -3h460q14 0 17 3t3 17v678q0 14 3 17t17 3h156 q14 0 17 -3t3 -17v-1360v0zM474 1768q18 20 38 20h152q24 0 38 -20l216 -248q6 -10 6 -14q0 -6 -12 -6h-124q-14 0 -20 6l-14 14l-150 150q-4 4 -12 4t-12 -4l-146 -150l-14 -14t-20 -6h-128q-12 0 -12 6q0 4 6 14l208 248v0z" />
<glyph unicode="&#x125;" horiz-adv-x="1032" d="M916 20q0 -12 -3 -16t-17 -4h-136q-14 0 -17 4t-3 16v496q0 104 -47 161t-145 57q-102 0 -173 -67t-71 -189v-458q0 -12 -3 -16t-17 -4h-136q-14 0 -17 4t-3 16v1359q0 12 3 16t17 4h136q14 0 17 -4t3 -16v-605q0 -4 8 -4q6 0 8 2q52 56 111 89t151 33q90 0 154 -26 t104 -72t58 -107t18 -133v-536v0zM403 1766q18 20 38 20h152q24 0 38 -20l216 -248q6 -10 6 -14q0 -6 -12 -6h-124q-14 0 -20 6l-14 14l-150 150q-4 4 -12 4t-12 -4l-146 -150l-14 -14t-20 -6h-128q-12 0 -12 6q0 4 6 14l208 248v0z" />
<glyph unicode="&#x126;" horiz-adv-x="1184" d="M842 930q0 14 -3 17t-17 3h-460q-14 0 -17 -3t-3 -17v-228q0 -14 3 -17t17 -3h460q14 0 17 3t3 17v228zM1038 20q0 -14 -3 -17t-17 -3h-156q-14 0 -17 3t-3 17v460q0 14 -3 17t-17 3h-460q-14 0 -17 -3t-3 -17v-460q0 -14 -3 -17t-17 -3h-156q-14 0 -17 3t-3 17v910 q0 14 -3 17t-17 3h-80q-14 0 -17 4t-3 18v110q0 14 4 17t16 3h80q14 0 17 3t3 17v258q0 14 3 17t17 3h156q14 0 17 -3t3 -17v-258q0 -14 3 -17t17 -3h460q14 0 17 3t3 17v258q0 14 3 17t17 3h156q14 0 17 -3t3 -17v-258q0 -14 3 -17t17 -3h80q12 0 16 -3t4 -17v-110 q0 -14 -3 -18t-17 -4h-80q-14 0 -17 -3t-3 -17v-910z" />
<glyph unicode="&#x127;" horiz-adv-x="1032" d="M304 1216q0 -14 3 -17t17 -3h178q14 0 17 -4t3 -16v-96q0 -12 -3 -16t-17 -4h-178q-14 0 -17 -3t-3 -17v-266q0 -4 8 -4q6 0 8 2q28 26 56 49t58 39t66 25t82 9q90 0 154 -26t104 -72t58 -107t18 -133v-536q0 -12 -3 -16t-17 -4h-136q-14 0 -17 4t-3 16v496 q0 104 -47 161t-145 57q-102 0 -173 -67t-71 -189v-458q0 -12 -3 -16t-17 -4h-136q-14 0 -17 4t-3 16v1020q0 14 -3 17t-17 3h-74q-14 0 -17 4t-3 16v96q0 12 3 16t17 4h74q14 0 17 3t3 17v264q0 12 3 16t17 4h136q14 0 17 -4t3 -16v-264v0z" />
<glyph unicode="&#x128;" horiz-adv-x="484" d="M144 1380q0 14 3 17t17 3h156q14 0 17 -3t3 -17v-1360q0 -14 -3 -17t-17 -3h-156q-14 0 -17 3t-3 17v1360v0zM-58 1524q-14 0 -17 4t-3 16v28q0 80 48 138t138 58q62 0 99 -18t62 -41t46 -41t53 -18q28 0 48 18t20 52v22q0 12 3 16t17 4h88q14 0 17 -4t3 -16v-30 q0 -80 -44 -137t-134 -57q-64 0 -102 18t-64 41t-48 41t-54 18q-28 0 -48 -19t-20 -53v-20q0 -12 -3 -16t-17 -4h-88v0z" />
<glyph unicode="&#x129;" horiz-adv-x="448" d="M520 1218q0 -80 -41 -133t-131 -53q-58 0 -88 17t-50 37t-39 37t-51 17q-28 0 -50 -15t-22 -49v-20q0 -12 -3 -16t-17 -4h-80q-14 0 -17 4t-3 16v34q0 80 46 134t136 54q56 0 85 -17t49 -37l37 -37t49 -17q28 0 49 14t21 48v22q0 12 3 16t17 4h80q14 0 17 -4t3 -16v-36z M136 854q0 12 3 16t17 4h136q14 0 17 -4t3 -16v-834q0 -12 -3 -16t-17 -4h-136q-14 0 -17 4t-3 16v834v0z" />
<glyph unicode="&#x12a;" horiz-adv-x="484" d="M144 1380q0 14 3 17t17 3h156q14 0 17 -3t3 -17v-1360q0 -14 -3 -17t-17 -3h-156q-14 0 -17 3t-3 17v1360v0zM-74 1686q0 14 4 17t16 3h596q14 0 17 -3t3 -17v-88q0 -14 -3 -17t-17 -3h-596q-14 0 -17 3t-3 17v88v0z" />
<glyph unicode="&#x12b;" horiz-adv-x="448" d="M136 854q0 12 3 16t17 4h136q14 0 17 -4t3 -16v-834q0 -12 -3 -16t-17 -4h-136q-14 0 -17 4t-3 16v834v0zM-20 1200q0 14 4 17t16 3h448q14 0 17 -3t3 -17v-88q0 -14 -3 -17t-17 -3h-448q-14 0 -17 3t-3 17v88v0z" />
<glyph unicode="&#x12c;" horiz-adv-x="484" d="M144 1380q0 14 3 17t17 3h156q14 0 17 -3t3 -17v-1360q0 -14 -3 -17t-17 -3h-156q-14 0 -17 3t-3 17v1360v0zM244 1490q-60 0 -115 14t-97 47t-67 86t-25 131q0 12 3 16t17 4h104q20 0 20 -20q2 -86 49 -120t111 -34t111 34t49 120q0 20 20 20h104q14 0 17 -4t3 -16 q0 -78 -25 -131t-67 -86t-97 -47t-115 -14z" />
<glyph unicode="&#x12d;" horiz-adv-x="448" d="M136 854q0 12 3 16t17 4h136q14 0 17 -4t3 -16v-834q0 -12 -3 -16t-17 -4h-136q-14 0 -17 4t-3 16v834v0zM226 1002q-60 0 -111 14t-89 47t-59 86t-21 131q0 12 3 16t17 4h96q20 0 20 -20q2 -86 41 -120t103 -34t103 34t41 120q0 20 20 20h96q14 0 17 -4t3 -16 q0 -78 -21 -131t-59 -86t-89 -47t-111 -14z" />
<glyph unicode="&#x12e;" horiz-adv-x="484" d="M340 20q0 -16 -15 -20t-29 -12q-50 -28 -78 -69t-28 -103q0 -48 36 -81t88 -33q16 0 24 1t18 3q8 0 8 -8v-98q0 -16 -17 -19t-39 -3q-58 0 -104 19t-80 50t-52 73t-18 90q0 50 16 91t52 81q6 6 14 17t8 27v1354q0 14 3 17t17 3h156q14 0 17 -3t3 -17v-1360v0z" />
<glyph unicode="&#x12f;" horiz-adv-x="448" d="M136 854q0 12 3 16t17 4h136q14 0 17 -4t3 -16v-834q0 -12 -3 -16t-17 -4h-136q-14 0 -17 4t-3 16v834zM224 1058q-48 0 -86 36t-38 88t36 89t88 37t88 -38t36 -86q0 -50 -37 -88t-87 -38zM22 -190q0 32 14 66t38 64t55 56t63 44l116 -20q-68 -28 -105 -79t-37 -105 q0 -52 29 -82t97 -30q16 0 18 -3t2 -15v-86q0 -10 -3 -14t-17 -6t-22 -2h-24q-102 0 -163 58t-61 154z" />
<glyph unicode="&#x130;" horiz-adv-x="484" d="M242 1518q-48 0 -86 36t-38 88t36 89t88 37t88 -38t36 -86q0 -50 -37 -88t-87 -38zM144 1380q0 14 3 17t17 3h156q14 0 17 -3t3 -17v-1360q0 -14 -3 -17t-17 -3h-156q-14 0 -17 3t-3 17v1360v0z" />
<glyph unicode="&#x131;" horiz-adv-x="448" d="M136 854q0 12 3 16t17 4h136q14 0 17 -4t3 -16v-834q0 -12 -3 -16t-17 -4h-136q-14 0 -17 4t-3 16v834v0z" />
<glyph unicode="&#x132;" horiz-adv-x="1044" d="M144 1380q0 14 3 17t17 3h156q14 0 17 -3t3 -17v-1360q0 -14 -3 -17t-17 -3h-156q-14 0 -17 3t-3 17v1360v0zM704 1384q0 16 16 16h164q16 0 16 -16v-1116q0 -156 -61 -222t-187 -66q-30 0 -62 2t-62 8q-12 4 -16 7t-4 17v134q0 18 20 16q14 -4 36 -7t44 -3q54 0 75 31 t21 109v1090v0z" />
<glyph unicode="&#x133;" horiz-adv-x="860" d="M136 854q0 12 3 16t17 4h136q14 0 17 -4t3 -16v-834q0 -12 -3 -16t-17 -4h-136q-14 0 -17 4t-3 16v834zM224 1058q-48 0 -86 36t-38 88t36 89t88 37t88 -38t36 -86q0 -50 -37 -88t-87 -38zM736 -140q0 -156 -58 -228t-184 -72h-36t-26 2q-8 2 -14 2t-10 2q-12 4 -16 7 t-4 17v118q0 18 20 16q26 -6 50 -6q54 0 78 36t24 100v1000q0 12 3 16t17 4h136q14 0 17 -4t3 -16v-994zM650 1058q-48 0 -86 36t-38 88t36 89t88 37t88 -38t36 -86q0 -50 -37 -88t-87 -38z" />
<glyph unicode="&#x134;" horiz-adv-x="592" d="M252 1384q0 16 16 16h164q16 0 16 -16v-1116q0 -156 -61 -222t-187 -66q-30 0 -62 2t-62 8q-12 4 -16 7t-4 17v134q0 18 20 16q14 -4 36 -7t44 -3q54 0 75 31t21 109v1090v0zM226 1768q18 20 38 20h152q24 0 38 -20l216 -248q6 -10 6 -14q0 -6 -12 -6h-124q-14 0 -20 6 l-14 14l-150 150q-4 4 -12 4t-12 -4l-146 -150l-14 -14t-20 -6h-128q-12 0 -12 6q0 4 6 14l208 248v0z" />
<glyph unicode="&#x135;" horiz-adv-x="436" d="M312 -140q0 -156 -58 -228t-184 -72h-36t-26 2q-8 2 -14 2t-10 2q-12 4 -16 7t-4 17v118q0 18 20 16q26 -6 50 -6q54 0 78 36t24 100v1000q0 12 3 16t17 4h136q14 0 17 -4t3 -16v-994v0zM122 1282q18 20 38 20h120q24 0 38 -20l172 -250q6 -10 6 -14q0 -6 -12 -6h-114 q-14 0 -20 6l-14 14l-100 140q-4 4 -12 4t-12 -4l-96 -140l-14 -14t-20 -6h-118q-12 0 -12 6q0 4 6 14l164 250v0z" />
<glyph unicode="&#x136;" horiz-adv-x="1124" d="M342 20q0 -14 -3 -17t-17 -3h-156q-14 0 -17 3t-3 17v1360q0 14 3 17t17 3h156q14 0 17 -3t3 -17v-558q0 -14 12 -14t18 10l440 562q10 12 14 16t18 4h208q16 0 16 -6q0 -4 -8 -14l-488 -618q-4 -4 -4 -10t4 -10l510 -722l10 -16q0 -4 -18 -4h-208q-14 0 -17 3t-15 17 l-460 664q-6 8 -16 8q-16 0 -16 -14v-658v0zM488 -152q2 12 5 16t17 4h136q20 0 18 -20l-90 -306q-4 -12 -8 -16t-18 -4h-76q-12 0 -13 5t-1 15l30 306v0z" />
<glyph unicode="&#x137;" horiz-adv-x="878" d="M304 550q0 -14 12 -14t18 10l256 308q10 12 14 16t18 4h180q16 0 16 -6q0 -4 -8 -14l-308 -364q-4 -4 -4 -10t4 -10l334 -450l10 -16q0 -4 -18 -4h-180q-14 0 -17 3t-15 17l-280 392q-6 8 -16 8q-16 0 -16 -14v-386q0 -12 -3 -16t-17 -4h-136q-14 0 -17 4t-3 16v1460 q0 12 3 16t17 4h136q14 0 17 -4t3 -16v-930v0zM366 -152q2 12 5 16t17 4h136q20 0 18 -20l-90 -306q-4 -12 -8 -16t-18 -4h-76q-12 0 -13 5t-1 15l30 306v0z" />
<glyph unicode="&#x138;" horiz-adv-x="898" d="M304 530q0 -14 12 -14t18 10l284 328q10 12 14 16t18 4h180q16 0 16 -6q0 -4 -8 -14l-336 -384q-4 -4 -4 -10t4 -10l354 -430l10 -16q0 -4 -18 -4h-180q-14 0 -17 3t-15 17l-300 372q-6 8 -16 8q-16 0 -16 -14v-366q0 -12 -3 -16t-17 -4h-136q-14 0 -17 4t-3 16v834 q0 12 3 16t17 4h136q14 0 17 -4t3 -16v-324v0z" />
<glyph unicode="&#x139;" horiz-adv-x="904" d="M146 1380q0 14 3 17t17 3h152q14 0 17 -3t3 -17v-1176q0 -14 3 -17t17 -3h464q14 0 17 -3t3 -17v-144q0 -14 -3 -17t-17 -3h-656q-14 0 -17 3t-3 17v1360v0zM500 1768q10 12 15 16t17 4h192q14 0 17 -3t-9 -17l-242 -248q-12 -12 -18 -16t-18 -4h-142q-16 0 -14 5t10 15 l192 248v0z" />
<glyph unicode="&#x13a;" horiz-adv-x="448" d="M136 1380q0 12 3 16t17 4h136q14 0 17 -4t3 -16v-1360q0 -12 -3 -16t-17 -4h-136q-14 0 -17 4t-3 16v1360v0zM314 1766q10 12 15 16t17 4h192q14 0 17 -3t-9 -17l-242 -248q-12 -12 -18 -16t-18 -4h-142q-16 0 -14 5t10 15l192 248v0z" />
<glyph unicode="&#x13b;" horiz-adv-x="904" d="M146 1380q0 14 3 17t17 3h152q14 0 17 -3t3 -17v-1176q0 -14 3 -17t17 -3h464q14 0 17 -3t3 -17v-144q0 -14 -3 -17t-17 -3h-656q-14 0 -17 3t-3 17v1360v0zM378 -152q2 12 5 16t17 4h136q20 0 18 -20l-90 -306q-4 -12 -8 -16t-18 -4h-76q-12 0 -13 5t-1 15l30 306v0z " />
<glyph unicode="&#x13c;" horiz-adv-x="448" d="M136 1480q0 12 3 16t17 4h136q14 0 17 -4t3 -16v-1460q0 -12 -3 -16t-17 -4h-136q-14 0 -17 4t-3 16v1460v0zM156 -152q2 12 5 16t17 4h136q20 0 18 -20l-90 -306q-4 -12 -8 -16t-18 -4h-76q-12 0 -13 5t-1 15l30 306v0z" />
<glyph unicode="&#x13d;" horiz-adv-x="904" d="M172 1380q0 14 3 17t17 3h152q14 0 17 -3t3 -17v-1176q0 -14 3 -17t17 -3h464q14 0 17 -3t3 -17v-144q0 -14 -3 -17t-17 -3h-656q-14 0 -17 3t-3 17v1360v0zM552 1480q2 12 5 16t17 4h136q20 0 18 -20l-90 -306q-4 -12 -8 -16t-18 -4h-76q-12 0 -13 5t-1 15l30 306v0z " />
<glyph unicode="&#x13e;" horiz-adv-x="448" d="M136 1480q0 12 3 16t17 4h136q14 0 17 -4t3 -16v-1460q0 -12 -3 -16t-17 -4h-136q-14 0 -17 4t-3 16v1460v0zM412 1480q2 12 5 16t17 4h136q20 0 18 -20l-90 -306q-4 -12 -8 -16t-18 -4h-76q-12 0 -13 5t-1 15l30 306v0z" />
<glyph unicode="&#x13f;" horiz-adv-x="904" d="M146 1380q0 14 3 17t17 3h152q14 0 17 -3t3 -17v-1176q0 -14 3 -17t17 -3h464q14 0 17 -3t3 -17v-144q0 -14 -3 -17t-17 -3h-656q-14 0 -17 3t-3 17v1360v0zM146 1380q0 14 3 17t17 3h152q14 0 17 -3t3 -17v-1176q0 -14 3 -17t17 -3h464q14 0 17 -3t3 -17v-144 q0 -14 -3 -17t-17 -3h-656q-14 0 -17 3t-3 17v1360v0zM670 624q-42 0 -73 29t-31 75q0 44 30 74t74 30t74 -30t30 -72q0 -46 -30 -76t-74 -30z" />
<glyph unicode="&#x140;" horiz-adv-x="544" d="M496 624q-42 0 -73 29t-31 75q0 44 30 74t74 30t74 -30t30 -72q0 -46 -30 -76t-74 -30zM136 1480q0 12 3 16t17 4h136q14 0 17 -4t3 -16v-1460q0 -12 -3 -16t-17 -4h-136q-14 0 -17 4t-3 16v1460v0z" />
<glyph unicode="&#x141;" horiz-adv-x="904" d="M0 570q0 14 4 18t16 14l122 100v678q0 14 3 17t17 3h160q14 0 17 -3t3 -17v-546l152 120q8 6 14 6t6 -14v-136q0 -12 -3 -17t-17 -15l-152 -120v-454q0 -14 3 -17t17 -3h460q14 0 17 -3t3 -17v-144q0 -14 -3 -17t-17 -3h-660q-14 0 -17 3t-3 17v506l-122 -100 q-10 -8 -14 -8q-6 0 -6 16v136v0z" />
<glyph unicode="&#x142;" horiz-adv-x="496" d="M140 674q10 10 15 16t5 20v770q0 12 3 16t17 4h136q14 0 17 -4t3 -16v-666q0 -14 6 -14t8 2l110 86q8 6 14 6t6 -14v-128q0 -12 -3 -17t-17 -15l-104 -80q-10 -10 -15 -16t-5 -20v-584q0 -12 -3 -16t-17 -4h-136q-14 0 -17 4t-3 16v480q0 14 -6 14t-8 -2l-110 -84l-12 -4 q-8 0 -8 12v128q0 12 3 17t17 15z" />
<glyph unicode="&#x143;" horiz-adv-x="1180" d="M352 866q-6 6 -14 6q-16 0 -16 -12v-840q0 -14 -3 -17t-17 -3h-148q-14 0 -17 3t-3 17v1396q0 14 6 14t14 -10l674 -886q6 -6 14 -6q16 0 16 12v840q0 14 3 17t17 3h148q14 0 17 -3t3 -17v-1396q0 -14 -6 -14q-4 0 -14 10l-674 886v0zM654 1768q10 12 15 16t17 4h192 q14 0 17 -3t-9 -17l-242 -248q-12 -12 -18 -16t-18 -4h-142q-16 0 -14 5t10 15l192 248v0z" />
<glyph unicode="&#x144;" horiz-adv-x="1012" d="M896 20q0 -12 -3 -16t-17 -4h-136q-14 0 -17 4t-3 16v496q0 104 -41 161t-139 57q-102 0 -169 -67t-67 -189v-458q0 -12 -3 -16t-17 -4h-136q-14 0 -17 4t-3 16v834q0 14 3 17t17 3h136q14 0 17 -4t3 -16v-80q0 -4 8 -4q6 0 8 2q28 26 56 49t58 39t66 25t82 9 q90 0 151 -26t97 -72t51 -107t15 -133v-536v0zM598 1280q10 12 15 16t17 4h192q14 0 17 -3t-9 -17l-242 -248q-12 -12 -18 -16t-18 -4h-142q-16 0 -14 5t10 15l192 248v0z" />
<glyph unicode="&#x145;" horiz-adv-x="1180" d="M352 866q-6 6 -14 6q-16 0 -16 -12v-840q0 -14 -3 -17t-17 -3h-148q-14 0 -17 3t-3 17v1396q0 14 6 14t14 -10l674 -886q6 -6 14 -6q16 0 16 12v840q0 14 3 17t17 3h148q14 0 17 -3t3 -17v-1396q0 -14 -6 -14q-4 0 -14 10l-674 886v0zM532 -152q2 12 5 16t17 4h136 q20 0 18 -20l-90 -306q-4 -12 -8 -16t-18 -4h-76q-12 0 -13 5t-1 15l30 306v0z" />
<glyph unicode="&#x146;" horiz-adv-x="1012" d="M896 20q0 -12 -3 -16t-17 -4h-136q-14 0 -17 4t-3 16v496q0 104 -41 161t-139 57q-102 0 -169 -67t-67 -189v-458q0 -12 -3 -16t-17 -4h-136q-14 0 -17 4t-3 16v834q0 14 3 17t17 3h136q14 0 17 -4t3 -16v-80q0 -4 8 -4q6 0 8 2q28 26 56 49t58 39t66 25t82 9 q90 0 151 -26t97 -72t51 -107t15 -133v-536v0zM432 -152q2 12 5 16t17 4h136q20 0 18 -20l-90 -306q-4 -12 -8 -16t-18 -4h-76q-12 0 -13 5t-1 15l30 306v0z" />
<glyph unicode="&#x147;" horiz-adv-x="1180" d="M352 866q-6 6 -14 6q-16 0 -16 -12v-840q0 -14 -3 -17t-17 -3h-148q-14 0 -17 3t-3 17v1396q0 14 6 14t14 -10l674 -886q6 -6 14 -6q16 0 16 12v840q0 14 3 17t17 3h148q14 0 17 -3t3 -17v-1396q0 -14 -6 -14q-4 0 -14 10l-674 886v0zM722 1520q-14 -20 -38 -20h-152 q-24 0 -38 20l-216 248q-6 8 -6 14t12 6h124q14 0 20 -6l14 -14l150 -150q4 -4 12 -4t12 4l146 150l14 14t20 6h128q12 0 12 -6t-6 -14l-208 -248v0z" />
<glyph unicode="&#x148;" horiz-adv-x="1012" d="M896 20q0 -12 -3 -16t-17 -4h-136q-14 0 -17 4t-3 16v496q0 104 -41 161t-139 57q-102 0 -169 -67t-67 -189v-458q0 -12 -3 -16t-17 -4h-136q-14 0 -17 4t-3 16v834q0 14 3 17t17 3h136q14 0 17 -4t3 -16v-80q0 -4 8 -4q6 0 8 2q28 26 56 49t58 39t66 25t82 9 q90 0 151 -26t97 -72t51 -107t15 -133v-536v0zM620 1032q-14 -20 -38 -20h-152q-24 0 -38 20l-216 248q-6 8 -6 14t12 6h124q14 0 20 -6l14 -14l150 -150q4 -4 12 -4t12 4l146 150l14 14t20 6h128q12 0 12 -6t-6 -14l-208 -248v0z" />
<glyph unicode="&#x149;" horiz-adv-x="1264" d="M1148 20q0 -12 -3 -16t-17 -4h-136q-14 0 -17 4t-3 16v496q0 104 -41 161t-139 57q-102 0 -169 -67t-67 -189v-458q0 -12 -3 -16t-17 -4h-136q-14 0 -17 4t-3 16v834q0 14 3 17t17 3h136q14 0 17 -4t3 -16v-80q0 -4 8 -4q6 0 8 2q28 26 56 49t58 39t66 25t82 9 q90 0 151 -26t97 -72t51 -107t15 -133v-536v0zM120 1380q2 12 5 16t17 4h156q20 0 18 -20l-114 -392q-4 -12 -7 -16t-17 -4h-86q-12 0 -14 5t-2 15l44 392v0z" />
<glyph unicode="&#x14a;" horiz-adv-x="1180" d="M352 866q-6 6 -14 6q-16 0 -16 -12v-840q0 -14 -3 -17t-17 -3h-148q-14 0 -17 3t-3 17v1396q0 14 6 14t14 -10l674 -886q6 -6 14 -6q16 0 16 12l-2 840q0 14 3 17t17 3h148q14 0 17 -3t3 -17v-1400q0 -142 -97 -206t-253 -64q-12 0 -16 3t-4 17v150q0 14 4 17t16 3 q54 0 86 9t49 32t22 62t5 97v90q0 10 -7 20t-15 20z" />
<glyph unicode="&#x14b;" horiz-adv-x="1010" d="M718 516q0 104 -41 161t-139 57q-102 0 -169 -67t-67 -189v-458q0 -12 -3 -16t-17 -4h-136q-14 0 -17 4t-3 16v834q0 14 3 17t17 3h136q14 0 17 -4t3 -16v-80q0 -4 8 -4q6 0 8 2q28 26 56 49t58 39t66 25t82 9q90 0 150 -26t97 -72t52 -107t15 -133v-682q0 -156 -56 -228 t-182 -72h-34t-24 2q-4 2 -9 2t-9 2q-12 4 -16 7t-4 17v118q0 18 20 16q2 -2 12 -2q6 -2 24 -2q26 0 45 3t32 17t19 41t6 73v648v0z" />
<glyph unicode="&#x14c;" horiz-adv-x="1584" d="M1492 700q0 -148 -54 -278t-149 -229t-223 -156t-274 -57q-148 0 -275 57t-222 156t-149 229t-54 278q0 146 54 277t149 230t222 156t275 57q146 0 274 -57t223 -156t149 -230t54 -277zM308 700q0 -106 36 -202t100 -168t153 -114t195 -42t195 42t153 114t100 168t36 202 t-36 202t-100 168t-153 114t-195 42t-195 -42t-153 -114t-100 -168t-36 -202zM474 1688q0 14 4 17t16 3h596q14 0 17 -3t3 -17v-88q0 -14 -3 -17t-17 -3h-596q-14 0 -17 3t-3 17v88v0z" />
<glyph unicode="&#x14d;" horiz-adv-x="1038" d="M64 438q0 94 36 177t98 145t145 98t177 36t177 -36t144 -98t97 -145t36 -177t-36 -177t-97 -146t-144 -99t-177 -36t-177 36t-145 99t-98 146t-36 177zM244 438q0 -62 20 -116t56 -95t87 -64t113 -23t113 23t87 64t55 95t19 116q0 60 -19 114t-55 95t-87 64t-113 23 t-113 -23t-87 -64t-56 -95t-20 -114zM202 1200q0 14 4 17t16 3h596q14 0 17 -3t3 -17v-88q0 -14 -3 -17t-17 -3h-596q-14 0 -17 3t-3 17v88v0z" />
<glyph unicode="&#x14e;" horiz-adv-x="1584" d="M1492 700q0 -148 -54 -278t-149 -229t-223 -156t-274 -57q-148 0 -275 57t-222 156t-149 229t-54 278q0 146 54 277t149 230t222 156t275 57q146 0 274 -57t223 -156t149 -230t54 -277zM308 700q0 -106 36 -202t100 -168t153 -114t195 -42t195 42t153 114t100 168t36 202 t-36 202t-100 168t-153 114t-195 42t-195 -42t-153 -114t-100 -168t-36 -202zM782 1490q-60 0 -115 14t-97 47t-67 86t-25 131q0 12 3 16t17 4h104q20 0 20 -20q2 -86 49 -120t111 -34t111 34t49 120q0 20 20 20h104q14 0 17 -4t3 -16q0 -78 -25 -131t-67 -86t-97 -47 t-115 -14z" />
<glyph unicode="&#x14f;" horiz-adv-x="1038" d="M64 438q0 94 36 177t98 145t145 98t177 36t177 -36t144 -98t97 -145t36 -177t-36 -177t-97 -146t-144 -99t-177 -36t-177 36t-145 99t-98 146t-36 177zM244 438q0 -62 20 -116t56 -95t87 -64t113 -23t113 23t87 64t55 95t19 116q0 60 -19 114t-55 95t-87 64t-113 23 t-113 -23t-87 -64t-56 -95t-20 -114zM520 1002q-60 0 -115 14t-97 47t-67 86t-25 131q0 12 3 16t17 4h104q20 0 20 -20q2 -86 49 -120t111 -34t111 34t49 120q0 20 20 20h104q14 0 17 -4t3 -16q0 -78 -25 -131t-67 -86t-97 -47t-115 -14z" />
<glyph unicode="&#x150;" horiz-adv-x="1584" d="M1492 700q0 -148 -54 -278t-149 -229t-223 -156t-274 -57q-148 0 -275 57t-222 156t-149 229t-54 278q0 146 54 277t149 230t222 156t275 57q146 0 274 -57t223 -156t149 -230t54 -277zM308 700q0 -106 36 -202t100 -168t153 -114t195 -42t195 42t153 114t100 168t36 202 t-36 202t-100 168t-153 114t-195 42t-195 -42t-153 -114t-100 -168t-36 -202zM714 1768q10 12 15 16t17 4h174q20 0 20 -4t-12 -16l-234 -248q-12 -12 -18 -16t-18 -4h-132q-14 0 -14 4l10 16zM1074 1768q10 12 15 16t17 4h174q20 0 20 -4t-12 -16l-234 -248 q-12 -12 -18 -16t-18 -4h-132q-14 0 -14 4l10 16z" />
<glyph unicode="&#x151;" horiz-adv-x="1038" d="M64 438q0 94 36 177t98 145t145 98t177 36t177 -36t144 -98t97 -145t36 -177t-36 -177t-97 -146t-144 -99t-177 -36t-177 36t-145 99t-98 146t-36 177zM244 438q0 -62 20 -116t56 -95t87 -64t113 -23t113 23t87 64t55 95t19 116q0 60 -19 114t-55 95t-87 64t-113 23 t-113 -23t-87 -64t-56 -95t-20 -114zM448 1280q10 12 15 16t17 4h174q20 0 20 -4t-12 -16l-234 -248q-12 -12 -18 -16t-18 -4h-132q-14 0 -14 4l10 16zM808 1280q10 12 15 16t17 4h174q20 0 20 -4t-12 -16l-234 -248q-12 -12 -18 -16t-18 -4h-132q-14 0 -14 4l10 16z" />
<glyph unicode="&#x152;" horiz-adv-x="1578" d="M1466 1400q14 0 17 -3t3 -17v-140q0 -14 -3 -17t-17 -3h-494q-14 0 -17 -3t-3 -17v-500q0 -14 3 -17t17 -3h484q14 0 17 -3t3 -17v-140q0 -14 -3 -17t-17 -3h-484q-14 0 -17 -3t-3 -17v-280q0 -14 3 -17t17 -3h504q14 0 17 -3t3 -17v-140q0 -14 -3 -17t-17 -3h-714 q-148 0 -271 54t-211 149t-138 222t-50 275q0 146 47 274t134 223t207 149t268 54h718zM736 180q14 0 17 3t3 17v1000q0 14 -3 17t-17 3q-106 0 -188 -42t-138 -113t-85 -166t-29 -199q0 -106 29 -200t85 -165t138 -113t188 -42z" />
<glyph unicode="&#x153;" horiz-adv-x="1690" d="M982 340q10 -96 83 -148t193 -52q30 0 67 6t73 17t66 26t48 35l5 5t7 3q8 0 8 -20v-146q0 -8 -3 -10t-13 -10q-38 -28 -110 -47t-148 -19q-132 0 -227 48t-153 128q-64 -80 -157 -128t-201 -48q-94 0 -177 36t-145 99t-98 146t-36 177t36 177t98 145t145 98t177 36 q108 0 201 -48t155 -128q56 80 141 128t193 48q102 0 179 -36t128 -98t76 -145t25 -177v-60q0 -12 -3 -16t-17 -4h-594q-14 0 -18 -3t-4 -15zM244 438q0 -62 20 -116t56 -95t87 -64t113 -23t113 23t87 64t55 95t19 116t-20 117t-56 94t-87 62t-111 23q-62 0 -113 -23 t-87 -64t-56 -95t-20 -114zM1210 734q-98 0 -163 -59t-75 -149q0 -14 3 -17t17 -3h428q16 0 19 3t1 17q-10 90 -66 149t-164 59z" />
<glyph unicode="&#x154;" horiz-adv-x="1090" d="M500 748q132 0 192 63t60 177q0 120 -70 178t-190 58h-134q-14 0 -17 -3t-3 -17v-436q0 -14 3 -17t17 -3h142zM338 20q0 -14 -3 -17t-17 -3h-150q-14 0 -19 3t-5 17v1360q0 14 3 17t17 3h318q228 0 346 -98q68 -56 98 -137t30 -177q0 -152 -88 -255t-250 -135 q-8 -2 -8 -8q0 -4 4 -8l434 -562l10 -16q0 -4 -18 -4h-200q-14 0 -17 3t-15 17l-446 584q-10 12 -16 12q-8 0 -8 -18v-578zM526 1768q10 12 15 16t17 4h192q14 0 17 -3t-9 -17l-242 -248q-12 -12 -18 -16t-18 -4h-142q-16 0 -14 5t10 15l192 248v0z" />
<glyph unicode="&#x155;" horiz-adv-x="638" d="M148 0q-14 0 -17 4t-3 16v834q0 12 3 16t17 4h136q14 0 17 -4t3 -16v-106q0 -4 8 -4q6 0 8 2q14 26 41 53t61 48t75 34t85 13q14 0 17 -4t3 -16v-144q0 -22 -10 -22q-6 0 -19 2t-35 2q-114 0 -174 -92t-60 -254v-346q0 -12 -3 -16t-17 -4h-136v0zM340 1280q10 12 15 16 t17 4h192q14 0 17 -3t-9 -17l-242 -248q-12 -12 -18 -16t-18 -4h-142q-16 0 -14 5t10 15l192 248v0z" />
<glyph unicode="&#x156;" horiz-adv-x="1090" d="M500 748q132 0 192 63t60 177q0 120 -70 178t-190 58h-134q-14 0 -17 -3t-3 -17v-436q0 -14 3 -17t17 -3h142zM338 20q0 -14 -3 -17t-17 -3h-150q-14 0 -19 3t-5 17v1360q0 14 3 17t17 3h318q228 0 346 -98q68 -56 98 -137t30 -177q0 -152 -88 -255t-250 -135 q-8 -2 -8 -8q0 -4 4 -8l434 -562l10 -16q0 -4 -18 -4h-200q-14 0 -17 3t-15 17l-446 584q-10 12 -16 12q-8 0 -8 -18v-578zM476 -152q2 12 5 16t17 4h136q20 0 18 -20l-90 -306q-4 -12 -8 -16t-18 -4h-76q-12 0 -13 5t-1 15l30 306v0z" />
<glyph unicode="&#x157;" horiz-adv-x="638" d="M148 0q-14 0 -17 4t-3 16v834q0 12 3 16t17 4h136q14 0 17 -4t3 -16v-106q0 -4 8 -4q6 0 8 2q14 26 41 53t61 48t75 34t85 13q14 0 17 -4t3 -16v-144q0 -22 -10 -22q-6 0 -19 2t-35 2q-114 0 -174 -92t-60 -254v-346q0 -12 -3 -16t-17 -4h-136v0zM150 -152q2 12 5 16 t17 4h136q20 0 18 -20l-90 -306q-4 -12 -8 -16t-18 -4h-76q-12 0 -13 5t-1 15l30 306v0z" />
<glyph unicode="&#x158;" horiz-adv-x="1090" d="M500 748q132 0 192 63t60 177q0 120 -70 178t-190 58h-134q-14 0 -17 -3t-3 -17v-436q0 -14 3 -17t17 -3h142zM338 20q0 -14 -3 -17t-17 -3h-150q-14 0 -19 3t-5 17v1360q0 14 3 17t17 3h318q228 0 346 -98q68 -56 98 -137t30 -177q0 -152 -88 -255t-250 -135 q-8 -2 -8 -8q0 -4 4 -8l434 -562l10 -16q0 -4 -18 -4h-200q-14 0 -17 3t-15 17l-446 584q-10 12 -16 12q-8 0 -8 -18v-578zM608 1520q-14 -20 -38 -20h-152q-24 0 -38 20l-216 248q-6 8 -6 14t12 6h124q14 0 20 -6l14 -14l150 -150q4 -4 12 -4t12 4l146 150l14 14t20 6h128 q12 0 12 -6t-6 -14l-208 -248v0z" />
<glyph unicode="&#x159;" horiz-adv-x="638" d="M148 0q-14 0 -17 4t-3 16v834q0 12 3 16t17 4h136q14 0 17 -4t3 -16v-106q0 -4 8 -4q6 0 8 2q14 26 41 53t61 48t75 34t85 13q14 0 17 -4t3 -16v-144q0 -22 -10 -22q-6 0 -19 2t-35 2q-114 0 -174 -92t-60 -254v-346q0 -12 -3 -16t-17 -4h-136v0zM442 1032 q-14 -20 -38 -20h-152q-24 0 -38 20l-216 248q-6 8 -6 14t12 6h124q14 0 20 -6l14 -14l150 -150q4 -4 12 -4t12 4l146 150l14 14t20 6h128q12 0 12 -6t-6 -14l-208 -248v0z" />
<glyph unicode="&#x15a;" horiz-adv-x="1006" d="M504 -20q-62 0 -124 16t-117 47t-101 74t-76 97q-6 8 -6 14t10 16l110 110q10 10 14 10t14 -12q64 -106 132 -145t152 -39q102 0 157 58t55 136q0 74 -44 126t-110 95t-143 85t-143 95t-110 124t-44 173q0 74 28 140t78 115t121 77t157 28q116 0 204 -42t152 -132 q6 -10 6 -14q0 -6 -10 -16l-98 -98q-10 -10 -14 -10q-6 0 -14 12q-34 56 -89 86t-133 30q-90 0 -135 -50t-45 -126q0 -64 44 -110t110 -86t144 -82t144 -97t110 -130t44 -183q0 -88 -29 -160t-84 -123t-135 -80t-182 -29zM586 1768q10 12 15 16t17 4h192q14 0 17 -3t-9 -17 l-242 -248q-12 -12 -18 -16t-18 -4h-142q-16 0 -14 5t10 15l192 248v0z" />
<glyph unicode="&#x15b;" horiz-adv-x="752" d="M536 668q-52 78 -152 78q-56 0 -87 -29t-31 -71q0 -44 31 -70t77 -47t100 -41t100 -51t77 -79t31 -122q0 -46 -17 -91t-54 -82t-95 -60t-140 -23q-108 0 -182 39t-126 109q-4 8 -4 14q0 8 8 16l82 82q8 8 14 8t14 -10q44 -60 91 -84t107 -24q64 0 97 29t33 73 q0 40 -31 65t-76 45t-99 41t-99 52t-76 79t-31 122q0 52 19 99t55 82t88 56t118 21q84 0 153 -28t115 -92q4 -8 4 -14q0 -8 -8 -16l-78 -78q-8 -8 -14 -8t-14 10zM466 1280q10 12 15 16t17 4h192q14 0 17 -3t-9 -17l-242 -248q-12 -12 -18 -16t-18 -4h-142q-16 0 -14 5 t10 15l192 248v0z" />
<glyph unicode="&#x15c;" horiz-adv-x="1006" d="M504 -20q-62 0 -124 16t-117 47t-101 74t-76 97q-6 8 -6 14t10 16l110 110q10 10 14 10t14 -12q64 -106 132 -145t152 -39q102 0 157 58t55 136q0 74 -44 126t-110 95t-143 85t-143 95t-110 124t-44 173q0 74 28 140t78 115t121 77t157 28q116 0 204 -42t152 -132 q6 -10 6 -14q0 -6 -10 -16l-98 -98q-10 -10 -14 -10q-6 0 -14 12q-34 56 -89 86t-133 30q-90 0 -135 -50t-45 -126q0 -64 44 -110t110 -86t144 -82t144 -97t110 -130t44 -183q0 -88 -29 -160t-84 -123t-135 -80t-182 -29zM386 1768q18 20 38 20h152q24 0 38 -20l216 -248 q6 -10 6 -14q0 -6 -12 -6h-124q-14 0 -20 6l-14 14l-150 150q-4 4 -12 4t-12 -4l-146 -150l-14 -14t-20 -6h-128q-12 0 -12 6q0 4 6 14l208 248v0z" />
<glyph unicode="&#x15d;" horiz-adv-x="752" d="M536 668q-52 78 -152 78q-56 0 -87 -29t-31 -71q0 -44 31 -70t77 -47t100 -41t100 -51t77 -79t31 -122q0 -46 -17 -91t-54 -82t-95 -60t-140 -23q-108 0 -182 39t-126 109q-4 8 -4 14q0 8 8 16l82 82q8 8 14 8t14 -10q44 -60 91 -84t107 -24q64 0 97 29t33 73 q0 40 -31 65t-76 45t-99 41t-99 52t-76 79t-31 122q0 52 19 99t55 82t88 56t118 21q84 0 153 -28t115 -92q4 -8 4 -14q0 -8 -8 -16l-78 -78q-8 -8 -14 -8t-14 10zM254 1280q18 20 38 20h152q24 0 38 -20l216 -248q6 -10 6 -14q0 -6 -12 -6h-124q-14 0 -20 6l-14 14l-150 150 q-4 4 -12 4t-12 -4l-146 -150l-14 -14t-20 -6h-128q-12 0 -12 6q0 4 6 14l208 248v0z" />
<glyph unicode="&#x15e;" horiz-adv-x="1006" d="M504 -20q-62 0 -124 16t-117 47t-101 74t-76 97q-6 8 -6 14t10 16l110 110q10 10 14 10t14 -12q64 -106 132 -145t152 -39q102 0 157 58t55 136q0 74 -44 126t-110 95t-143 85t-143 95t-110 124t-44 173q0 74 28 140t78 115t121 77t157 28q116 0 204 -42t152 -132 q6 -10 6 -14q0 -6 -10 -16l-98 -98q-10 -10 -14 -10q-6 0 -14 12q-34 56 -89 86t-133 30q-90 0 -135 -50t-45 -126q0 -64 44 -110t110 -86t144 -82t144 -97t110 -130t44 -183q0 -88 -29 -160t-84 -123t-135 -80t-182 -29zM676 -194q0 -46 -16 -88t-46 -73t-71 -49t-89 -18 q-38 0 -76 7t-72 31q-12 10 -10 24l16 86q4 22 22 10q24 -16 47 -24t53 -8q40 0 69 25t29 81q0 46 -35 71t-89 25h-18t-24 -2q-14 -2 -18 3t0 25l16 86h56q44 0 90 -13t83 -40t60 -66t23 -93z" />
<glyph unicode="&#x15f;" horiz-adv-x="752" d="M536 668q-52 78 -152 78q-56 0 -87 -29t-31 -71q0 -44 31 -70t77 -47t100 -41t100 -51t77 -79t31 -122q0 -46 -17 -91t-54 -82t-95 -60t-140 -23q-108 0 -182 39t-126 109q-4 8 -4 14q0 8 8 16l82 82q8 8 14 8t14 -10q44 -60 91 -84t107 -24q64 0 97 29t33 73 q0 40 -31 65t-76 45t-99 41t-99 52t-76 79t-31 122q0 52 19 99t55 82t88 56t118 21q84 0 153 -28t115 -92q4 -8 4 -14q0 -8 -8 -16l-78 -78q-8 -8 -14 -8t-14 10zM572 -194q0 -46 -16 -88t-46 -73t-71 -49t-89 -18q-38 0 -76 7t-72 31q-12 10 -10 24l16 86q4 22 22 10 q24 -16 47 -24t53 -8q40 0 69 25t29 81q0 46 -35 71t-89 25h-18t-24 -2q-14 -2 -18 3t0 25l16 86h56q44 0 90 -13t83 -40t60 -66t23 -93z" />
<glyph unicode="&#x160;" horiz-adv-x="1006" d="M504 -20q-62 0 -124 16t-117 47t-101 74t-76 97q-6 8 -6 14t10 16l110 110q10 10 14 10t14 -12q64 -106 132 -145t152 -39q102 0 157 58t55 136q0 74 -44 126t-110 95t-143 85t-143 95t-110 124t-44 173q0 74 28 140t78 115t121 77t157 28q116 0 204 -42t152 -132 q6 -10 6 -14q0 -6 -10 -16l-98 -98q-10 -10 -14 -10q-6 0 -14 12q-34 56 -89 86t-133 30q-90 0 -135 -50t-45 -126q0 -64 44 -110t110 -86t144 -82t144 -97t110 -130t44 -183q0 -88 -29 -160t-84 -123t-135 -80t-182 -29zM625 1520q-14 -20 -38 -20h-152q-24 0 -38 20 l-216 248q-6 8 -6 14t12 6h124q14 0 20 -6l14 -14l150 -150q4 -4 12 -4t12 4l146 150l14 14t20 6h128q12 0 12 -6t-6 -14l-208 -248v0z" />
<glyph unicode="&#x161;" horiz-adv-x="752" d="M536 668q-52 78 -152 78q-56 0 -87 -29t-31 -71q0 -44 31 -70t77 -47t100 -41t100 -51t77 -79t31 -122q0 -46 -17 -91t-54 -82t-95 -60t-140 -23q-108 0 -182 39t-126 109q-4 8 -4 14q0 8 8 16l82 82q8 8 14 8t14 -10q44 -60 91 -84t107 -24q64 0 97 29t33 73 q0 40 -31 65t-76 45t-99 41t-99 52t-76 79t-31 122q0 52 19 99t55 82t88 56t118 21q84 0 153 -28t115 -92q4 -8 4 -14q0 -8 -8 -16l-78 -78q-8 -8 -14 -8t-14 10zM490 1032q-14 -20 -38 -20h-152q-24 0 -38 20l-216 248q-6 8 -6 14t12 6h124q14 0 20 -6l14 -14l150 -150 q4 -4 12 -4t12 4l146 150l14 14t20 6h128q12 0 12 -6t-6 -14l-208 -248v0z" />
<glyph unicode="&#x162;" horiz-adv-x="924" d="M52 1380q0 14 3 17t17 3h780q14 0 17 -3t3 -17v-144q0 -14 -3 -17t-17 -3h-272q-14 0 -17 -3t-3 -17v-1176q0 -14 -3 -17t-17 -3h-156q-14 0 -17 3t-3 17v1176q0 14 -3 17t-17 3h-272q-14 0 -17 3t-3 17v144v0zM388 -152q2 12 5 16t17 4h136q20 0 18 -20l-90 -306 q-4 -12 -8 -16t-18 -4h-76q-12 0 -13 5t-1 15l30 306v0z" />
<glyph unicode="&#x163;" horiz-adv-x="528" d="M68 718q-14 0 -17 4t-3 16v116q0 12 3 16t17 4h80q14 0 17 3t3 17v266q0 20 20 32l130 80q4 2 7 4t7 2q10 0 10 -16v-368q0 -14 3 -17t17 -3h122q14 0 17 -4t3 -16v-116q0 -12 -3 -16t-17 -4h-122q-14 0 -17 -3t-3 -17v-678q0 -12 -3 -16t-17 -4h-134q-14 0 -17 4t-3 16 v678q0 14 -3 17t-17 3h-80v0zM188 -152q2 12 5 16t17 4h136q20 0 18 -20l-90 -306q-4 -12 -8 -16t-18 -4h-76q-12 0 -13 5t-1 15l30 306v0z" />
<glyph unicode="&#x164;" horiz-adv-x="924" d="M52 1380q0 14 3 17t17 3h780q14 0 17 -3t3 -17v-144q0 -14 -3 -17t-17 -3h-272q-14 0 -17 -3t-3 -17v-1176q0 -14 -3 -17t-17 -3h-156q-14 0 -17 3t-3 17v1176q0 14 -3 17t-17 3h-272q-14 0 -17 3t-3 17v144v0zM580 1520q-14 -20 -38 -20h-152q-24 0 -38 20l-216 248 q-6 8 -6 14t12 6h124q14 0 20 -6l14 -14l150 -150q4 -4 12 -4t12 4l146 150l14 14t20 6h128q12 0 12 -6t-6 -14l-208 -248v0z" />
<glyph unicode="&#x165;" horiz-adv-x="528" d="M68 718q-14 0 -17 4t-3 16v116q0 12 3 16t17 4h80q14 0 17 3t3 17v266q0 20 20 32l130 80q4 2 7 4t7 2q10 0 10 -16v-368q0 -14 3 -17t17 -3h122q14 0 17 -4t3 -16v-116q0 -12 -3 -16t-17 -4h-122q-14 0 -17 -3t-3 -17v-678q0 -12 -3 -16t-17 -4h-134q-14 0 -17 4t-3 16 v678q0 14 -3 17t-17 3h-80v0zM426 1480q2 12 5 16t17 4h136q20 0 18 -20l-90 -306q-4 -12 -8 -16t-18 -4h-76q-12 0 -13 5t-1 15l30 306v0z" />
<glyph unicode="&#x166;" horiz-adv-x="924" d="M342 874q14 0 17 3t3 17v302q0 14 -3 17t-17 3h-270q-14 0 -17 3t-3 17v144q0 14 3 17t17 3h780q14 0 17 -3t3 -17v-144q0 -14 -3 -17t-17 -3h-270q-14 0 -17 -3t-3 -17v-302q0 -14 3 -17t17 -3h190q14 0 17 -3t3 -17v-112q0 -14 -3 -17t-17 -3h-190q-14 0 -17 -3t-3 -17 v-682q0 -14 -3 -17t-17 -3h-160q-14 0 -17 3t-3 17v682q0 14 -3 17t-17 3h-190q-14 0 -17 3t-3 17v112q0 14 3 17t17 3h190z" />
<glyph unicode="&#x167;" horiz-adv-x="528" d="M76 360q-14 0 -17 3t-3 17v96q0 14 4 17t16 3h72q14 0 17 3t3 17v182q0 14 -3 17t-17 3h-80q-14 0 -17 4t-3 16v116q0 12 3 16t17 4h80q14 0 17 3t3 17v264q0 12 4 18t16 16l130 80q4 2 7 4t7 2q10 0 10 -16v-368q0 -14 3 -17t17 -3h122q14 0 17 -4t3 -16v-116 q0 -12 -3 -16t-17 -4h-122q-14 0 -17 -3t-3 -17v-182q0 -14 3 -17t17 -3h94q14 0 17 -3t3 -17v-96q0 -14 -3 -17t-17 -3h-94q-14 0 -17 -3t-3 -17v-320q0 -12 -3 -16t-17 -4h-134q-14 0 -17 4t-3 16v320q0 14 -3 17t-17 3h-72z" />
<glyph unicode="&#x168;" horiz-adv-x="1236" d="M894 1380q0 14 3 17t17 3h158q14 0 17 -3t3 -17v-942q0 -114 -35 -200t-98 -143t-150 -86t-189 -29t-190 29t-151 86t-99 143t-36 200v942q0 14 3 17t17 3h158q14 0 17 -3t3 -17v-904q0 -86 19 -144t55 -94t88 -52t116 -16q66 0 117 16t86 52t53 94t18 144v904v0z M318 1524q-14 0 -17 4t-3 16v28q0 80 48 138t138 58q62 0 99 -18t62 -41t46 -41t53 -18q28 0 48 18t20 52v22q0 12 3 16t17 4h88q14 0 17 -4t3 -16v-30q0 -80 -44 -137t-134 -57q-64 0 -102 18t-64 41t-48 41t-54 18q-28 0 -48 -19t-20 -53v-20q0 -12 -3 -16t-17 -4h-88v0z " />
<glyph unicode="&#x169;" horiz-adv-x="944" d="M472 140q80 0 134 51t54 155v508q0 12 3 16t17 4h136q14 0 17 -4t3 -16v-520q0 -74 -23 -138t-68 -112t-114 -76t-159 -28t-159 28t-114 76t-68 112t-23 138v520q0 12 3 16t17 4h136q14 0 17 -4t3 -16v-508q0 -104 54 -155t134 -51zM172 1036q-14 0 -17 4t-3 16v28 q0 80 48 138t138 58q62 0 99 -18t62 -41t46 -41t53 -18q28 0 48 18t20 52v22q0 12 3 16t17 4h88q14 0 17 -4t3 -16v-30q0 -80 -44 -137t-134 -57q-64 0 -102 18t-64 41t-48 41t-54 18q-28 0 -48 -19t-20 -53v-20q0 -12 -3 -16t-17 -4h-88v0z" />
<glyph unicode="&#x16a;" horiz-adv-x="1236" d="M894 1380q0 14 3 17t17 3h158q14 0 17 -3t3 -17v-942q0 -114 -35 -200t-98 -143t-150 -86t-189 -29t-190 29t-151 86t-99 143t-36 200v942q0 14 3 17t17 3h158q14 0 17 -3t3 -17v-904q0 -86 19 -144t55 -94t88 -52t116 -16q66 0 117 16t86 52t53 94t18 144v904v0z M300 1688q0 14 4 17t16 3h596q14 0 17 -3t3 -17v-88q0 -14 -3 -17t-17 -3h-596q-14 0 -17 3t-3 17v88v0z" />
<glyph unicode="&#x16b;" horiz-adv-x="944" d="M472 140q80 0 134 51t54 155v508q0 12 3 16t17 4h136q14 0 17 -4t3 -16v-520q0 -74 -23 -138t-68 -112t-114 -76t-159 -28t-159 28t-114 76t-68 112t-23 138v520q0 12 3 16t17 4h136q14 0 17 -4t3 -16v-508q0 -104 54 -155t134 -51zM152 1200q0 14 4 17t16 3h596 q14 0 17 -3t3 -17v-88q0 -14 -3 -17t-17 -3h-596q-14 0 -17 3t-3 17v88v0z" />
<glyph unicode="&#x16c;" horiz-adv-x="1236" d="M894 1380q0 14 3 17t17 3h158q14 0 17 -3t3 -17v-942q0 -114 -35 -200t-98 -143t-150 -86t-189 -29t-190 29t-151 86t-99 143t-36 200v942q0 14 3 17t17 3h158q14 0 17 -3t3 -17v-904q0 -86 19 -144t55 -94t88 -52t116 -16q66 0 117 16t86 52t53 94t18 144v904v0z M618 1490q-60 0 -115 14t-97 47t-67 86t-25 131q0 12 3 16t17 4h104q20 0 20 -20q2 -86 49 -120t111 -34t111 34t49 120q0 20 20 20h104q14 0 17 -4t3 -16q0 -78 -25 -131t-67 -86t-97 -47t-115 -14z" />
<glyph unicode="&#x16d;" horiz-adv-x="944" d="M472 140q80 0 134 51t54 155v508q0 12 3 16t17 4h136q14 0 17 -4t3 -16v-520q0 -74 -23 -138t-68 -112t-114 -76t-159 -28t-159 28t-114 76t-68 112t-23 138v520q0 12 3 16t17 4h136q14 0 17 -4t3 -16v-508q0 -104 54 -155t134 -51zM470 1002q-60 0 -115 14t-97 47 t-67 86t-25 131q0 12 3 16t17 4h104q20 0 20 -20q2 -86 49 -120t111 -34t111 34t49 120q0 20 20 20h104q14 0 17 -4t3 -16q0 -78 -25 -131t-67 -86t-97 -47t-115 -14z" />
<glyph unicode="&#x16e;" horiz-adv-x="1236" d="M894 1380q0 14 3 17t17 3h158q14 0 17 -3t3 -17v-942q0 -114 -35 -200t-98 -143t-150 -86t-189 -29t-190 29t-151 86t-99 143t-36 200v942q0 14 3 17t17 3h158q14 0 17 -3t3 -17v-904q0 -86 19 -144t55 -94t88 -52t116 -16q66 0 117 16t86 52t53 94t18 144v904v0z M618 1580q34 0 58 24t24 60q0 34 -23 58t-59 24t-59 -24t-23 -60q0 -38 24 -60t58 -22zM618 1480q-74 0 -128 48t-54 134q0 76 52 130t130 54q38 0 71 -15t58 -40t39 -58t14 -69q0 -38 -14 -72t-39 -59t-58 -39t-71 -14z" />
<glyph unicode="&#x16f;" horiz-adv-x="944" d="M472 140q80 0 134 51t54 155v508q0 12 3 16t17 4h136q14 0 17 -4t3 -16v-520q0 -74 -23 -138t-68 -112t-114 -76t-159 -28t-159 28t-114 76t-68 112t-23 138v520q0 12 3 16t17 4h136q14 0 17 -4t3 -16v-508q0 -104 54 -155t134 -51zM472 1094q34 0 58 24t24 60 q0 34 -23 58t-59 24t-59 -24t-23 -60q0 -38 24 -60t58 -22zM472 994q-74 0 -128 48t-54 134q0 76 52 130t130 54q38 0 71 -15t58 -40t39 -58t14 -69q0 -38 -14 -72t-39 -59t-58 -39t-71 -14z" />
<glyph unicode="&#x170;" horiz-adv-x="1236" d="M894 1380q0 14 3 17t17 3h158q14 0 17 -3t3 -17v-942q0 -114 -35 -200t-98 -143t-150 -86t-189 -29t-190 29t-151 86t-99 143t-36 200v942q0 14 3 17t17 3h158q14 0 17 -3t3 -17v-904q0 -86 19 -144t55 -94t88 -52t116 -16q66 0 117 16t86 52t53 94t18 144v904v0z M532 1768q10 12 15 16t17 4h174q20 0 20 -4t-12 -16l-234 -248q-12 -12 -18 -16t-18 -4h-132q-14 0 -14 4l10 16zM892 1768q10 12 15 16t17 4h174q20 0 20 -4t-12 -16l-234 -248q-12 -12 -18 -16t-18 -4h-132q-14 0 -14 4l10 16z" />
<glyph unicode="&#x171;" horiz-adv-x="944" d="M472 140q80 0 134 51t54 155v508q0 12 3 16t17 4h136q14 0 17 -4t3 -16v-520q0 -74 -23 -138t-68 -112t-114 -76t-159 -28t-159 28t-114 76t-68 112t-23 138v520q0 12 3 16t17 4h136q14 0 17 -4t3 -16v-508q0 -104 54 -155t134 -51zM362 1280q10 12 15 16t17 4h174 q20 0 20 -4t-12 -16l-234 -248q-12 -12 -18 -16t-18 -4h-132q-14 0 -14 4l10 16zM722 1280q10 12 15 16t17 4h174q20 0 20 -4t-12 -16l-234 -248q-12 -12 -18 -16t-18 -4h-132q-14 0 -14 4l10 16z" />
<glyph unicode="&#x172;" horiz-adv-x="1236" d="M656 -18q-10 -2 -18 -2h-18q-102 0 -190 29t-151 86t-99 143t-36 200v942q0 14 3 17t17 3h158q14 0 17 -3t3 -17v-904q0 -86 19 -144t55 -94t88 -52t116 -16q66 0 117 16t86 52t53 94t18 144v904q0 14 3 17t17 3h158q14 0 17 -3t3 -17v-942q0 -132 -44 -225t-128 -149 q-10 -8 -20 -14t-22 -16q-64 -44 -100 -89t-42 -109q0 -52 34 -92t112 -40q14 0 17 -3t3 -15v-86q0 -10 -3 -14t-17 -6t-22 -2h-24q-54 0 -99 19t-77 50t-50 73t-18 90t15 90t49 82z" />
<glyph unicode="&#x173;" horiz-adv-x="944" d="M398 -190q0 36 11 76t33 78q4 8 4 10q0 8 -16 8q-80 6 -140 36t-101 77t-61 108t-20 131v520q0 12 3 16t17 4h136q14 0 17 -4t3 -16v-508q0 -104 54 -155t134 -51t134 51t54 155v508q0 12 3 16t17 4h136q14 0 17 -4t3 -16v-520q0 -88 -32 -162t-96 -122q-30 -22 -69 -47 t-61 -57q-36 -48 -36 -110q0 -52 34 -92t112 -40q14 0 17 -3t3 -15v-86q0 -10 -3 -14t-17 -6t-22 -2h-24q-54 0 -99 19t-77 50t-50 73t-18 90z" />
<glyph unicode="&#x174;" horiz-adv-x="1682" d="M846 866q-4 6 -10 6q-8 0 -10 -6l-300 -888q-2 -8 -10 -8t-10 8l-466 1402q-4 12 -4 14q0 6 12 6h188q16 0 24 -20l252 -832q2 -6 10 -6q6 0 10 6l286 862q8 20 24 20t24 -20l288 -862q2 -6 10 -6q6 0 10 6l256 832q8 20 24 20h180q12 0 12 -6q0 -2 -4 -14l-476 -1402 q-2 -8 -10 -8t-10 8l-300 888v0zM722 1768q18 20 38 20h152q24 0 38 -20l216 -248q6 -10 6 -14q0 -6 -12 -6h-124q-14 0 -20 6l-14 14l-150 150q-4 4 -12 4t-12 -4l-146 -150l-14 -14t-20 -6h-128q-12 0 -12 6q0 4 6 14l208 248v0z" />
<glyph unicode="&#x175;" horiz-adv-x="1296" d="M434 -18q-6 -18 -20 -18q-10 0 -18 18l-376 872q-2 4 -2 8q0 2 -2 4q0 8 18 8h148q12 0 16 -4t10 -16l198 -502q2 -6 12 -6q8 0 12 6l202 532q8 20 16 20t16 -20l204 -532q2 -6 12 -6q8 0 12 6l196 502q6 12 10 16t16 4h148q18 0 18 -8q-2 -2 -2 -4t-1 -3t-1 -5 l-376 -872q-10 -18 -18 -18q-12 0 -20 18l-200 506q-4 6 -12 6q-10 0 -12 -6l-204 -506v0zM528 1280q18 20 38 20h152q24 0 38 -20l216 -248q6 -10 6 -14q0 -6 -12 -6h-124q-14 0 -20 6l-14 14l-150 150q-4 4 -12 4t-12 -4l-146 -150l-14 -14t-20 -6h-128q-12 0 -12 6 q0 4 6 14l208 248v0z" />
<glyph unicode="&#x176;" horiz-adv-x="1096" d="M28 1380l-4 12q0 8 12 8h198q18 0 26 -20l278 -454q2 -6 10 -6q6 0 10 6l280 454q8 14 12 17t14 3h196q12 0 12 -8l-4 -12l-422 -674v-686q0 -14 -3 -17t-17 -3h-156q-14 0 -17 3t-3 17v686zM430 1768q18 20 38 20h152q24 0 38 -20l216 -248q6 -10 6 -14q0 -6 -12 -6 h-124q-14 0 -20 6l-14 14l-150 150q-4 4 -12 4t-12 -4l-146 -150l-14 -14t-20 -6h-128q-12 0 -12 6q0 4 6 14l208 248v0z" />
<glyph unicode="&#x177;" horiz-adv-x="906" d="M446 264q2 -6 8 -6q4 0 8 6l234 590q6 12 10 16t16 4h150q18 0 18 -8q-2 -2 -2 -4t-1 -3t-1 -5l-518 -1274q-6 -12 -10 -16t-16 -4h-148q-18 0 -18 8q2 0 2 2q0 6 2 10l176 436q2 2 2 10t-2 10l-336 818q-2 4 -2 8q0 2 -2 4q0 8 18 8h154q12 0 16 -4t10 -16l232 -590v0z M346 1280q18 20 38 20h152q24 0 38 -20l216 -248q6 -10 6 -14q0 -6 -12 -6h-124q-14 0 -20 6l-14 14l-150 150q-4 4 -12 4t-12 -4l-146 -150l-14 -14t-20 -6h-128q-12 0 -12 6q0 4 6 14l208 248v0z" />
<glyph unicode="&#x178;" horiz-adv-x="1096" d="M28 1380l-4 12q0 8 12 8h198q18 0 26 -20l278 -454q2 -6 10 -6q6 0 10 6l280 454q8 14 12 17t14 3h196q12 0 12 -8l-4 -12l-422 -674v-686q0 -14 -3 -17t-17 -3h-156q-14 0 -17 3t-3 17v686zM754 1484q-46 0 -83 34t-37 86q0 50 35 86t85 36q48 0 84 -37t36 -83t-37 -84 t-83 -38zM342 1484q-46 0 -83 34t-37 86q0 50 36 86t84 36q50 0 85 -37t35 -83t-36 -84t-84 -38z" />
<glyph unicode="&#x179;" horiz-adv-x="972" d="M356 212q-4 -12 -4 -18q0 -12 12 -12h494q14 0 17 -3t3 -17v-142q0 -14 -3 -17t-17 -3h-802q-14 0 -14 10l4 12l152 312l412 854q6 12 6 20q0 10 -14 10h-488q-14 0 -17 3t-3 17v142q0 14 3 17t17 3h792q14 0 14 -8l-4 -12l-148 -310zM512 1768q10 12 15 16t17 4h192 q14 0 17 -3t-9 -17l-242 -248q-12 -12 -18 -16t-18 -4h-142q-16 0 -14 5t10 15l192 248v0z" />
<glyph unicode="&#x17a;" horiz-adv-x="752" d="M322 190q-6 -12 -6 -18q0 -12 12 -12h326q14 0 17 -3t3 -17v-120q0 -14 -3 -17t-17 -3h-608q-14 0 -14 10l4 12l154 270l226 396q6 12 6 20q0 10 -12 10h-318q-14 0 -17 3t-3 17v116q0 14 3 17t17 3h598q14 0 14 -8l-4 -12l-150 -262zM446 1280q10 12 15 16t17 4h192 q14 0 17 -3t-9 -17l-242 -248q-12 -12 -18 -16t-18 -4h-142q-16 0 -14 5t10 15l192 248v0z" />
<glyph unicode="&#x17b;" horiz-adv-x="972" d="M356 212q-4 -12 -4 -18q0 -12 12 -12h494q14 0 17 -3t3 -17v-142q0 -14 -3 -17t-17 -3h-802q-14 0 -14 10l4 12l152 312l412 854q6 12 6 20q0 10 -14 10h-488q-14 0 -17 3t-3 17v142q0 14 3 17t17 3h792q14 0 14 -8l-4 -12l-148 -310zM476 1518q-48 0 -86 36t-38 88 t36 89t88 37t88 -38t36 -86q0 -50 -37 -88t-87 -38z" />
<glyph unicode="&#x17c;" horiz-adv-x="752" d="M322 190q-6 -12 -6 -18q0 -12 12 -12h326q14 0 17 -3t3 -17v-120q0 -14 -3 -17t-17 -3h-608q-14 0 -14 10l4 12l154 270l226 396q6 12 6 20q0 10 -12 10h-318q-14 0 -17 3t-3 17v116q0 14 3 17t17 3h598q14 0 14 -8l-4 -12l-150 -262zM368 1032q-48 0 -86 36t-38 88 t36 89t88 37t88 -38t36 -86q0 -50 -37 -88t-87 -38z" />
<glyph unicode="&#x17d;" horiz-adv-x="972" d="M356 212q-4 -12 -4 -18q0 -12 12 -12h494q14 0 17 -3t3 -17v-142q0 -14 -3 -17t-17 -3h-802q-14 0 -14 10l4 12l152 312l412 854q6 12 6 20q0 10 -14 10h-488q-14 0 -17 3t-3 17v142q0 14 3 17t17 3h792q14 0 14 -8l-4 -12l-148 -310zM604 1520q-14 -20 -38 -20h-152 q-24 0 -38 20l-216 248q-6 8 -6 14t12 6h124q14 0 20 -6l14 -14l150 -150q4 -4 12 -4t12 4l146 150l14 14t20 6h128q12 0 12 -6t-6 -14l-208 -248v0z" />
<glyph unicode="&#x17e;" horiz-adv-x="752" d="M322 190q-6 -12 -6 -18q0 -12 12 -12h326q14 0 17 -3t3 -17v-120q0 -14 -3 -17t-17 -3h-608q-14 0 -14 10l4 12l154 270l226 396q6 12 6 20q0 10 -12 10h-318q-14 0 -17 3t-3 17v116q0 14 3 17t17 3h598q14 0 14 -8l-4 -12l-150 -262zM494 1032q-14 -20 -38 -20h-152 q-24 0 -38 20l-216 248q-6 8 -6 14t12 6h124q14 0 20 -6l14 -14l150 -150q4 -4 12 -4t12 4l146 150l14 14t20 6h128q12 0 12 -6t-6 -14l-208 -248v0z" />
<glyph unicode="&#x17f;" horiz-adv-x="448" d="M304 20q0 -12 -3 -16t-17 -4h-136q-14 0 -17 4t-3 16v1200q0 312 244 312q22 0 46 -2t46 -8q12 -4 16 -8t4 -16v-118q0 -18 -12 -18l-8 2q-26 8 -58 8q-50 0 -76 -36t-26 -100v-1216v0z" />
<glyph unicode="&#x180;" horiz-adv-x="1100" d="M128 1480q0 12 3 16t17 4h136q14 0 17 -4t3 -16v-274q0 -10 20 -10h178q14 0 17 -4t3 -16v-96q0 -12 -3 -16t-17 -4h-178q-20 0 -20 -12v-274q0 -4 8 -4q6 0 8 2q52 52 121 87t161 35t172 -36t138 -98t91 -145t33 -177t-33 -177t-91 -146t-138 -99t-172 -36t-161 33 t-121 89q-2 2 -8 2q-8 0 -8 -4v-80q0 -12 -3 -16t-17 -4h-136q-14 0 -17 4t-3 16v1020q0 14 -3 17t-17 3h-80q-14 0 -17 4t-3 16v96q0 12 3 16t17 4h80q18 0 20 10v274zM856 438q0 60 -20 114t-56 95t-86 64t-112 23t-113 -23t-88 -64t-57 -95t-20 -114q0 -62 20 -116 t57 -95t88 -64t113 -23t112 23t86 64t56 95t20 116z" />
<glyph unicode="&#x18f;" horiz-adv-x="1490" d="M1178 818q-12 106 -55 184t-108 129t-147 76t-172 25q-126 0 -231 -48t-195 -132q-6 -6 -10 -11t-14 -5q-14 0 -14 38v156q0 20 26 40q30 22 72 49t96 50t121 39t149 16q184 0 317 -56t218 -154t126 -230t41 -284q0 -148 -47 -279t-133 -229t-208 -155t-270 -57 q-160 0 -280 58t-201 157t-122 230t-41 275v58q0 20 5 23t29 3h1006q26 0 34 6t8 28zM736 172q92 0 171 32t138 88t96 130t47 156q0 26 -5 32t-31 6h-812q-28 0 -35 -6t-3 -32q10 -84 41 -157t85 -129t130 -88t178 -32z" />
<glyph unicode="&#x192;" horiz-adv-x="716" d="M216 600q4 14 -1 17t-19 3h-120q-14 0 -17 4t-3 16l-4 96q0 12 3 16t17 4h134q14 0 18 3t6 17l52 332q24 156 93 234t195 78q22 0 48 -2t48 -8q12 -4 15 -7t1 -17l-18 -118q-4 -22 -22 -16q-24 8 -56 8q-50 0 -80 -36t-40 -100l-56 -348q-2 -14 0 -17t16 -3h184 q14 0 17 -4t3 -16l4 -96q0 -12 -3 -16t-17 -4h-198q-14 0 -15 -3t-5 -17l-94 -588q-24 -156 -92 -234t-194 -78q-24 0 -46 2t-46 8q-12 4 -16 7t0 17l16 118q4 22 24 16q24 -8 54 -8q48 0 78 36t40 100l96 604v0z" />
<glyph unicode="&#x195;" horiz-adv-x="1536" d="M1084 140q80 0 124 51t44 155v508q0 12 3 16t17 4h136q14 0 17 -4t3 -16v-520q0 -74 -20 -138t-62 -112t-107 -76t-155 -28t-159 28t-114 76t-68 112t-23 138v182q0 104 -37 161t-135 57q-102 0 -173 -67t-71 -189v-458q0 -12 -3 -16t-17 -4h-136q-14 0 -17 4t-3 16v1460 q0 12 3 16t17 4h136q14 0 17 -4t3 -16v-706q0 -4 8 -4q6 0 8 2q28 26 56 49t58 39t66 25t82 9q90 0 151 -26t97 -72t51 -107t15 -133v-210q0 -104 54 -155t134 -51z" />
<glyph unicode="&#x1a6;" horiz-adv-x="1036" d="M500 484q132 0 192 63t60 177q0 120 -70 178t-190 58h-134q-14 0 -17 -3t-3 -17v-436q0 -14 3 -17t17 -3h142zM482 1136q228 0 346 -98q68 -56 98 -137t30 -177q0 -152 -88 -255t-250 -135q-8 -2 -8 -8q0 -4 4 -8l434 -562l10 -16q0 -4 -18 -4h-200q-14 0 -17 3t-15 17 l-446 584q-10 12 -16 12q-8 0 -8 -18v-314q0 -14 -3 -17t-17 -3h-150q-14 0 -19 3t-5 17v1360q0 14 3 17t17 3h154q14 0 17 -3t3 -17v-224q0 -14 3 -17t17 -3h124z" />
<glyph unicode="&#x1cd;" horiz-adv-x="1124" d="M568 886q-4 6 -12 6q-10 0 -12 -6l-152 -436q-2 -4 -2 -10q0 -2 -2 -2q0 -4 1 -6t11 -2h314q14 0 14 6q0 -2 -4 14zM550 1422q2 8 10 8t10 -8l520 -1402q2 -2 2 -12q0 -8 -16 -8h-174q-12 0 -17 3t-9 17l-80 210q-4 14 -8 17t-18 3h-428q-20 0 -26 -20l-74 -210 q-4 -14 -9 -17t-17 -3h-168q-16 0 -16 8q0 10 2 12zM680 1520q-14 -20 -38 -20h-152q-24 0 -38 20l-216 248q-6 8 -6 14t12 6h124q14 0 20 -6l14 -14l150 -150q4 -4 12 -4t12 4l146 150l14 14t20 6h128q12 0 12 -6t-6 -14l-208 -248v0z" />
<glyph unicode="&#x1ce;" horiz-adv-x="928" d="M636 302q0 32 -17 58t-45 45t-65 29t-79 10q-90 0 -144 -44t-54 -114q0 -72 52 -117t146 -45q42 0 80 16t66 41t44 57t16 64zM60 280q0 72 27 129t73 96t107 59t129 20q84 0 142 -24t86 -46q2 -2 8 -2q8 0 8 14v46q0 84 -50 129t-158 45q-80 0 -133 -23t-75 -41 q-6 -6 -14 -6t-8 16v122q0 14 16 24q38 26 99 41t131 15q116 0 187 -29t110 -75t53 -103t14 -113v-554q0 -12 -3 -16t-17 -4h-126q-14 0 -17 4t-3 16v68q0 4 -8 4q-6 0 -8 -2q-42 -52 -103 -81t-131 -29q-66 0 -126 19t-107 56t-75 93t-28 132zM582 1032q-14 -20 -38 -20 h-152q-24 0 -38 20l-216 248q-6 8 -6 14t12 6h124q14 0 20 -6l14 -14l150 -150q4 -4 12 -4t12 4l146 150l14 14t20 6h128q12 0 12 -6t-6 -14l-208 -248v0z" />
<glyph unicode="&#x1de;" horiz-adv-x="1124" d="M568 886q-4 6 -12 6q-10 0 -12 -6l-152 -436q-2 -4 -2 -10q0 -2 -2 -2q0 -4 1 -6t11 -2h314q14 0 14 6q0 -2 -4 14zM550 1422q2 8 10 8t10 -8l520 -1402q2 -2 2 -12q0 -8 -16 -8h-174q-12 0 -17 3t-9 17l-80 210q-4 14 -8 17t-18 3h-428q-20 0 -26 -20l-74 -210 q-4 -14 -9 -17t-17 -3h-168q-16 0 -16 8q0 10 2 12zM238 2018q0 14 4 17t16 3h596q14 0 17 -3t3 -17v-88q0 -14 -3 -17t-17 -3h-596q-14 0 -17 3t-3 17v88v0zM760 1550q-46 0 -83 34t-37 86q0 50 35 86t85 36q48 0 84 -37t36 -83t-37 -84t-83 -38zM348 1550q-46 0 -83 34 t-37 86q0 50 36 86t84 36q50 0 85 -37t35 -83t-36 -84t-84 -38z" />
<glyph unicode="&#x1df;" horiz-adv-x="928" d="M636 302q0 32 -17 58t-45 45t-65 29t-79 10q-90 0 -144 -44t-54 -114q0 -72 52 -117t146 -45q42 0 80 16t66 41t44 57t16 64zM60 280q0 72 27 129t73 96t107 59t129 20q84 0 142 -24t86 -46q2 -2 8 -2q8 0 8 14v46q0 84 -50 129t-158 45q-80 0 -133 -23t-75 -41 q-6 -6 -14 -6t-8 16v122q0 14 16 24q38 26 99 41t131 15q116 0 187 -29t110 -75t53 -103t14 -113v-554q0 -12 -3 -16t-17 -4h-126q-14 0 -17 4t-3 16v68q0 4 -8 4q-6 0 -8 -2q-42 -52 -103 -81t-131 -29q-66 0 -126 19t-107 56t-75 93t-28 132zM153 1480q0 14 4 17t16 3h596 q14 0 17 -3t3 -17v-88q0 -14 -3 -17t-17 -3h-596q-14 0 -17 3t-3 17v88v0zM675 1012q-46 0 -83 34t-37 86q0 50 35 86t85 36q48 0 84 -37t36 -83t-37 -84t-83 -38zM263 1012q-46 0 -83 34t-37 86q0 50 36 86t84 36q50 0 85 -37t35 -83t-36 -84t-84 -38z" />
<glyph unicode="&#x1e0;" horiz-adv-x="1124" d="M568 886q-4 6 -12 6q-10 0 -12 -6l-152 -436q-2 -4 -2 -10q0 -2 -2 -2q0 -4 1 -6t11 -2h314q14 0 14 6q0 -2 -4 14zM550 1422q2 8 10 8t10 -8l520 -1402q2 -2 2 -12q0 -8 -16 -8h-174q-12 0 -17 3t-9 17l-80 210q-4 14 -8 17t-18 3h-428q-20 0 -26 -20l-74 -210 q-4 -14 -9 -17t-17 -3h-168q-16 0 -16 8q0 10 2 12zM244 2018q0 14 4 17t16 3h596q14 0 17 -3t3 -17v-88q0 -14 -3 -17t-17 -3h-596q-14 0 -17 3t-3 17v88v0zM562 1550q-48 0 -86 36t-38 88t36 89t88 37t88 -38t36 -86q0 -50 -37 -88t-87 -38z" />
<glyph unicode="&#x1e1;" horiz-adv-x="928" d="M636 302q0 32 -17 58t-45 45t-65 29t-79 10q-90 0 -144 -44t-54 -114q0 -72 52 -117t146 -45q42 0 80 16t66 41t44 57t16 64zM60 280q0 72 27 129t73 96t107 59t129 20q84 0 142 -24t86 -46q2 -2 8 -2q8 0 8 14v46q0 84 -50 129t-158 45q-80 0 -133 -23t-75 -41 q-6 -6 -14 -6t-8 16v122q0 14 16 24q38 26 99 41t131 15q116 0 187 -29t110 -75t53 -103t14 -113v-554q0 -12 -3 -16t-17 -4h-126q-14 0 -17 4t-3 16v68q0 4 -8 4q-6 0 -8 -2q-42 -52 -103 -81t-131 -29q-66 0 -126 19t-107 56t-75 93t-28 132zM152 1480q0 14 4 17t16 3h596 q14 0 17 -3t3 -17v-88q0 -14 -3 -17t-17 -3h-596q-14 0 -17 3t-3 17v88v0zM470 1012q-48 0 -86 36t-38 88t36 89t88 37t88 -38t36 -86q0 -50 -37 -88t-87 -38z" />
<glyph unicode="&#x1e2;" horiz-adv-x="1528" d="M726 0q-14 0 -17 3t-3 17v210q0 14 -3 17t-17 3h-360q-20 0 -26 -20l-92 -210q-4 -14 -9 -17t-17 -3h-164q-16 0 -16 8q0 10 2 12l606 1360q8 20 28 20h770q14 0 17 -3t3 -17v-144q0 -14 -3 -17t-17 -3h-490q-14 0 -17 -3t-3 -17v-494q0 -14 3 -17t17 -3h480q14 0 17 -3 t3 -17v-142q0 -14 -3 -17t-17 -3h-480q-14 0 -17 -3t-3 -17v-276q0 -14 3 -17t17 -3h500q14 0 17 -3t3 -17v-144q0 -14 -3 -17t-17 -3h-692zM392 450q-2 -4 -2 -10q0 -2 -2 -2q0 -8 18 -8h280q14 0 17 3t3 17v674q0 8 -10 8q-12 0 -14 -6zM708 1686q0 14 4 17t16 3h596 q14 0 17 -3t3 -17v-88q0 -14 -3 -17t-17 -3h-596q-14 0 -17 3t-3 17v88v0z" />
<glyph unicode="&#x1e3;" horiz-adv-x="1508" d="M1036 738q-98 0 -161 -62t-75 -152q0 -14 3 -17t17 -3h418q20 0 20 12v8q-10 92 -60 153t-162 61zM424 128q54 0 92 18t62 45t35 58t11 59q0 66 -58 105t-142 39q-78 0 -131 -42t-53 -122q0 -78 47 -119t137 -41zM368 -20q-76 0 -134 24t-97 65t-58 93t-19 108 q0 68 22 126t65 101t105 67t144 24q78 0 133 -23t83 -45q2 -2 8 -2q8 0 8 16v38q0 84 -51 129t-159 45q-80 0 -132 -24t-74 -40l-12 -4q-10 0 -10 14v122q0 14 16 24q38 26 100 41t132 15q68 0 119 -17t86 -41t55 -53t30 -53q4 -4 8 -4t8 4q52 70 122 117t182 47 q102 0 175 -36t120 -98t70 -145t23 -177v-58q0 -12 -3 -16t-17 -4h-584q-14 0 -18 -3t-4 -15q10 -96 80 -149t190 -53q32 0 69 6t71 17t63 26t47 35l5 5t7 3q8 0 8 -20v-138q0 -8 -3 -14t-13 -14q-38 -28 -108 -47t-146 -19q-126 0 -215 44t-147 118q0 4 -8 4q-6 0 -8 -2 q-22 -28 -53 -57t-73 -53t-94 -39t-114 -15zM450 1200q0 14 4 17t16 3h596q14 0 17 -3t3 -17v-88q0 -14 -3 -17t-17 -3h-596q-14 0 -17 3t-3 17v88v0z" />
<glyph unicode="&#x1e6;" horiz-adv-x="1322" d="M812 1226q-126 0 -221 -43t-158 -115t-94 -168t-31 -200q0 -106 32 -203t96 -170t160 -117t224 -44q52 0 106 7t92 25q10 4 10 14v338q0 14 -3 17t-17 3h-262q-14 0 -17 3t-3 17v138q0 14 3 17t17 3h454q14 0 17 -3t3 -17v-626q0 -14 -12 -22q-34 -28 -80 -47t-97 -31 t-106 -17t-105 -5q-170 0 -305 57t-229 156t-144 229t-50 278q0 146 50 277t143 230t226 156t301 57q96 0 175 -20t151 -60q16 -10 16 -20v-214q0 -14 -8 -14q-6 0 -10 4q-62 62 -144 96t-180 34zM842 1520q-14 -20 -38 -20h-152q-24 0 -38 20l-216 248q-6 8 -6 14t12 6h124 q14 0 20 -6l14 -14l150 -150q4 -4 12 -4t12 4l146 150l14 14t20 6h128q12 0 12 -6t-6 -14l-208 -248v0z" />
<glyph unicode="&#x1e7;" horiz-adv-x="1096" d="M244 438q0 -62 20 -116t56 -95t86 -64t112 -23t113 23t88 64t57 95t20 116q0 60 -20 114t-57 95t-88 64t-113 23t-112 -23t-86 -64t-56 -95t-20 -114zM240 -380q-18 8 -18 24v148q0 20 8 20q2 0 12 -6q46 -32 114 -57t166 -25q144 0 209 71t65 233v72q0 4 -8 4 q-6 0 -8 -2q-52 -56 -121 -89t-161 -33q-94 0 -173 36t-137 99t-91 146t-33 177t33 177t91 145t137 98t173 36q92 0 161 -33t121 -89q2 -2 8 -2q8 0 8 4v80q0 12 3 16t17 4h136q14 0 17 -4t3 -16v-818q0 -230 -112 -351t-336 -121q-96 0 -168 17t-116 39zM664 1032 q-14 -20 -38 -20h-152q-24 0 -38 20l-216 248q-6 8 -6 14t12 6h124q14 0 20 -6l14 -14l150 -150q4 -4 12 -4t12 4l146 150l14 14t20 6h128q12 0 12 -6t-6 -14l-208 -248v0z" />
<glyph unicode="&#x1e8;" horiz-adv-x="1124" d="M342 20q0 -14 -3 -17t-17 -3h-156q-14 0 -17 3t-3 17v1360q0 14 3 17t17 3h156q14 0 17 -3t3 -17v-558q0 -14 12 -14t18 10l440 562q10 12 14 16t18 4h208q16 0 16 -6q0 -4 -8 -14l-488 -618q-4 -4 -4 -10t4 -10l510 -722l10 -16q0 -4 -18 -4h-208q-14 0 -17 3t-15 17 l-460 664q-6 8 -16 8q-16 0 -16 -14v-658v0zM660 1520q-14 -20 -38 -20h-152q-24 0 -38 20l-216 248q-6 8 -6 14t12 6h124q14 0 20 -6l14 -14l150 -150q4 -4 12 -4t12 4l146 150l14 14t20 6h128q12 0 12 -6t-6 -14l-208 -248v0z" />
<glyph unicode="&#x1e9;" horiz-adv-x="878" d="M304 550q0 -14 12 -14t18 10l256 308q10 12 14 16t18 4h180q16 0 16 -6q0 -4 -8 -14l-308 -364q-4 -4 -4 -10t4 -10l334 -450l10 -16q0 -4 -18 -4h-180q-14 0 -17 3t-15 17l-280 392q-6 8 -16 8q-16 0 -16 -14v-386q0 -12 -3 -16t-17 -4h-136q-14 0 -17 4t-3 16v1360 q0 12 3 16t17 4h136q14 0 17 -4t3 -16v-830v0zM564 1518q-14 -20 -38 -20h-152q-24 0 -38 20l-216 248q-6 8 -6 14t12 6h124q14 0 20 -6l14 -14l150 -150q4 -4 12 -4t12 4l146 150l14 14t20 6h128q12 0 12 -6t-6 -14l-208 -248v0z" />
<glyph unicode="&#x1ea;" horiz-adv-x="1584" d="M1492 700q0 -148 -54 -278t-149 -229t-223 -156t-274 -57q-148 0 -275 57t-222 156t-149 229t-54 278q0 146 54 277t149 230t222 156t275 57q146 0 274 -57t223 -156t149 -230t54 -277zM308 700q0 -106 36 -202t100 -168t153 -114t195 -42t195 42t153 114t100 168t36 202 t-36 202t-100 168t-153 114t-195 42t-195 -42t-153 -114t-100 -168t-36 -202zM620 -178q0 106 68 165t166 59q54 0 100 -18q14 -8 14 -22v-88q0 -16 -10 -16q-6 0 -10 2q-18 8 -34 12t-44 4q-46 0 -76 -29t-30 -69t30 -69t76 -29q28 0 44 4t34 12q4 2 10 2q10 0 10 -16v-88 q0 -16 -14 -22q-46 -18 -100 -18q-98 0 -166 59t-68 165z" />
<glyph unicode="&#x1eb;" horiz-adv-x="1038" d="M64 438q0 94 36 177t98 145t145 98t177 36t177 -36t144 -98t97 -145t36 -177t-36 -177t-97 -146t-144 -99t-177 -36t-177 36t-145 99t-98 146t-36 177zM244 438q0 -62 20 -116t56 -95t87 -64t113 -23t113 23t87 64t55 95t19 116q0 60 -19 114t-55 95t-87 64t-113 23 t-113 -23t-87 -64t-56 -95t-20 -114zM310 -178q0 106 68 165t166 59q54 0 100 -18q14 -8 14 -22v-88q0 -16 -10 -16q-6 0 -10 2q-18 8 -34 12t-44 4q-46 0 -76 -29t-30 -69t30 -69t76 -29q28 0 44 4t34 12q4 2 10 2q10 0 10 -16v-88q0 -16 -14 -22q-46 -18 -100 -18 q-98 0 -166 59t-68 165z" />
<glyph unicode="&#x1f6;" horiz-adv-x="1678" d="M1196 160q80 0 129 55t49 159v480q0 12 3 16t17 4h156q14 0 17 -4t3 -16v-512q0 -74 -24 -140t-72 -115t-118 -78t-160 -29t-160 29t-118 78t-72 115t-24 140v146q-2 12 -20 12h-440q-14 0 -17 -3t-3 -17v-460q0 -14 -3 -17t-17 -3h-156q-14 0 -17 3t-3 17v1360 q0 14 3 17t17 3h156q14 0 17 -3t3 -17v-678q0 -14 3 -17t17 -3h440q14 0 17 3t3 17v678q0 14 3 17t17 3h156q14 0 17 -3t3 -17v-1006q0 -104 49 -159t129 -55z" />
<glyph unicode="&#x1fe;" horiz-adv-x="1584" d="M876 1768q10 12 15 16t17 4h192q14 0 17 -3t-9 -17l-242 -248q-12 -12 -18 -16t-18 -4h-142q-16 0 -14 5t10 15l192 248v0zM242 252q-70 96 -110 209t-40 239q0 146 54 277t149 230t222 156t275 57q132 0 245 -45t205 -123l136 136q6 6 12 6t12 -6l78 -78q6 -6 6 -12 t-6 -12l-140 -140q72 -92 112 -206t40 -240q0 -148 -54 -278t-149 -229t-223 -156t-274 -57q-132 0 -246 44t-204 124l-136 -136q-6 -6 -12 -6t-12 6l-78 78q-6 6 -6 12t6 12zM1200 988q-4 6 -8 6t-10 -6l-688 -688q-6 -6 -6 -8q0 -4 6 -10q124 -108 298 -108q106 0 195 42 t153 114t100 168t36 202q0 158 -76 288zM1090 1100q6 6 6 8q0 4 -6 10q-124 108 -298 108q-106 0 -195 -42t-153 -114t-100 -168t-36 -202q0 -80 20 -152t56 -136q2 -6 8 -6q4 0 10 6z" />
<glyph unicode="&#x1ff;" horiz-adv-x="1038" d="M64 438q0 94 36 177t98 145t145 98t177 36q80 0 151 -27t129 -73l80 80q6 6 12 6q2 0 12 -6l50 -50q6 -6 6 -12t-6 -12l-80 -80q46 -58 73 -130t27 -152q0 -94 -36 -177t-97 -146t-144 -99t-177 -36q-84 0 -155 27t-129 75l-82 -82q-6 -6 -12 -6q-4 0 -12 6l-50 50 q-6 6 -6 12t6 12l82 82q-46 58 -72 130t-26 152zM794 438q0 46 -11 87t-31 75l-404 -404q70 -56 172 -56q64 0 115 23t86 64t54 95t19 116zM244 438q0 -92 40 -162l402 402q-68 56 -166 56q-64 0 -115 -23t-87 -64t-55 -95t-19 -114zM612 1280q10 12 15 16t17 4h192 q14 0 17 -3t-9 -17l-242 -248q-12 -12 -18 -16t-18 -4h-142q-16 0 -14 5t10 15l192 248v0z" />
<glyph unicode="&#x218;" horiz-adv-x="1006" d="M504 -20q-62 0 -124 16t-117 47t-101 74t-76 97q-6 8 -6 14t10 16l110 110q10 10 14 10t14 -12q64 -106 132 -145t152 -39q102 0 157 58t55 136q0 74 -44 126t-110 95t-143 85t-143 95t-110 124t-44 173q0 74 28 140t78 115t121 77t157 28q116 0 204 -42t152 -132 q6 -10 6 -14q0 -6 -10 -16l-98 -98q-10 -10 -14 -10q-6 0 -14 12q-34 56 -89 86t-133 30q-90 0 -135 -50t-45 -126q0 -64 44 -110t110 -86t144 -82t144 -97t110 -130t44 -183q0 -88 -29 -160t-84 -123t-135 -80t-182 -29zM442 -152q2 12 5 16t17 4h136q20 0 18 -20l-90 -306 q-4 -12 -8 -16t-18 -4h-76q-12 0 -13 5t-1 15l30 306v0z" />
<glyph unicode="&#x219;" horiz-adv-x="752" d="M536 668q-52 78 -152 78q-56 0 -87 -29t-31 -71q0 -44 31 -70t77 -47t100 -41t100 -51t77 -79t31 -122q0 -46 -17 -91t-54 -82t-95 -60t-140 -23q-108 0 -182 39t-126 109q-4 8 -4 14q0 8 8 16l82 82q8 8 14 8t14 -10q44 -60 91 -84t107 -24q64 0 97 29t33 73 q0 40 -31 65t-76 45t-99 41t-99 52t-76 79t-31 122q0 52 19 99t55 82t88 56t118 21q84 0 153 -28t115 -92q4 -8 4 -14q0 -8 -8 -16l-78 -78q-8 -8 -14 -8t-14 10zM234 -152q2 12 5 16t17 4h136q20 0 18 -20l-90 -306q-4 -12 -8 -16t-18 -4h-76q-12 0 -13 5t-1 15l30 306v0z " />
<glyph unicode="&#x21a;" horiz-adv-x="924" d="M52 1380q0 14 3 17t17 3h780q14 0 17 -3t3 -17v-144q0 -14 -3 -17t-17 -3h-272q-14 0 -17 -3t-3 -17v-1176q0 -14 -3 -17t-17 -3h-156q-14 0 -17 3t-3 17v1176q0 14 -3 17t-17 3h-272q-14 0 -17 3t-3 17v144v0zM392 -152q2 12 5 16t17 4h136q20 0 18 -20l-90 -306 q-4 -12 -8 -16t-18 -4h-76q-12 0 -13 5t-1 15l30 306v0z" />
<glyph unicode="&#x21b;" horiz-adv-x="528" d="M68 718q-14 0 -17 4t-3 16v116q0 12 3 16t17 4h80q14 0 17 3t3 17v266q0 20 20 32l130 80q4 2 7 4t7 2q10 0 10 -16v-368q0 -14 3 -17t17 -3h122q14 0 17 -4t3 -16v-116q0 -12 -3 -16t-17 -4h-122q-14 0 -17 -3t-3 -17v-678q0 -12 -3 -16t-17 -4h-134q-14 0 -17 4t-3 16 v678q0 14 -3 17t-17 3h-80v0zM188 -152q2 12 5 16t17 4h136q20 0 18 -20l-90 -306q-4 -12 -8 -16t-18 -4h-76q-12 0 -13 5t-1 15l30 306v0z" />
<glyph unicode="&#x22a;" horiz-adv-x="1584" d="M1492 700q0 -148 -54 -278t-149 -229t-223 -156t-274 -57q-148 0 -275 57t-222 156t-149 229t-54 278q0 146 54 277t149 230t222 156t275 57q146 0 274 -57t223 -156t149 -230t54 -277zM308 700q0 -106 36 -202t100 -168t153 -114t195 -42t195 42t153 114t100 168t36 202 t-36 202t-100 168t-153 114t-195 42t-195 -42t-153 -114t-100 -168t-36 -202zM474 2018q0 14 4 17t16 3h596q14 0 17 -3t3 -17v-88q0 -14 -3 -17t-17 -3h-596q-14 0 -17 3t-3 17v88v0zM996 1550q-46 0 -83 34t-37 86q0 50 35 86t85 36q48 0 84 -37t36 -83t-37 -84t-83 -38z M584 1550q-46 0 -83 34t-37 86q0 50 36 86t84 36q50 0 85 -37t35 -83t-36 -84t-84 -38z" />
<glyph unicode="&#x22b;" horiz-adv-x="1038" d="M64 438q0 94 36 177t98 145t145 98t177 36t177 -36t144 -98t97 -145t36 -177t-36 -177t-97 -146t-144 -99t-177 -36t-177 36t-145 99t-98 146t-36 177zM244 438q0 -62 20 -116t56 -95t87 -64t113 -23t113 23t87 64t55 95t19 116q0 60 -19 114t-55 95t-87 64t-113 23 t-113 -23t-87 -64t-56 -95t-20 -114zM201 1480q0 14 4 17t16 3h596q14 0 17 -3t3 -17v-88q0 -14 -3 -17t-17 -3h-596q-14 0 -17 3t-3 17v88v0zM723 1012q-46 0 -83 34t-37 86q0 50 35 86t85 36q48 0 84 -37t36 -83t-37 -84t-83 -38zM311 1012q-46 0 -83 34t-37 86 q0 50 36 86t84 36q50 0 85 -37t35 -83t-36 -84t-84 -38z" />
<glyph unicode="&#x22c;" horiz-adv-x="1584" d="M1492 700q0 -148 -54 -278t-149 -229t-223 -156t-274 -57q-148 0 -275 57t-222 156t-149 229t-54 278q0 146 54 277t149 230t222 156t275 57q146 0 274 -57t223 -156t149 -230t54 -277zM308 700q0 -106 36 -202t100 -168t153 -114t195 -42t195 42t153 114t100 168t36 202 t-36 202t-100 168t-153 114t-195 42t-195 -42t-153 -114t-100 -168t-36 -202zM471 2018q0 14 4 17t16 3h596q14 0 17 -3t3 -17v-88q0 -14 -3 -17t-17 -3h-596q-14 0 -17 3t-3 17v88v0zM489 1550q-14 0 -17 4t-3 16v28q0 80 48 138t138 58q62 0 99 -18t62 -41t46 -41t53 -18 q28 0 48 18t20 52v22q0 12 3 16t17 4h88q14 0 17 -4t3 -16v-30q0 -80 -44 -137t-134 -57q-64 0 -102 18t-64 41t-48 41t-54 18q-28 0 -48 -19t-20 -53v-20q0 -12 -3 -16t-17 -4h-88v0z" />
<glyph unicode="&#x22d;" horiz-adv-x="1038" d="M64 438q0 94 36 177t98 145t145 98t177 36t177 -36t144 -98t97 -145t36 -177t-36 -177t-97 -146t-144 -99t-177 -36t-177 36t-145 99t-98 146t-36 177zM244 438q0 -62 20 -116t56 -95t87 -64t113 -23t113 23t87 64t55 95t19 116q0 60 -19 114t-55 95t-87 64t-113 23 t-113 -23t-87 -64t-56 -95t-20 -114zM202 1480q0 14 4 17t16 3h596q14 0 17 -3t3 -17v-88q0 -14 -3 -17t-17 -3h-596q-14 0 -17 3t-3 17v88v0zM220 1012q-14 0 -17 4t-3 16v28q0 80 48 138t138 58q62 0 99 -18t62 -41t46 -41t53 -18q28 0 48 18t20 52v22q0 12 3 16t17 4h88 q14 0 17 -4t3 -16v-30q0 -80 -44 -137t-134 -57q-64 0 -102 18t-64 41t-48 41t-54 18q-28 0 -48 -19t-20 -53v-20q0 -12 -3 -16t-17 -4h-88v0z" />
<glyph unicode="&#x22e;" horiz-adv-x="1584" d="M1492 700q0 -148 -54 -278t-149 -229t-223 -156t-274 -57q-148 0 -275 57t-222 156t-149 229t-54 278q0 146 54 277t149 230t222 156t275 57q146 0 274 -57t223 -156t149 -230t54 -277zM308 700q0 -106 36 -202t100 -168t153 -114t195 -42t195 42t153 114t100 168t36 202 t-36 202t-100 168t-153 114t-195 42t-195 -42t-153 -114t-100 -168t-36 -202zM792 1518q-48 0 -86 36t-38 88t36 89t88 37t88 -38t36 -86q0 -50 -37 -88t-87 -38z" />
<glyph unicode="&#x22f;" horiz-adv-x="1038" d="M64 438q0 94 36 177t98 145t145 98t177 36t177 -36t144 -98t97 -145t36 -177t-36 -177t-97 -146t-144 -99t-177 -36t-177 36t-145 99t-98 146t-36 177zM244 438q0 -62 20 -116t56 -95t87 -64t113 -23t113 23t87 64t55 95t19 116q0 60 -19 114t-55 95t-87 64t-113 23 t-113 -23t-87 -64t-56 -95t-20 -114zM520 1032q-48 0 -86 36t-38 88t36 89t88 37t88 -38t36 -86q0 -50 -37 -88t-87 -38z" />
<glyph unicode="&#x230;" horiz-adv-x="1584" d="M1492 700q0 -148 -54 -278t-149 -229t-223 -156t-274 -57q-148 0 -275 57t-222 156t-149 229t-54 278q0 146 54 277t149 230t222 156t275 57q146 0 274 -57t223 -156t149 -230t54 -277zM308 700q0 -106 36 -202t100 -168t153 -114t195 -42t195 42t153 114t100 168t36 202 t-36 202t-100 168t-153 114t-195 42t-195 -42t-153 -114t-100 -168t-36 -202zM472 2018q0 14 4 17t16 3h596q14 0 17 -3t3 -17v-88q0 -14 -3 -17t-17 -3h-596q-14 0 -17 3t-3 17v88v0zM790 1550q-48 0 -86 36t-38 88t36 89t88 37t88 -38t36 -86q0 -50 -37 -88t-87 -38z" />
<glyph unicode="&#x231;" horiz-adv-x="1038" d="M64 438q0 94 36 177t98 145t145 98t177 36t177 -36t144 -98t97 -145t36 -177t-36 -177t-97 -146t-144 -99t-177 -36t-177 36t-145 99t-98 146t-36 177zM244 438q0 -62 20 -116t56 -95t87 -64t113 -23t113 23t87 64t55 95t19 116q0 60 -19 114t-55 95t-87 64t-113 23 t-113 -23t-87 -64t-56 -95t-20 -114zM192 1480q0 14 4 17t16 3h596q14 0 17 -3t3 -17v-88q0 -14 -3 -17t-17 -3h-596q-14 0 -17 3t-3 17v88v0zM510 1012q-48 0 -86 36t-38 88t36 89t88 37t88 -38t36 -86q0 -50 -37 -88t-87 -38z" />
<glyph unicode="&#x232;" horiz-adv-x="1096" d="M28 1380l-4 12q0 8 12 8h198q18 0 26 -20l278 -454q2 -6 10 -6q6 0 10 6l280 454q8 14 12 17t14 3h196q12 0 12 -8l-4 -12l-422 -674v-686q0 -14 -3 -17t-17 -3h-156q-14 0 -17 3t-3 17v686zM230 1688q0 14 4 17t16 3h596q14 0 17 -3t3 -17v-88q0 -14 -3 -17t-17 -3h-596 q-14 0 -17 3t-3 17v88v0z" />
<glyph unicode="&#x233;" horiz-adv-x="906" d="M446 264q2 -6 8 -6q4 0 8 6l234 590q6 12 10 16t16 4h150q18 0 18 -8q-2 -2 -2 -4t-1 -3t-1 -5l-518 -1274q-6 -12 -10 -16t-16 -4h-148q-18 0 -18 8q2 0 2 2q0 6 2 10l176 436q2 2 2 10t-2 10l-336 818q-2 4 -2 8q0 2 -2 4q0 8 18 8h154q12 0 16 -4t10 -16l232 -590v0z M134 1200q0 14 4 17t16 3h596q14 0 17 -3t3 -17v-88q0 -14 -3 -17t-17 -3h-596q-14 0 -17 3t-3 17v88v0z" />
<glyph unicode="&#x237;" horiz-adv-x="436" d="M312 -140q0 -156 -58 -228t-184 -72h-36t-26 2q-8 2 -14 2t-10 2q-12 4 -16 7t-4 17v118q0 18 20 16q26 -6 50 -6q54 0 78 36t24 100v1000q0 12 3 16t17 4h136q14 0 17 -4t3 -16v-994v0z" />
<glyph unicode="&#x243;" horiz-adv-x="1054" d="M146 1380q0 14 3 17t17 3h324q200 0 305 -99t105 -263q0 -110 -47 -173t-101 -95q-8 -6 -8 -12q0 -8 8 -10q40 -16 80 -44t72 -70t52 -100t20 -132q0 -94 -33 -168t-93 -126t-144 -80t-186 -28h-354q-14 0 -17 3t-3 17v300q-4 12 -20 12h-84q-14 0 -17 3t-3 17v116 q0 14 4 17t16 3h84q14 0 17 3t3 17v872zM548 176q104 0 160 66t56 170t-61 166t-165 62h-180q-14 0 -17 -3t-3 -17v-122q0 -10 20 -10h194q14 0 17 -3t3 -17v-116q0 -14 -3 -17t-17 -3h-194q-20 0 -20 -12v-124q0 -14 3 -17t17 -3h190zM338 836q0 -14 3 -17t17 -3h132 q90 0 150 53t60 155q0 96 -57 148t-153 52h-132q-14 0 -17 -3t-3 -17v-368z" />
<glyph unicode="&#x259;" horiz-adv-x="968" d="M708 530q-10 96 -83 150t-193 54q-30 0 -67 -6t-73 -17t-66 -26t-48 -35l-5 -5t-7 -3q-8 0 -8 20v146q0 8 3 10t13 10q38 28 110 47t148 19q116 0 203 -36t145 -97t87 -145t29 -180q0 -94 -30 -177t-84 -145t-131 -98t-171 -36q-100 0 -177 37t-128 100t-77 145t-26 174 v56q0 12 3 16t17 4h594q14 0 18 3t4 15zM480 138q100 0 163 62t75 152q0 14 -3 17t-17 3h-428q-16 0 -19 -3t-1 -17q10 -90 66 -152t164 -62z" />
<glyph unicode="&#x280;" horiz-adv-x="862" d="M444 462q188 0 188 148q0 82 -53 110t-153 28h-102q-14 0 -17 -3t-3 -17v-246q0 -14 3 -17t17 -3h120zM304 20q0 -14 -3 -17t-17 -3h-132q-14 0 -19 3t-5 17v854q0 14 3 17t17 3h274q70 0 140 -11t126 -42t91 -87t35 -144q0 -104 -75 -176t-189 -88q-8 0 -8 -8q0 -4 4 -8 l274 -310q18 -20 -8 -20h-184q-14 0 -17 3t-15 17l-268 312q-10 12 -16 12q-8 0 -8 -18v-306z" />
<glyph unicode="&#x2c6;" d="M382 1280q18 20 38 20h152q24 0 38 -20l216 -248q6 -10 6 -14q0 -6 -12 -6h-124q-14 0 -20 6l-14 14l-150 150q-4 4 -12 4t-12 -4l-146 -150l-14 -14t-20 -6h-128q-12 0 -12 6q0 4 6 14l208 248v0z" />
<glyph unicode="&#x2c7;" d="M618 1032q-14 -20 -38 -20h-152q-24 0 -38 20l-216 248q-6 8 -6 14t12 6h124q14 0 20 -6l14 -14l150 -150q4 -4 12 -4t12 4l146 150l14 14t20 6h128q12 0 12 -6t-6 -14l-208 -248v0z" />
<glyph unicode="&#x2d8;" d="M500 1002q-60 0 -115 14t-97 47t-67 86t-25 131q0 12 3 16t17 4h104q20 0 20 -20q2 -86 49 -120t111 -34t111 34t49 120q0 20 20 20h104q14 0 17 -4t3 -16q0 -78 -25 -131t-67 -86t-97 -47t-115 -14z" />
<glyph unicode="&#x2d9;" d="M500 1032q-48 0 -86 36t-38 88t36 89t88 37t88 -38t36 -86q0 -50 -37 -88t-87 -38z" />
<glyph unicode="&#x2da;" d="M500 1094q34 0 58 24t24 60q0 34 -23 58t-59 24t-59 -24t-23 -60q0 -38 24 -60t58 -22zM500 994q-74 0 -128 48t-54 134q0 76 52 130t130 54q38 0 71 -15t58 -40t39 -58t14 -69q0 -38 -14 -72t-39 -59t-58 -39t-71 -14z" />
<glyph unicode="&#x2db;" d="M284 -190q0 32 14 66t38 64t55 56t63 44l116 -20q-68 -28 -105 -79t-37 -105q0 -52 29 -82t97 -30q16 0 18 -3t2 -15v-86q0 -10 -3 -14t-17 -6t-22 -2h-24q-102 0 -163 58t-61 154z" />
<glyph unicode="&#x2dc;" d="M198 1036q-14 0 -17 4t-3 16v28q0 80 48 138t138 58q62 0 99 -18t62 -41t46 -41t53 -18q28 0 48 18t20 52v22q0 12 3 16t17 4h88q14 0 17 -4t3 -16v-30q0 -80 -44 -137t-134 -57q-64 0 -102 18t-64 41t-48 41t-54 18q-28 0 -48 -19t-20 -53v-20q0 -12 -3 -16t-17 -4h-88 v0z" />
<glyph unicode="&#x2dd;" d="M368 1280q10 12 15 16t17 4h174q20 0 20 -4t-12 -16l-234 -248q-12 -12 -18 -16t-18 -4h-132q-14 0 -14 4l10 16zM728 1280q10 12 15 16t17 4h174q20 0 20 -4t-12 -16l-234 -248q-12 -12 -18 -16t-18 -4h-132q-14 0 -14 4l10 16z" />
<glyph unicode="&#x300;" horiz-adv-x="2" d="M-384 1032q8 -10 10 -15t-14 -5h-142q-12 0 -18 4t-18 16l-242 248q-12 14 -9 17t17 3h192q12 0 17 -4t15 -16z" />
<glyph unicode="&#x301;" horiz-adv-x="2" d="M-424 1280q10 12 15 16t17 4h192q14 0 17 -3t-9 -17l-242 -248q-12 -12 -18 -16t-18 -4h-142q-16 0 -14 5t10 15l192 248v0z" />
<glyph unicode="&#x302;" horiz-adv-x="2" d="M-618 1280q18 20 38 20h152q24 0 38 -20l216 -248q6 -10 6 -14q0 -6 -12 -6h-124q-14 0 -20 6l-14 14l-150 150q-4 4 -12 4t-12 -4l-146 -150l-14 -14t-20 -6h-128q-12 0 -12 6q0 4 6 14l208 248v0z" />
<glyph unicode="&#x303;" horiz-adv-x="2" d="M-802 1036q-14 0 -17 4t-3 16v28q0 80 48 138t138 58q62 0 99 -18t62 -41t46 -41t53 -18q28 0 48 18t20 52v22q0 12 3 16t17 4h88q14 0 17 -4t3 -16v-30q0 -80 -44 -137t-134 -57q-64 0 -102 18t-64 41t-48 41t-54 18q-28 0 -48 -19t-20 -53v-20q0 -12 -3 -16t-17 -4h-88 v0z" />
<glyph unicode="&#x304;" horiz-adv-x="2" d="M-818 1200q0 14 4 17t16 3h596q14 0 17 -3t3 -17v-88q0 -14 -3 -17t-17 -3h-596q-14 0 -17 3t-3 17v88v0z" />
<glyph unicode="&#x306;" horiz-adv-x="2" d="M-500 1002q-60 0 -115 14t-97 47t-67 86t-25 131q0 12 3 16t17 4h104q20 0 20 -20q2 -86 49 -120t111 -34t111 34t49 120q0 20 20 20h104q14 0 17 -4t3 -16q0 -78 -25 -131t-67 -86t-97 -47t-115 -14z" />
<glyph unicode="&#x307;" horiz-adv-x="2" d="M-500 1032q-50 0 -87 35t-37 89q0 52 36 88t88 36t88 -36t36 -86q0 -52 -36 -89t-88 -37z" />
<glyph unicode="&#x308;" horiz-adv-x="2" d="M-294 1036q-46 0 -83 34t-37 86q0 50 35 86t85 36q48 0 84 -37t36 -83t-37 -84t-83 -38zM-706 1036q-46 0 -83 34t-37 86q0 50 36 86t84 36q50 0 85 -37t35 -83t-36 -84t-84 -38z" />
<glyph unicode="&#x30a;" horiz-adv-x="2" d="M-500 1094q34 0 58 24t24 60q0 34 -23 58t-59 24t-59 -24t-23 -60q0 -38 24 -60t58 -22zM-500 994q-74 0 -128 48t-54 134q0 76 52 130t130 54q38 0 71 -15t58 -40t39 -58t14 -69q0 -38 -14 -72t-39 -59t-58 -39t-71 -14z" />
<glyph unicode="&#x30b;" horiz-adv-x="2" d="M-632 1280q10 12 15 16t17 4h174q20 0 20 -4t-12 -16l-234 -248q-12 -12 -18 -16t-18 -4h-132q-14 0 -14 4l10 16zM-272 1280q10 12 15 16t17 4h174q20 0 20 -4t-12 -16l-234 -248q-12 -12 -18 -16t-18 -4h-132q-14 0 -14 4l10 16z" />
<glyph unicode="&#x30c;" horiz-adv-x="2" d="M-382 1032q-14 -20 -38 -20h-152q-24 0 -38 20l-216 248q-6 8 -6 14t12 6h124q14 0 20 -6l14 -14l150 -150q4 -4 12 -4t12 4l146 150l14 14t20 6h128q12 0 12 -6t-6 -14l-208 -248v0z" />
<glyph unicode="&#x312;" horiz-adv-x="2" d="M-421.977 1013.99q-1.99902 -11.999 -4.99902 -15.998q-3 -4 -16.999 -4h-135.992q-19.998 0 -17.998 19.998l89.9941 305.981q4 12 7.99902 15.999q4 4 17.999 4h75.9961q11.999 0 12.999 -5q1 -4.99902 1 -14.999l-29.999 -305.981v0z" />
<glyph unicode="&#x313;" horiz-adv-x="2" d="M-568 1320q2 12 5 16t17 4h136q20 0 18 -20l-90 -306q-4 -12 -8 -16t-18 -4h-76q-12 0 -13 5t-1 15l30 306v0z" />
<glyph unicode="&#x323;" horiz-adv-x="2" d="M-539 -420q-50 0 -87 35t-37 89q0 52 36 88t88 36t88 -36t36 -86q0 -52 -36 -89t-88 -37z" />
<glyph unicode="&#x326;" horiz-adv-x="2" d="M-608 -152q2 12 5 16t17 4h136q20 0 18 -20l-90 -306q-4 -12 -8 -16t-18 -4h-76q-12 0 -13 5t-1 15l30 306v0z" />
<glyph unicode="&#x327;" horiz-adv-x="2" d="M-310 -194q0 -46 -16 -88t-46 -73t-71 -49t-89 -18q-38 0 -76 7t-72 31q-12 10 -10 24l16 86q4 22 22 10q24 -16 47 -24t53 -8q40 0 69 25t29 81q0 46 -35 71t-89 25h-18t-24 -2q-14 -2 -18 3t0 25l16 86h56q44 0 90 -13t83 -40t60 -66t23 -93z" />
<glyph unicode="&#x328;" horiz-adv-x="2" d="M-716 -190q0 32 14 66t38 64t55 56t63 44l116 -20q-68 -28 -105 -79t-37 -105q0 -52 29 -82t97 -30q16 0 18 -3t2 -15v-86q0 -10 -3 -14t-17 -6t-22 -2h-24q-102 0 -163 58t-61 154z" />
<glyph unicode="&#x3c0;" horiz-adv-x="1064" d="M702 0q-14 0 -17 4t-3 16v674q0 14 -3 17t-17 3h-260q-14 0 -17 -3t-3 -17v-674q0 -12 -3 -16t-17 -4h-136q-14 0 -17 4t-3 16v674q0 14 -3 17t-17 3h-104q-14 0 -17 4t-3 16v120q0 12 3 16t17 4h900q14 0 17 -4t3 -16v-120q0 -12 -3 -16t-17 -4h-104q-14 0 -17 -3 t-3 -17v-674q0 -12 -3 -16t-17 -4h-136z" />
<glyph unicode="&#x1e0c;" horiz-adv-x="1258" d="M492 1400q128 0 219 -25t161 -69q146 -90 220 -249t74 -357q0 -108 -25 -208t-74 -185t-121 -150t-168 -105q-62 -26 -143 -39t-161 -13h-308q-14 0 -17 3t-3 17v1360q0 14 3 17t17 3h326zM948 700q0 144 -44 261t-140 185q-50 36 -128 54t-162 18h-112q-14 0 -17 -3 t-3 -17v-996q0 -14 3 -17t17 -3h114q84 0 157 18t123 54q96 68 144 185t48 261zM562 -420q-50 0 -87 35t-37 89q0 52 36 88t88 36t88 -36t36 -86q0 -52 -36 -89t-88 -37z" />
<glyph unicode="&#x1e0d;" horiz-adv-x="1100" d="M796 438q0 60 -20 114t-56 95t-86 64t-112 23t-113 -23t-88 -64t-57 -95t-20 -114q0 -62 20 -116t57 -95t88 -64t113 -23t112 23t86 64t56 95t20 116zM796 1480q0 12 3 16t17 4h136q14 0 17 -4t3 -16v-1460q0 -12 -3 -16t-17 -4h-136q-14 0 -17 4t-3 16v80q0 4 -8 4 q-6 0 -8 -2q-52 -52 -121 -87t-161 -35q-94 0 -173 36t-137 99t-91 146t-33 177t33 177t91 145t137 98t173 36q92 0 160 -33t122 -89q2 -2 8 -2q8 0 8 4v706zM540 -420q-50 0 -87 35t-37 89q0 52 36 88t88 36t88 -36t36 -86q0 -52 -36 -89t-88 -37z" />
<glyph unicode="&#x1e10;" horiz-adv-x="1258" d="M492 1400q128 0 219 -25t161 -69q146 -90 220 -249t74 -357q0 -108 -25 -208t-74 -185t-121 -150t-168 -105q-62 -26 -143 -39t-161 -13h-308q-14 0 -17 3t-3 17v1360q0 14 3 17t17 3h326zM948 700q0 144 -44 261t-140 185q-50 36 -128 54t-162 18h-112q-14 0 -17 -3 t-3 -17v-996q0 -14 3 -17t17 -3h114q84 0 157 18t123 54q96 68 144 185t48 261zM386 -152q2 12 5 16t17 4h136q20 0 18 -20l-90 -306q-4 -12 -8 -16t-18 -4h-76q-12 0 -13 5t-1 15l30 306v0z" />
<glyph unicode="&#x1e11;" horiz-adv-x="1100" d="M796 438q0 60 -20 114t-56 95t-86 64t-112 23t-113 -23t-88 -64t-57 -95t-20 -114q0 -62 20 -116t57 -95t88 -64t113 -23t112 23t86 64t56 95t20 116zM796 1480q0 12 3 16t17 4h136q14 0 17 -4t3 -16v-1460q0 -12 -3 -16t-17 -4h-136q-14 0 -17 4t-3 16v80q0 4 -8 4 q-6 0 -8 -2q-52 -52 -121 -87t-161 -35q-94 0 -173 36t-137 99t-91 146t-33 177t33 177t91 145t137 98t173 36q92 0 160 -33t122 -89q2 -2 8 -2q8 0 8 4v706zM448 -152q2 12 5 16t17 4h136q20 0 18 -20l-90 -306q-4 -12 -8 -16t-18 -4h-76q-12 0 -13 5t-1 15l30 306v0z" />
<glyph unicode="&#x1e16;" horiz-adv-x="1024" d="M146 1380q0 14 3 17t17 3h746q14 0 17 -3t3 -17v-144q0 -14 -3 -17t-17 -3h-550q-14 0 -17 -3t-3 -17v-494q0 -14 3 -17t17 -3h530q14 0 17 -3t3 -17v-142q0 -14 -3 -17t-17 -3h-530q-14 0 -17 -3t-3 -17v-276q0 -14 3 -17t17 -3h560q14 0 17 -3t3 -17v-144q0 -14 -3 -17 t-17 -3h-756q-14 0 -17 3t-3 17v1360v0zM234 1632q0 14 4 17t16 3h596q14 0 17 -3t3 -17v-88q0 -14 -3 -17t-17 -3h-596q-14 0 -17 3t-3 17v88v0zM632 2018q10 12 15 16t17 4h192q14 0 17 -3t-9 -17l-242 -248q-12 -12 -18 -16t-18 -4h-142q-16 0 -14 5t10 15l192 248v0z " />
<glyph unicode="&#x1e17;" horiz-adv-x="968" d="M260 344q10 -96 83 -150t193 -54q30 0 67 6t73 17t66 26t48 35l5 5t7 3q8 0 8 -20v-138q0 -8 -3 -14t-13 -14q-38 -28 -110 -47t-148 -19q-116 0 -203 36t-145 97t-87 145t-29 180q0 94 30 177t84 145t131 98t171 36q100 0 177 -37t128 -100t77 -145t26 -174v-56 q0 -12 -3 -16t-17 -4h-594q-14 0 -18 -3t-4 -15zM488 736q-100 0 -163 -62t-75 -152q0 -14 3 -17t17 -3h428q16 0 19 3t1 17q-10 90 -66 152t-164 62zM166 1094q0 14 4 17t16 3h596q14 0 17 -3t3 -17v-88q0 -14 -3 -17t-17 -3h-596q-14 0 -17 3t-3 17v88v0zM564 1480 q10 12 15 16t17 4h192q14 0 17 -3t-9 -17l-242 -248q-12 -12 -18 -16t-18 -4h-142q-16 0 -14 5t10 15l192 248v0z" />
<glyph unicode="&#x1e24;" horiz-adv-x="1184" d="M1038 20q0 -14 -3 -17t-17 -3h-156q-14 0 -17 3t-3 17v460q0 14 -3 17t-17 3h-460q-14 0 -17 -3t-3 -17v-460q0 -14 -3 -17t-17 -3h-156q-14 0 -17 3t-3 17v1360q0 14 3 17t17 3h156q14 0 17 -3t3 -17v-678q0 -14 3 -17t17 -3h460q14 0 17 3t3 17v678q0 14 3 17t17 3h156 q14 0 17 -3t3 -17v-1360v0zM592 -420q-50 0 -87 35t-37 89q0 52 36 88t88 36t88 -36t36 -86q0 -52 -36 -89t-88 -37z" />
<glyph unicode="&#x1e25;" horiz-adv-x="1032" d="M916 20q0 -12 -3 -16t-17 -4h-136q-14 0 -17 4t-3 16v496q0 104 -47 161t-145 57q-102 0 -173 -67t-71 -189v-458q0 -12 -3 -16t-17 -4h-136q-14 0 -17 4t-3 16v1460q0 12 3 16t17 4h136q14 0 17 -4t3 -16v-706q0 -4 8 -4q6 0 8 2q52 56 111 89t151 33q90 0 154 -26 t104 -72t58 -107t18 -133v-536v0zM517 -420q-50 0 -87 35t-37 89q0 52 36 88t88 36t88 -36t36 -86q0 -52 -36 -89t-88 -37z" />
<glyph unicode="&#x1e36;" horiz-adv-x="904" d="M146 1380q0 14 3 17t17 3h152q14 0 17 -3t3 -17v-1176q0 -14 3 -17t17 -3h464q14 0 17 -3t3 -17v-144q0 -14 -3 -17t-17 -3h-656q-14 0 -17 3t-3 17v1360v0zM484 -420q-50 0 -87 35t-37 89q0 52 36 88t88 36t88 -36t36 -86q0 -52 -36 -89t-88 -37z" />
<glyph unicode="&#x1e37;" horiz-adv-x="448" d="M136 1480q0 12 3 16t17 4h136q14 0 17 -4t3 -16v-1460q0 -12 -3 -16t-17 -4h-136q-14 0 -17 4t-3 16v1460v0zM228 -420q-50 0 -87 35t-37 89q0 52 36 88t88 36t88 -36t36 -86q0 -52 -36 -89t-88 -37z" />
<glyph unicode="&#x1e38;" horiz-adv-x="904" d="M146 1380q0 14 3 17t17 3h152q14 0 17 -3t3 -17v-1176q0 -14 3 -17t17 -3h464q14 0 17 -3t3 -17v-144q0 -14 -3 -17t-17 -3h-656q-14 0 -17 3t-3 17v1360v0zM124 1688q0 14 4 17t16 3h596q14 0 17 -3t3 -17v-88q0 -14 -3 -17t-17 -3h-596q-14 0 -17 3t-3 17v88v0z M484 -420q-50 0 -87 35t-37 89q0 52 36 88t88 36t88 -36t36 -86q0 -52 -36 -89t-88 -37z" />
<glyph unicode="&#x1e39;" horiz-adv-x="448" d="M136 1380q0 12 3 16t17 4h136q14 0 17 -4t3 -16v-1360q0 -12 -3 -16t-17 -4h-136q-14 0 -17 4t-3 16v1360v0zM-90 1686q0 14 4 17t16 3h596q14 0 17 -3t3 -17v-88q0 -14 -3 -17t-17 -3h-596q-14 0 -17 3t-3 17v88v0zM228 -420q-50 0 -87 35t-37 89q0 52 36 88t88 36 t88 -36t36 -86q0 -52 -36 -89t-88 -37z" />
<glyph unicode="&#x1e42;" horiz-adv-x="1552" d="M834 246q-10 -10 -16 -10t-16 10l-380 536q-6 6 -14 6q-16 0 -16 -12v-756q0 -14 -3 -17t-17 -3h-154q-14 0 -17 3t-3 17v1396q0 14 6 14t14 -10l588 -860q8 -8 12 -8q6 0 12 8l588 860q8 10 14 10t6 -14v-1396q0 -14 -3 -17t-17 -3h-154q-14 0 -17 3t-3 17v756 q0 12 -16 12q-8 0 -14 -6l-380 -536v0zM818 -420q-50 0 -87 35t-37 89q0 52 36 88t88 36t88 -36t36 -86q0 -52 -36 -89t-88 -37z" />
<glyph unicode="&#x1e43;" horiz-adv-x="1556" d="M828 740q4 -4 8 -4t8 4q22 26 50 54t62 50t76 36t92 14q90 0 151 -26t98 -72t52 -107t15 -133v-536q0 -12 -3 -16t-17 -4h-136q-14 0 -17 4t-3 16v496q0 104 -36 161t-134 57q-102 0 -162 -67t-60 -189v-458q0 -12 -3 -16t-17 -4h-136q-14 0 -17 4t-3 16v496 q0 104 -36 161t-134 57q-102 0 -162 -67t-60 -189v-458q0 -12 -3 -16t-17 -4h-136q-14 0 -17 4t-3 16v834q0 12 3 16t17 4h136q14 0 17 -4t3 -16v-80q0 -4 8 -4q6 0 8 2q44 54 103 88t137 34q116 0 178 -42t90 -112zM778 -420q-50 0 -87 35t-37 89q0 52 36 88t88 36t88 -36 t36 -86q0 -52 -36 -89t-88 -37z" />
<glyph unicode="&#x1e44;" horiz-adv-x="1180" d="M352 866q-6 6 -14 6q-16 0 -16 -12v-840q0 -14 -3 -17t-17 -3h-148q-14 0 -17 3t-3 17v1396q0 14 6 14t14 -10l674 -886q6 -6 14 -6q16 0 16 12v840q0 14 3 17t17 3h148q14 0 17 -3t3 -17v-1396q0 -14 -6 -14q-4 0 -14 10l-674 886v0zM590 1518q-48 0 -86 36t-38 88 t36 89t88 37t88 -38t36 -86q0 -50 -37 -88t-87 -38z" />
<glyph unicode="&#x1e45;" horiz-adv-x="1010" d="M894 20q0 -12 -3 -16t-17 -4h-136q-14 0 -17 4t-3 16v496q0 104 -41 161t-139 57q-102 0 -169 -67t-67 -189v-458q0 -12 -3 -16t-17 -4h-136q-14 0 -17 4t-3 16v834q0 14 3 17t17 3h136q14 0 17 -4t3 -16v-80q0 -4 8 -4q6 0 8 2q28 26 56 49t58 39t66 25t82 9 q90 0 151 -26t97 -72t51 -107t15 -133v-536v0zM504 1032q-48 0 -86 36t-38 88t36 89t88 37t88 -38t36 -86q0 -50 -37 -88t-87 -38z" />
<glyph unicode="&#x1e46;" horiz-adv-x="1180" d="M352 866q-6 6 -14 6q-16 0 -16 -12v-840q0 -14 -3 -17t-17 -3h-148q-14 0 -17 3t-3 17v1396q0 14 6 14t14 -10l674 -886q6 -6 14 -6q16 0 16 12v840q0 14 3 17t17 3h148q14 0 17 -3t3 -17v-1396q0 -14 -6 -14q-4 0 -14 10l-674 886v0zM605 -420q-50 0 -87 35t-37 89 q0 52 36 88t88 36t88 -36t36 -86q0 -52 -36 -89t-88 -37z" />
<glyph unicode="&#x1e47;" horiz-adv-x="1012" d="M896 20q0 -12 -3 -16t-17 -4h-136q-14 0 -17 4t-3 16v496q0 104 -41 161t-139 57q-102 0 -169 -67t-67 -189v-458q0 -12 -3 -16t-17 -4h-136q-14 0 -17 4t-3 16v834q0 14 3 17t17 3h136q14 0 17 -4t3 -16v-80q0 -4 8 -4q6 0 8 2q28 26 56 49t58 39t66 25t82 9 q90 0 151 -26t97 -72t51 -107t15 -133v-536v0zM500 -420q-50 0 -87 35t-37 89q0 52 36 88t88 36t88 -36t36 -86q0 -52 -36 -89t-88 -37z" />
<glyph unicode="&#x1e52;" horiz-adv-x="1584" d="M469 1632q0 14 4 17t16 3h596q14 0 17 -3t3 -17v-88q0 -14 -3 -17t-17 -3h-596q-14 0 -17 3t-3 17v88v0zM867 2018q10 12 15 16t17 4h192q14 0 17 -3t-9 -17l-242 -248q-12 -12 -18 -16t-18 -4h-142q-16 0 -14 5t10 15l192 248v0zM1492 700q0 -148 -54 -278t-149 -229 t-223 -156t-274 -57q-148 0 -275 57t-222 156t-149 229t-54 278q0 146 54 277t149 230t222 156t275 57q146 0 274 -57t223 -156t149 -230t54 -277zM308 700q0 -106 36 -202t100 -168t153 -114t195 -42t195 42t153 114t100 168t36 202t-36 202t-100 168t-153 114t-195 42 t-195 -42t-153 -114t-100 -168t-36 -202z" />
<glyph unicode="&#x1e53;" horiz-adv-x="1038" d="M64 438q0 94 36 177t98 145t145 98t177 36t177 -36t144 -98t97 -145t36 -177t-36 -177t-97 -146t-144 -99t-177 -36t-177 36t-145 99t-98 146t-36 177zM244 438q0 -62 20 -116t56 -95t87 -64t113 -23t113 23t87 64t55 95t19 116q0 60 -19 114t-55 95t-87 64t-113 23 t-113 -23t-87 -64t-56 -95t-20 -114zM201 1094q0 14 4 17t16 3h596q14 0 17 -3t3 -17v-88q0 -14 -3 -17t-17 -3h-596q-14 0 -17 3t-3 17v88v0zM599 1480q10 12 15 16t17 4h192q14 0 17 -3t-9 -17l-242 -248q-12 -12 -18 -16t-18 -4h-142q-16 0 -14 5t10 15l192 248v0z" />
<glyph unicode="&#x1e5a;" horiz-adv-x="1090" d="M500 748q132 0 192 63t60 177q0 120 -70 178t-190 58h-134q-14 0 -17 -3t-3 -17v-436q0 -14 3 -17t17 -3h142zM338 20q0 -14 -3 -17t-17 -3h-150q-14 0 -19 3t-5 17v1360q0 14 3 17t17 3h318q228 0 346 -98q68 -56 98 -137t30 -177q0 -152 -88 -255t-250 -135 q-8 -2 -8 -8q0 -4 4 -8l434 -562l10 -16q0 -4 -18 -4h-200q-14 0 -17 3t-15 17l-446 584q-10 12 -16 12q-8 0 -8 -18v-578zM524 -420q-50 0 -87 35t-37 89q0 52 36 88t88 36t88 -36t36 -86q0 -52 -36 -89t-88 -37z" />
<glyph unicode="&#x1e5b;" horiz-adv-x="638" d="M148 0q-14 0 -17 4t-3 16v834q0 12 3 16t17 4h136q14 0 17 -4t3 -16v-106q0 -4 8 -4q6 0 8 2q14 26 41 53t61 48t75 34t85 13q14 0 17 -4t3 -16v-144q0 -22 -10 -22q-6 0 -19 2t-35 2q-114 0 -174 -92t-60 -254v-346q0 -12 -3 -16t-17 -4h-136v0zM224 -420q-50 0 -87 35 t-37 89q0 52 36 88t88 36t88 -36t36 -86q0 -52 -36 -89t-88 -37z" />
<glyph unicode="&#x1e5c;" horiz-adv-x="1090" d="M500 748q132 0 192 63t60 177q0 120 -70 178t-190 58h-134q-14 0 -17 -3t-3 -17v-436q0 -14 3 -17t17 -3h142zM338 20q0 -14 -3 -17t-17 -3h-150q-14 0 -19 3t-5 17v1360q0 14 3 17t17 3h318q228 0 346 -98q68 -56 98 -137t30 -177q0 -152 -88 -255t-250 -135 q-8 -2 -8 -8q0 -4 4 -8l434 -562l10 -16q0 -4 -18 -4h-200q-14 0 -17 3t-15 17l-446 584q-10 12 -16 12q-8 0 -8 -18v-578zM164 1688q0 14 4 17t16 3h596q14 0 17 -3t3 -17v-88q0 -14 -3 -17t-17 -3h-596q-14 0 -17 3t-3 17v88v0zM524 -420q-50 0 -87 35t-37 89q0 52 36 88 t88 36t88 -36t36 -86q0 -52 -36 -89t-88 -37z" />
<glyph unicode="&#x1e5d;" horiz-adv-x="638" d="M148 0q-14 0 -17 4t-3 16v834q0 12 3 16t17 4h136q14 0 17 -4t3 -16v-106q0 -4 8 -4q6 0 8 2q14 26 41 53t61 48t75 34t85 13q14 0 17 -4t3 -16v-144q0 -22 -10 -22q-6 0 -19 2t-35 2q-114 0 -174 -92t-60 -254v-346q0 -12 -3 -16t-17 -4h-136v0zM46 1200q0 14 4 17t16 3 h596q14 0 17 -3t3 -17v-88q0 -14 -3 -17t-17 -3h-596q-14 0 -17 3t-3 17v88v0zM224 -420q-50 0 -87 35t-37 89q0 52 36 88t88 36t88 -36t36 -86q0 -52 -36 -89t-88 -37z" />
<glyph unicode="&#x1e6c;" horiz-adv-x="924" d="M52 1380q0 14 3 17t17 3h780q14 0 17 -3t3 -17v-144q0 -14 -3 -17t-17 -3h-272q-14 0 -17 -3t-3 -17v-1176q0 -14 -3 -17t-17 -3h-156q-14 0 -17 3t-3 17v1176q0 14 -3 17t-17 3h-272q-14 0 -17 3t-3 17v144v0zM462 -420q-50 0 -87 35t-37 89q0 52 36 88t88 36t88 -36 t36 -86q0 -52 -36 -89t-88 -37z" />
<glyph unicode="&#x1e6d;" horiz-adv-x="528" d="M68 718q-14 0 -17 4t-3 16v116q0 12 3 16t17 4h80q14 0 17 3t3 17v266q0 20 20 32l130 80q4 2 7 4t7 2q10 0 10 -16v-368q0 -14 3 -17t17 -3h122q14 0 17 -4t3 -16v-116q0 -12 -3 -16t-17 -4h-122q-14 0 -17 -3t-3 -17v-678q0 -12 -3 -16t-17 -4h-134q-14 0 -17 4t-3 16 v678q0 14 -3 17t-17 3h-80v0zM261 -420q-50 0 -87 35t-37 89q0 52 36 88t88 36t88 -36t36 -86q0 -52 -36 -89t-88 -37z" />
<glyph unicode="&#x1e80;" horiz-adv-x="1682" d="M846 866q-4 6 -10 6q-8 0 -10 -6l-300 -888q-2 -8 -10 -8t-10 8l-466 1402q-4 12 -4 14q0 6 12 6h188q16 0 24 -20l252 -832q2 -6 10 -6q6 0 10 6l286 862q8 20 24 20t24 -20l288 -862q2 -6 10 -6q6 0 10 6l256 832q8 20 24 20h180q12 0 12 -6q0 -2 -4 -14l-476 -1402 q-2 -8 -10 -8t-10 8l-300 888v0zM950 1520q8 -10 10 -15t-14 -5h-142q-12 0 -18 4t-18 16l-242 248q-12 14 -9 17t17 3h192q12 0 17 -4t15 -16z" />
<glyph unicode="&#x1e81;" horiz-adv-x="1296" d="M434 -18q-6 -18 -20 -18q-10 0 -18 18l-376 872q-2 4 -2 8q0 2 -2 4q0 8 18 8h148q12 0 16 -4t10 -16l198 -502q2 -6 12 -6q8 0 12 6l202 532q8 20 16 20t16 -20l204 -532q2 -6 12 -6q8 0 12 6l196 502q6 12 10 16t16 4h148q18 0 18 -8q-2 -2 -2 -4t-1 -3t-1 -5 l-376 -872q-10 -18 -18 -18q-12 0 -20 18l-200 506q-4 6 -12 6q-10 0 -12 -6l-204 -506v0zM766 1032q8 -10 10 -15t-14 -5h-142q-12 0 -18 4t-18 16l-242 248q-12 14 -9 17t17 3h192q12 0 17 -4t15 -16z" />
<glyph unicode="&#x1e82;" horiz-adv-x="1682" d="M846 866q-4 6 -10 6q-8 0 -10 -6l-300 -888q-2 -8 -10 -8t-10 8l-466 1402q-4 12 -4 14q0 6 12 6h188q16 0 24 -20l252 -832q2 -6 10 -6q6 0 10 6l286 862q8 20 24 20t24 -20l288 -862q2 -6 10 -6q6 0 10 6l256 832q8 20 24 20h180q12 0 12 -6q0 -2 -4 -14l-476 -1402 q-2 -8 -10 -8t-10 8l-300 888v0zM930 1768q10 12 15 16t17 4h192q14 0 17 -3t-9 -17l-242 -248q-12 -12 -18 -16t-18 -4h-142q-16 0 -14 5t10 15l192 248v0z" />
<glyph unicode="&#x1e83;" horiz-adv-x="1296" d="M434 -18q-6 -18 -20 -18q-10 0 -18 18l-376 872q-2 4 -2 8q0 2 -2 4q0 8 18 8h148q12 0 16 -4t10 -16l198 -502q2 -6 12 -6q8 0 12 6l202 532q8 20 16 20t16 -20l204 -532q2 -6 12 -6q8 0 12 6l196 502q6 12 10 16t16 4h148q18 0 18 -8q-2 -2 -2 -4t-1 -3t-1 -5 l-376 -872q-10 -18 -18 -18q-12 0 -20 18l-200 506q-4 6 -12 6q-10 0 -12 -6l-204 -506v0zM724 1280q10 12 15 16t17 4h192q14 0 17 -3t-9 -17l-242 -248q-12 -12 -18 -16t-18 -4h-142q-16 0 -14 5t10 15l192 248v0z" />
<glyph unicode="&#x1e84;" horiz-adv-x="1682" d="M846 866q-4 6 -10 6q-8 0 -10 -6l-300 -888q-2 -8 -10 -8t-10 8l-466 1402q-4 12 -4 14q0 6 12 6h188q16 0 24 -20l252 -832q2 -6 10 -6q6 0 10 6l286 862q8 20 24 20t24 -20l288 -862q2 -6 10 -6q6 0 10 6l256 832q8 20 24 20h180q12 0 12 -6q0 -2 -4 -14l-476 -1402 q-2 -8 -10 -8t-10 8l-300 888v0zM1046 1522q-46 0 -83 34t-37 86q0 50 35 86t85 36q48 0 84 -37t36 -83t-37 -84t-83 -38zM634 1522q-46 0 -83 34t-37 86q0 50 36 86t84 36q50 0 85 -37t35 -83t-36 -84t-84 -38z" />
<glyph unicode="&#x1e85;" horiz-adv-x="1296" d="M434 -18q-6 -18 -20 -18q-10 0 -18 18l-376 872q-2 4 -2 8q0 2 -2 4q0 8 18 8h148q12 0 16 -4t10 -16l198 -502q2 -6 12 -6q8 0 12 6l202 532q8 20 16 20t16 -20l204 -532q2 -6 12 -6q8 0 12 6l196 502q6 12 10 16t16 4h148q18 0 18 -8q-2 -2 -2 -4t-1 -3t-1 -5 l-376 -872q-10 -18 -18 -18q-12 0 -20 18l-200 506q-4 6 -12 6q-10 0 -12 -6l-204 -506v0zM854 1036q-46 0 -83 34t-37 86q0 50 35 86t85 36q48 0 84 -37t36 -83t-37 -84t-83 -38zM442 1036q-46 0 -83 34t-37 86q0 50 36 86t84 36q50 0 85 -37t35 -83t-36 -84t-84 -38z" />
<glyph unicode="&#x1e9e;" horiz-adv-x="1230" d="M814 1178l4 12q0 6 -10 12q-30 16 -74 29t-114 13q-132 0 -208 -72t-76 -242v-910q0 -14 -3 -17t-17 -3h-156q-14 0 -17 3t-3 17v942q0 114 36 200t101 143t153 86t190 29q152 0 266 -50t174 -128v-6l-224 -376q-6 -10 -6 -14q0 -8 8 -10q52 -6 110 -31t106 -72t80 -119 t32 -170t-30 -182t-93 -147t-162 -99t-237 -36h-78q-14 0 -17 3t-3 17v136q0 14 3 17t17 3h86q150 0 226 76t76 202q0 132 -81 199t-237 67h-68q-8 0 -8 10q0 4 6 14l248 454v0z" />
<glyph unicode="&#x1ef2;" horiz-adv-x="1096" d="M28 1380l-4 12q0 8 12 8h198q18 0 26 -20l278 -454q2 -6 10 -6q6 0 10 6l280 454q8 14 12 17t14 3h196q12 0 12 -8l-4 -12l-422 -674v-686q0 -14 -3 -17t-17 -3h-156q-14 0 -17 3t-3 17v686zM718 1520q8 -10 10 -15t-14 -5h-142q-12 0 -18 4t-18 16l-242 248 q-12 14 -9 17t17 3h192q12 0 17 -4t15 -16z" />
<glyph unicode="&#x1ef3;" horiz-adv-x="906" d="M446 264q2 -6 8 -6q4 0 8 6l234 590q6 12 10 16t16 4h150q18 0 18 -8q-2 -2 -2 -4t-1 -3t-1 -5l-518 -1274q-6 -12 -10 -16t-16 -4h-148q-18 0 -18 8q2 0 2 2q0 6 2 10l176 436q2 2 2 10t-2 10l-336 818q-2 4 -2 8q0 2 -2 4q0 8 18 8h154q12 0 16 -4t10 -16l232 -590v0z M574 1032q8 -10 10 -15t-14 -5h-142q-12 0 -18 4t-18 16l-242 248q-12 14 -9 17t17 3h192q12 0 17 -4t15 -16z" />
<glyph unicode="&#x2002;" horiz-adv-x="888" />
<glyph unicode="&#x2003;" horiz-adv-x="1776" />
<glyph unicode="&#x2004;" horiz-adv-x="592" />
<glyph unicode="&#x2005;" horiz-adv-x="444" />
<glyph unicode="&#x2006;" horiz-adv-x="250" />
<glyph unicode="&#x2008;" horiz-adv-x="500" />
<glyph unicode="&#x2009;" horiz-adv-x="296" />
<glyph unicode="&#x200a;" horiz-adv-x="148" />
<glyph unicode="&#x200b;" horiz-adv-x="0" />
<glyph unicode="&#x2010;" horiz-adv-x="624" d="M112 600q0 14 4 17t16 3h360q14 0 17 -3t3 -17v-120q0 -14 -3 -17t-17 -3h-360q-14 0 -17 3t-3 17v120v0z" />
<glyph unicode="&#x2011;" horiz-adv-x="624" d="M112 600q0 14 4 17t16 3h360q14 0 17 -3t3 -17v-120q0 -14 -3 -17t-17 -3h-360q-14 0 -17 3t-3 17v120v0z" />
<glyph unicode="&#x2012;" d="M56 596q0 14 4 17t16 3h848q14 0 17 -3t3 -17v-104q0 -14 -3 -17t-17 -3h-848q-14 0 -17 3t-3 17v104v0z" />
<glyph unicode="&#x2013;" horiz-adv-x="976" d="M44 596q0 14 4 17t16 3h848q14 0 17 -3t3 -17v-104q0 -14 -3 -17t-17 -3h-848q-14 0 -17 3t-3 17v104v0z" />
<glyph unicode="&#x2014;" horiz-adv-x="1628" d="M148 596q0 14 4 17t16 3h1292q14 0 17 -3t3 -17v-104q0 -14 -3 -17t-17 -3h-1292q-14 0 -17 3t-3 17v104v0z" />
<glyph unicode="&#x2016;" horiz-adv-x="784" d="M136 1480q0 12 3 16t17 4h112q14 0 17 -4t3 -16v-1960q0 -12 -3 -16t-17 -4h-112q-14 0 -17 4t-3 16v1960v0zM496 1480q0 12 3 16t17 4h112q14 0 17 -4t3 -16v-1960q0 -12 -3 -16t-17 -4h-112q-14 0 -17 4t-3 16v1960v0z" />
<glyph unicode="&#x2018;" horiz-adv-x="400" d="M276 988q-2 -12 -5 -16t-17 -4h-156q-20 0 -18 20l114 392q4 12 7 16t17 4h86q12 0 14 -5t2 -15l-44 -392v0z" />
<glyph unicode="&#x2019;" horiz-adv-x="400" d="M122 1380q2 12 5 16t17 4h156q20 0 18 -20l-114 -392q-4 -12 -7 -16t-17 -4h-86q-12 0 -14 5t-2 15l44 392v0z" />
<glyph unicode="&#x201a;" horiz-adv-x="400" d="M122 174q2 12 5 16t17 4h156q20 0 18 -20l-114 -392q-4 -12 -7 -16t-17 -4h-86q-12 0 -14 5t-2 15l44 392v0z" />
<glyph unicode="&#x201c;" horiz-adv-x="700" d="M276 988q-2 -12 -5 -16t-17 -4h-156q-20 0 -18 20l114 392q4 12 7 16t17 4h86q12 0 14 -5t2 -15l-44 -392v0zM576 988q-2 -12 -5 -16t-17 -4h-156q-20 0 -18 20l114 392q4 12 7 16t17 4h86q12 0 14 -5t2 -15l-44 -392v0z" />
<glyph unicode="&#x201d;" horiz-adv-x="700" d="M122 1380q2 12 5 16t17 4h156q20 0 18 -20l-114 -392q-4 -12 -7 -16t-17 -4h-86q-12 0 -14 5t-2 15l44 392v0zM422 1380q2 12 5 16t17 4h156q20 0 18 -20l-114 -392q-4 -12 -7 -16t-17 -4h-86q-12 0 -14 5t-2 15l44 392v0z" />
<glyph unicode="&#x201e;" horiz-adv-x="700" d="M124 174q2 12 5 16t17 4h156q20 0 18 -20l-114 -392q-4 -12 -7 -16t-17 -4h-86q-12 0 -14 5t-2 15l44 392v0zM424 174q2 12 5 16t17 4h156q20 0 18 -20l-114 -392q-4 -12 -7 -16t-17 -4h-86q-12 0 -14 5t-2 15l44 392v0z" />
<glyph unicode="&#x2020;" horiz-adv-x="844" d="M480 1100q0 -14 3 -17t17 -3l258 20q14 0 17 -4t3 -16v-106q0 -12 -3 -16t-17 -4l-258 20q-14 0 -17 -3t-3 -17l28 -208v-146l-44 -500q0 -12 -3 -16t-17 -4h-44q-14 0 -17 4t-3 16l-44 500v146l28 208q0 14 -3 17t-17 3l-258 -20q-14 0 -17 4t-3 16v106q0 12 3 16t17 4 l258 -20q14 0 17 3t3 17l-28 300q0 12 3 16t17 4h132q14 0 17 -4t3 -16l-28 -300v0z" />
<glyph unicode="&#x2021;" horiz-adv-x="844" d="M360 954q0 14 -3 17t-17 3l-254 -20q-14 0 -17 4t-3 16v106q0 12 3 16t17 4l254 -20q14 0 17 3t3 17l-24 300q0 12 3 16t17 4h132q14 0 17 -4t3 -16l-24 -300q0 -14 3 -17t17 -3l254 20q14 0 17 -4t3 -16v-106q0 -12 -3 -16t-17 -4l-254 20q-14 0 -17 -3t-3 -17l24 -188 v-40l-24 -188q0 -14 3 -17t17 -3l254 20q14 0 17 -4t3 -16v-106q0 -12 -3 -16t-17 -4l-254 20q-14 0 -17 -3t-3 -17l24 -300q0 -12 -3 -16t-17 -4h-132q-14 0 -17 4t-3 16l24 300q0 14 -3 17t-17 3l-254 -20q-14 0 -17 4t-3 16v106q0 12 3 16t17 4l254 -20q14 0 17 3t3 17 l-24 188v40l24 188v0z" />
<glyph unicode="&#x2022;" horiz-adv-x="1074" d="M242 638q0 60 23 114t63 95t94 64t116 23t116 -23t93 -64t62 -95t23 -114q0 -62 -23 -116t-62 -95t-93 -64t-116 -23t-116 23t-94 64t-63 95t-23 116z" />
<glyph unicode="&#x2026;" horiz-adv-x="1366" d="M244 -24q-50 0 -87 35t-37 89q0 52 36 88t88 36t88 -36t36 -86q0 -52 -36 -89t-88 -37zM682 -24q-50 0 -87 35t-37 89q0 52 36 88t88 36t88 -36t36 -86q0 -52 -36 -89t-88 -37zM1122 -24q-50 0 -87 35t-37 89q0 52 36 88t88 36t88 -36t36 -86q0 -52 -36 -89t-88 -37z" />
<glyph unicode="&#x2030;" horiz-adv-x="2558" d="M636 1074q0 43 -13.5 80t-38.5 64.5t-61 43.5t-81 16q-46 0 -82 -16t-61.5 -43.5t-39 -64.5t-13.5 -80t13.5 -80t39 -64.5t61.5 -43.5t82 -16q45 0 81 16t61 43.5t38.5 64.5t13.5 80zM96 1074q0 68 24 130t69 108.5t109 74t144 27.5q79 0 142.5 -27.5t108.5 -74 t69 -108.5t24 -130t-24 -130t-69 -108.5t-108.5 -74t-142.5 -27.5q-80 0 -144 27.5t-109 74t-69 108.5t-24 130zM1500 326q0 43 -13.5 80t-38.5 64.5t-61 43.5t-81 16q-46 0 -82 -16t-61.5 -43.5t-39 -64.5t-13.5 -80t13.5 -80t39 -64.5t61.5 -43.5t82 -16q45 0 81 16 t61 43.5t38.5 64.5t13.5 80zM960 326q0 68 24 130t69 108.5t109 74t144 27.5q79 0 142.5 -27.5t108.5 -74t69 -108.5t24 -130t-24 -130t-69 -108.5t-108.5 -74t-142.5 -27.5q-80 0 -144 27.5t-109 74t-69 108.5t-24 130zM2312 326q0 43 -13.5 80t-38.5 64.5t-61 43.5t-81 16 q-46 0 -82 -16t-61.5 -43.5t-39 -64.5t-13.5 -80t13.5 -80t39 -64.5t61.5 -43.5t82 -16q45 0 81 16t61 43.5t38.5 64.5t13.5 80zM1772 326q0 68 24 130t69 108.5t109 74t144 27.5q79 0 142.5 -27.5t108.5 -74t69 -108.5t24 -130t-24 -130t-69 -108.5t-108.5 -74 t-142.5 -27.5q-80 0 -144 27.5t-109 74t-69 108.5t-24 130zM1222 1422q6 11 10.5 11.5t15.5 -5.5l86 -50q9 -6 11.5 -11t-3.5 -17l-792 -1372q-6 -11 -10.5 -11.5t-15.5 5.5l-86 50q-9 6 -11.5 11t3.5 17z" />
<glyph unicode="&#x2032;" horiz-adv-x="450" d="M78 968q-12 0 -12.5 4.5t2.5 15.5l114 392q3 12 8.5 16t19.5 4h160q22 0 12 -20l-184 -392q-6 -12 -11 -16t-19 -4h-90z" />
<glyph unicode="&#x2033;" horiz-adv-x="786" d="M78 968q-12 0 -12.5 4.5t2.5 15.5l114 392q3 12 8.5 16t19.5 4h160q22 0 12 -20l-184 -392q-6 -12 -11 -16t-19 -4h-90zM414 968q-12 0 -12.5 4.5t2.5 15.5l114 392q3 12 8.5 16t19.5 4h160q22 0 12 -20l-184 -392q-6 -12 -11 -16t-19 -4h-90z" />
<glyph unicode="&#x2039;" horiz-adv-x="600" d="M110 428l-4 12l4 12l242 406q6 12 14 12q4 0 14 -6l110 -64q12 -6 12 -14l-4 -12l-194 -318q-4 -8 -5 -13t-1 -9q0 -8 6 -20l194 -314q6 -10 6 -12q0 -6 -14 -14l-110 -64q-10 -6 -14 -6q-8 0 -14 12l-242 412v0z" />
<glyph unicode="&#x203a;" horiz-adv-x="600" d="M490 428l-242 -412q-6 -12 -14 -12q-4 0 -14 6l-110 64q-14 8 -14 14q0 2 6 12l194 314q6 12 6 20q0 4 -1 9t-5 13l-194 318l-4 12q0 8 12 14l110 64q10 6 14 6q8 0 14 -12l242 -406l4 -12z" />
<glyph unicode="&#x2042;" horiz-adv-x="1560" d="M304 172q-14 0 -17 4t-3 16l18 140l-6 4l-118 -80q-16 -12 -28 8l-42 72q-4 6 -4 14t10 14l134 58v8l-134 60q-16 8 -6 28l42 72q4 10 10 13t16 -5l120 -84l6 2l-18 144q0 12 3 16t17 4h96q14 0 17 -4t3 -16l-18 -142l6 -4l120 84q10 6 15 5t11 -13l42 -72q12 -18 -6 -28 l-132 -62v-6l132 -58q14 -6 14 -11t-8 -17l-42 -72q-6 -10 -12 -13t-16 5l-116 80l-6 -4l16 -140q0 -12 -3 -16t-17 -4h-96v0zM1158 172q-14 0 -17 4t-3 16l18 140l-6 4l-118 -80q-16 -12 -28 8l-42 72q-4 6 -4 14t10 14l134 58v8l-134 60q-16 8 -6 28l42 72q4 10 10 13 t16 -5l120 -84l6 2l-18 144q0 12 3 16t17 4h96q14 0 17 -4t3 -16l-18 -142l6 -4l120 84q10 6 15 5t11 -13l42 -72q12 -18 -6 -28l-132 -62v-6l132 -58q14 -6 14 -11t-8 -17l-42 -72q-6 -10 -12 -13t-16 5l-116 80l-6 -4l16 -140q0 -12 -3 -16t-17 -4h-96v0zM730 912 q-14 0 -17 4t-3 16l18 140l-6 4l-118 -80q-16 -12 -28 8l-42 72q-4 6 -4 14t10 14l134 58v8l-134 60q-16 8 -6 28l42 72q4 10 10 13t16 -5l120 -84l6 2l-18 144q0 12 3 16t17 4h96q14 0 17 -4t3 -16l-18 -142l6 -4l120 84q10 6 15 5t11 -13l42 -72q12 -18 -6 -28l-132 -62 v-6l132 -58q14 -6 14 -11t-8 -17l-42 -72q-6 -10 -12 -13t-16 5l-116 80l-6 -4l16 -140q0 -12 -3 -16t-17 -4h-96v0z" />
<glyph unicode="&#x2044;" horiz-adv-x="1332" d="M1002 1422q6 11 10.5 11.5t15.5 -5.5l86 -50q9 -6 11.5 -11t-3.5 -17l-792 -1372q-6 -11 -10.5 -11.5t-15.5 5.5l-86 50q-9 6 -11.5 11t3.5 17z" />
<glyph unicode="&#x2070;" horiz-adv-x="666" d="M602 1262q0 -187 -71 -286.5t-199 -99.5q-127 0 -197.5 99.5t-70.5 286.5q0 189 70.5 288.5t197.5 99.5q128 0 199 -99.5t71 -288.5zM214 1262q0 -53 6.5 -96.5t20.5 -74t36.5 -47t54.5 -16.5q33 0 56 16.5t37 47t20.5 74t6.5 96.5q0 54 -6.5 97.5t-20.5 74.5t-37 47.5 t-56 16.5q-32 0 -54.5 -16.5t-36.5 -47.5t-20.5 -74.5t-6.5 -97.5z" />
<glyph unicode="&#x2074;" horiz-adv-x="666" d="M30 1000q-11 0 -16.5 4.5t2.5 13.5l522 644q6 6 10 6q8 0 8 -8v-520q0 -14 3 -17t17 -3h60q14 0 17 -3t3 -17v-80q0 -14 -3 -17t-17 -3h-60q-14 0 -17 -3t-3 -17v-70q0 -14 -3 -17t-17 -3h-100q-14 0 -17 3t-3 17v70q0 14 -3 17t-17 3h-366zM416 1312q0 10 -4 10 q-5 0 -8 -6l-134 -174q-8 -11 -8 -14q0 -6 12 -6h122q14 0 17 3t3 17v170z" />
<glyph unicode="&#x2075;" horiz-adv-x="666" d="M156 1624q2 8 4.5 10t11.5 2h358q9 0 10.5 -2t1.5 -10v-104q0 -8 -1.5 -10t-10.5 -2h-246q-8 0 -10 -2t-4 -10l-10 -120q0 -9 2 -10.5t10 -1.5q11 0 24.5 1t31.5 1q56 0 101.5 -18t77.5 -49.5t49.5 -75t17.5 -95.5q0 -47 -17.5 -92t-52 -80.5t-84.5 -57.5t-114 -22 q-41 0 -72.5 7.5t-57 19.5t-45 27.5t-35.5 31.5q-4 4 -4 8t6 10l90 78q0 2 2 3t4 1t2.5 -1.5t3.5 -4.5q5 -8 15.5 -17.5t24.5 -17t31 -12.5t35 -5q53 0 87.5 33t34.5 89q0 59 -42.5 89.5t-105.5 30.5q-20 0 -41.5 -3.5t-40.5 -8.5t-33.5 -10.5t-20.5 -9.5q-6 -3 -8.5 -3.5 t-5.5 -0.5q-4 0 -4 8z" />
<glyph unicode="&#x2076;" horiz-adv-x="666" d="M356 1376q-2 -2 -2 -4v-4t8 -2q52 0 96 -18.5t75.5 -50.5t49 -75.5t17.5 -93.5q0 -52 -19 -97.5t-53.5 -80t-83.5 -54.5t-110 -20t-110.5 20t-84.5 54.5t-54 80t-19 97.5q0 49 12.5 85.5t41 78t75.5 96t117 138.5l84 100q5 6 9.5 8t12.5 2h148q1 0 1.5 -0.5t1.5 -0.5 l1 -1q0 -2 -4 -6zM214 1128q0 -26 8.5 -48.5t24.5 -39t38 -26.5t49 -10t49.5 10t38.5 26.5t25 39t9 48.5q0 25 -8.5 48t-24.5 39.5t-38.5 26.5t-50.5 10t-50 -10t-37.5 -26.5t-24 -39.5t-8.5 -48z" />
<glyph unicode="&#x2077;" horiz-adv-x="666" d="M120 890q-8 0 -8 4q0 6 2 8l274 584q0 3 1 4.5t1 3.5q0 10 -8 10h-296q-8 0 -10 1t-2 9v110q0 8 2 10t10 2h498q6 0 6 -4q0 -6 -2 -8l-314 -724q-3 -6 -5.5 -8t-10.5 -2h-138z" />
<glyph unicode="&#x2078;" horiz-adv-x="666" d="M218 1118q0 -22 9 -42t24 -35t36 -24t45 -9t44.5 9t35.5 24t23.5 35t8.5 42q0 23 -7.5 44t-22 37t-35.5 25.5t-47 9.5t-47 -9.5t-36 -25.5t-23 -37t-8 -44zM246 1446q0 -39 23.5 -64.5t62.5 -25.5q41 0 65.5 25.5t24.5 64.5q0 35 -24.5 61.5t-65.5 26.5 q-39 0 -62.5 -26.5t-23.5 -61.5zM180 1294q5 3 5.5 5t-5.5 7q-33 26 -54.5 61t-21.5 83q0 43 15.5 79.5t45 63.5t72 42t95.5 15t95.5 -15t72.5 -42t46 -63.5t16 -79.5q0 -50 -22.5 -84t-55.5 -60q-7 -7 0 -12q48 -30 80 -74t32 -106q0 -50 -17.5 -93.5t-51.5 -75.5 t-83 -50.5t-112 -18.5t-112 18.5t-83 50.5t-51.5 75.5t-17.5 93.5q0 62 31 106t81 74z" />
<glyph unicode="&#x2079;" horiz-adv-x="666" d="M310 1146q2 2 2 4v4t-8 2q-53 0 -96.5 19t-75 52t-49 77t-17.5 94q0 52 19 97.5t53.5 80t83.5 54.5t110 20t110.5 -20t84.5 -54.5t54 -80t19 -97.5q0 -49 -11.5 -85.5t-39 -78t-73.5 -96t-116 -138.5l-82 -100q-8 -10 -22 -10h-148q-2 0 -3 1q-1 0 -1 1q0 2 4 6z M454 1398q0 25 -8.5 48t-24.5 39.5t-38 26.5t-49 10t-49.5 -10t-38.5 -26.5t-25 -39.5t-9 -48q0 -26 8.5 -48.5t24.5 -39t38.5 -26.5t50.5 -10t50 10t37.5 26.5t24 39t8.5 48.5z" />
<glyph unicode="&#x207a;" horiz-adv-x="666" d="M396 1332q0 -14 3 -17t17 -3h202q14 0 17 -4t3 -16v-82q0 -12 -3 -16t-17 -4h-202q-14 0 -17 -3t-3 -17v-214q0 -12 -3 -16t-17 -4h-88q-14 0 -17 4t-3 16v214q0 14 -3 17t-17 3h-202q-14 0 -17 4t-3 16v82q0 12 3 16t17 4h202q14 0 17 3t3 17v214q0 12 3 16t17 4h88 q14 0 17 -4t3 -16v-214z" />
<glyph unicode="&#x207b;" horiz-adv-x="666" d="M618 1312q14 0 17 -4t3 -16v-82q0 -12 -3 -16t-17 -4h-572q-14 0 -17 4t-3 16v82q0 12 3 16t17 4h572z" />
<glyph unicode="&#x207c;" horiz-adv-x="666" d="M618 1172q14 0 17 -4t3 -16v-82q0 -12 -3 -16t-17 -4h-572q-14 0 -17 4t-3 16v82q0 12 3 16t17 4h572zM618 1452q14 0 17 -4t3 -16v-82q0 -12 -3 -16t-17 -4h-572q-14 0 -17 4t-3 16v82q0 12 3 16t17 4h572z" />
<glyph unicode="&#x207d;" horiz-adv-x="666" d="M358 676q-31 54 -59 119t-49.5 137.5t-34.5 151.5t-13 162q0 85 12.5 165t34 152t49.5 136t60 119q2 8 5.5 11t6.5 3q6 0 8 -2l74 -36q10 -3 10 -12q0 -6 -2 -8q-27 -50 -52.5 -109t-45 -126.5t-31 -141t-11.5 -151.5q0 -77 11.5 -150.5t31 -141t45 -127.5t52.5 -109 q2 -2 2 -8q0 -9 -10 -12l-74 -34q-2 -2 -8 -2q-9 0 -12 14z" />
<glyph unicode="&#x207e;" horiz-adv-x="666" d="M306 676q-3 -14 -12 -14q-6 0 -8 2l-74 34q-10 3 -10 12q0 6 2 8q27 49 52.5 109t45 127.5t31 141t11.5 150.5q0 78 -11.5 151.5t-31 141t-45 126.5t-52.5 109q-2 2 -2 8q0 9 10 12l74 36q2 2 8 2q3 0 6.5 -3t5.5 -11q32 -55 60 -119t49.5 -136t34 -152t12.5 -165 q0 -83 -13 -162t-34.5 -151.5t-49.5 -137.5t-59 -119z" />
<glyph unicode="&#x2080;" horiz-adv-x="666" d="M602 112q0 -187 -71 -286.5t-199 -99.5q-127 0 -197.5 99.5t-70.5 286.5q0 189 70.5 288.5t197.5 99.5q128 0 199 -99.5t71 -288.5zM214 112q0 -53 6.5 -96.5t20.5 -74t36.5 -47t54.5 -16.5q33 0 56 16.5t37 47t20.5 74t6.5 96.5q0 54 -6.5 97.5t-20.5 74.5t-37 47.5 t-56 16.5q-32 0 -54.5 -16.5t-36.5 -47.5t-20.5 -74.5t-6.5 -97.5z" />
<glyph unicode="&#x2081;" horiz-adv-x="666" d="M490 -242q0 -12 -2 -15t-16 -3h-120q-12 0 -15 3t-3 15v526q0 17 -3 21t-17 -1l-122 -42q-12 -5 -16 -3.5t-4 15.5v102q0 14 4 18.5t16 9.5l278 96q17 5 18.5 1.5t1.5 -17.5v-726z" />
<glyph unicode="&#x2082;" horiz-adv-x="666" d="M74 244q0 57 16.5 104t49.5 81t81 52.5t111 18.5q65 0 114 -18.5t82 -52t49.5 -80.5t16.5 -105q0 -65 -42.5 -141.5t-131.5 -168.5l-44 -44q-6 -6 -6 -10q0 -6 10 -6h182q14 0 17 -3t3 -17v-94q0 -14 -3 -17t-17 -3h-484q-8 0 -8 8q0 6 3 9t3 5l228 246q28 31 52.5 60 t43 57t29.5 55.5t11 55.5q0 63 -30.5 93.5t-81.5 30.5q-48 0 -77 -29.5t-29 -86.5q0 -14 -3 -17t-17 -3h-108q-14 0 -17 3t-3 17z" />
<glyph unicode="&#x2083;" horiz-adv-x="666" d="M218 286q0 -14 -3 -17t-17 -3h-96q-14 0 -17 3t-3 17q2 49 20.5 88.5t50.5 67.5t76.5 43t98.5 15q56 0 100.5 -17t75.5 -45t47.5 -64t16.5 -74q0 -47 -17 -76.5t-49 -53.5q-8 -8 -8 -12q0 -5 8 -10q47 -32 74.5 -82t27.5 -104q0 -52 -18.5 -95t-53.5 -74.5t-86.5 -49 t-117.5 -17.5q-60 0 -109 17t-84 48.5t-54 74.5t-19 96q0 14 3 17t17 3h102q14 0 17 -3t3 -17q0 -23 10.5 -42t27.5 -32.5t39.5 -21.5t46.5 -8q56 0 89 25t33 75q0 44 -30 72t-92 28h-66q-14 0 -17 3t-3 17v90q0 14 3 17t17 3h52q53 0 79.5 18.5t26.5 65.5q0 45 -26.5 72.5 t-73.5 27.5q-42 0 -69.5 -22t-32.5 -64z" />
<glyph unicode="&#x2084;" horiz-adv-x="666" d="M30 -150q-11 0 -16.5 4.5t2.5 13.5l522 644q6 6 10 6q8 0 8 -8v-520q0 -14 3 -17t17 -3h60q14 0 17 -3t3 -17v-80q0 -14 -3 -17t-17 -3h-60q-14 0 -17 -3t-3 -17v-70q0 -14 -3 -17t-17 -3h-100q-14 0 -17 3t-3 17v70q0 14 -3 17t-17 3h-366zM416 162q0 10 -4 10 q-5 0 -8 -6l-134 -174q-8 -11 -8 -14q0 -6 12 -6h122q14 0 17 3t3 17v170z" />
<glyph unicode="&#x2085;" horiz-adv-x="666" d="M156 474q2 8 4.5 10t11.5 2h358q9 0 10.5 -2t1.5 -10v-104q0 -8 -1.5 -10t-10.5 -2h-246q-8 0 -10 -2t-4 -10l-10 -120q0 -9 2 -10.5t10 -1.5q11 0 24.5 1t31.5 1q56 0 101.5 -18t77.5 -49.5t49.5 -75t17.5 -95.5q0 -47 -17.5 -92t-52 -80.5t-84.5 -57.5t-114 -22 q-41 0 -72.5 7.5t-57 19.5t-45 27.5t-35.5 31.5q-4 4 -4 8t6 10l90 78q0 2 2 3t4 1t2.5 -1.5t3.5 -4.5q5 -8 15.5 -17.5t24.5 -17t31 -12.5t35 -5q53 0 87.5 33t34.5 89q0 59 -42.5 89.5t-105.5 30.5q-20 0 -41.5 -3.5t-40.5 -8.5t-33.5 -10.5t-20.5 -9.5q-6 -3 -8.5 -3.5 t-5.5 -0.5q-4 0 -4 8z" />
<glyph unicode="&#x2086;" horiz-adv-x="666" d="M356 226q-2 -2 -2 -4v-4t8 -2q52 0 96 -18.5t75.5 -50.5t49 -75.5t17.5 -93.5q0 -52 -19 -97.5t-53.5 -80t-83.5 -54.5t-110 -20t-110.5 20t-84.5 54.5t-54 80t-19 97.5q0 49 12.5 85.5t41 78t75.5 96t117 138.5l84 100q5 6 9.5 8t12.5 2h148q1 0 1.5 -0.5t1.5 -0.5l1 -1 q0 -2 -4 -6zM214 -22q0 -26 8.5 -48.5t24.5 -39t38 -26.5t49 -10t49.5 10t38.5 26.5t25 39t9 48.5q0 25 -8.5 48t-24.5 39.5t-38.5 26.5t-50.5 10t-50 -10t-37.5 -26.5t-24 -39.5t-8.5 -48z" />
<glyph unicode="&#x2087;" horiz-adv-x="666" d="M120 -260q-8 0 -8 4q0 6 2 8l274 584q0 3 1 4.5t1 3.5q0 10 -8 10h-296q-8 0 -10 1t-2 9v110q0 8 2 10t10 2h498q6 0 6 -4q0 -6 -2 -8l-314 -724q-3 -6 -5.5 -8t-10.5 -2h-138z" />
<glyph unicode="&#x2088;" horiz-adv-x="666" d="M218 -32q0 -22 9 -42t24 -35t36 -24t45 -9t44.5 9t35.5 24t23.5 35t8.5 42q0 23 -7.5 44t-22 37t-35.5 25.5t-47 9.5t-47 -9.5t-36 -25.5t-23 -37t-8 -44zM246 296q0 -39 23.5 -64.5t62.5 -25.5q41 0 65.5 25.5t24.5 64.5q0 35 -24.5 61.5t-65.5 26.5q-39 0 -62.5 -26.5 t-23.5 -61.5zM180 144q5 3 5.5 5t-5.5 7q-33 26 -54.5 61t-21.5 83q0 43 15.5 79.5t45 63.5t72 42t95.5 15t95.5 -15t72.5 -42t46 -63.5t16 -79.5q0 -50 -22.5 -84t-55.5 -60q-7 -7 0 -12q48 -30 80 -74t32 -106q0 -50 -17.5 -93.5t-51.5 -75.5t-83 -50.5t-112 -18.5 t-112 18.5t-83 50.5t-51.5 75.5t-17.5 93.5q0 62 31 106t81 74z" />
<glyph unicode="&#x2089;" horiz-adv-x="666" d="M310 -4q2 2 2 4v4t-8 2q-53 0 -96.5 19t-75 52t-49 77t-17.5 94q0 52 19 97.5t53.5 80t83.5 54.5t110 20t110.5 -20t84.5 -54.5t54 -80t19 -97.5q0 -49 -11.5 -85.5t-39 -78t-73.5 -96t-116 -138.5l-82 -100q-8 -10 -22 -10h-148q-2 0 -3 1q-1 0 -1 1q0 2 4 6zM454 248 q0 25 -8.5 48t-24.5 39.5t-38 26.5t-49 10t-49.5 -10t-38.5 -26.5t-25 -39.5t-9 -48q0 -26 8.5 -48.5t24.5 -39t38.5 -26.5t50.5 -10t50 10t37.5 26.5t24 39t8.5 48.5z" />
<glyph unicode="&#x208a;" horiz-adv-x="666" d="M396 132q0 -14 3 -17t17 -3h202q14 0 17 -4t3 -16v-82q0 -12 -3 -16t-17 -4h-202q-14 0 -17 -3t-3 -17v-214q0 -12 -3 -16t-17 -4h-88q-14 0 -17 4t-3 16v214q0 14 -3 17t-17 3h-202q-14 0 -17 4t-3 16v82q0 12 3 16t17 4h202q14 0 17 3t3 17v214q0 12 3 16t17 4h88 q14 0 17 -4t3 -16v-214z" />
<glyph unicode="&#x208b;" horiz-adv-x="666" d="M618 112q14 0 17 -4t3 -16v-82q0 -12 -3 -16t-17 -4h-572q-14 0 -17 4t-3 16v82q0 12 3 16t17 4h572z" />
<glyph unicode="&#x208c;" horiz-adv-x="666" d="M618 -28q14 0 17 -4t3 -16v-82q0 -12 -3 -16t-17 -4h-572q-14 0 -17 4t-3 16v82q0 12 3 16t17 4h572zM618 252q14 0 17 -4t3 -16v-82q0 -12 -3 -16t-17 -4h-572q-14 0 -17 4t-3 16v82q0 12 3 16t17 4h572z" />
<glyph unicode="&#x208d;" horiz-adv-x="666" d="M358 -524q-31 54 -59 119t-49.5 137.5t-34.5 151.5t-13 162q0 85 12.5 165t34 152t49.5 136t60 119q2 8 5.5 11t6.5 3q6 0 8 -2l74 -36q10 -3 10 -12q0 -6 -2 -8q-27 -50 -52.5 -109t-45 -126.5t-31 -141t-11.5 -151.5q0 -77 11.5 -150.5t31 -141t45 -127.5t52.5 -109 q2 -2 2 -8q0 -9 -10 -12l-74 -34q-2 -2 -8 -2q-9 0 -12 14z" />
<glyph unicode="&#x208e;" horiz-adv-x="666" d="M306 -524q-3 -14 -12 -14q-6 0 -8 2l-74 34q-10 3 -10 12q0 6 2 8q27 49 52.5 109t45 127.5t31 141t11.5 150.5q0 78 -11.5 151.5t-31 141t-45 126.5t-52.5 109q-2 2 -2 8q0 9 10 12l74 36q2 2 8 2q3 0 6.5 -3t5.5 -11q32 -55 60 -119t49.5 -136t34 -152t12.5 -165 q0 -83 -13 -162t-34.5 -151.5t-49.5 -137.5t-59 -119z" />
<glyph unicode="&#x2090;" horiz-adv-x="732" d="M666 258q14 0 17 -4t3 -18v-526q0 -12 -3 -16t-17 -4h-90q-14 0 -17 4t-3 16v52q0 2 -3.5 3t-6.5 1h-5t-5 -2q-29 -41 -80 -64.5t-108 -23.5q-65 0 -118.5 22t-91.5 61.5t-59 94.5t-21 120t21 120t59 94.5t91.5 61.5t118.5 22q57 0 108 -23.5t80 -64.5q2 -2 5 -2h5 q3 0 6.5 1t3.5 3v52q0 12 3 16t17 4h90zM200 -26q0 -38 13 -70.5t36 -56t54 -36.5t67 -13t67.5 13t54.5 36.5t36.5 56t13.5 70.5t-13.5 70.5t-36.5 56t-54.5 36.5t-67.5 13t-67 -13t-54 -36.5t-36 -56t-13 -70.5z" />
</font>
</defs>
</svg>
